Terminal-Grotesque.ufo
<glyph name="space" format="1">
  <advance width="290"/>
  <unicode hex="0020"/>
  <outline>
    <contour>
      <point x="131.489" y="313.5"/>
      <point x="30.4893" y="326.5"/>
      <point x="172.489" y="326.5"/>
      <point x="273.489" y="311.5"/>
      <point x="273.489" y="289.5"/>
      <point x="172.489" y="274.5"/>
      <point x="30.4893" y="274.5"/>
      <point x="131.489" y="291.5"/>
    </contour>
  </outline>
</glyph>
<glyph name="exclam" format="1">
  <advance width="212"/>
  <unicode hex="0021"/>
  <outline>
    <contour>
      <point x="57" y="0" type="line" smooth="no"/>
      <point x="57" y="96" type="line" smooth="no"/>
      <point x="153" y="96" type="line" smooth="no"/>
      <point x="153" y="0" type="line" smooth="no"/>
    </contour>
    <contour>
      <point x="57" y="192" type="line" smooth="no"/>
      <point x="57" y="640" type="line" smooth="no"/>
      <point x="153" y="640" type="line" smooth="no"/>
      <point x="153" y="192" type="line" smooth="no"/>
    </contour>
  </outline>
</glyph>
<glyph name="quotedbl" format="1">
  <advance width="283"/>
  <unicode hex="0022"/>
  <outline>
    <contour>
      <point x="32" y="480" type="line" smooth="no"/>
      <point x="32" y="640" type="line" smooth="no"/>
      <point x="96" y="640" type="line" smooth="no"/>
      <point x="96" y="480" type="line" smooth="no"/>
    </contour>
    <contour>
      <point x="160" y="480" type="line" smooth="no"/>
      <point x="160" y="640" type="line" smooth="no"/>
      <point x="224" y="640" type="line" smooth="no"/>
      <point x="224" y="480" type="line" smooth="no"/>
    </contour>
  </outline>
</glyph>
<glyph name="numbersign" format="1">
  <advance width="752"/>
  <unicode hex="0023"/>
  <outline>
    <contour>
      <point x="438" y="224" type="line" smooth="no"/>
      <point x="438" y="320" type="line" smooth="no"/>
      <point x="470" y="320" type="line" smooth="no"/>
      <point x="470" y="416" type="line" smooth="no"/>
      <point x="310" y="416" type="line" smooth="no"/>
      <point x="310" y="320" type="line" smooth="no"/>
      <point x="278" y="320" type="line" smooth="no"/>
      <point x="278" y="224" type="line" smooth="no"/>
    </contour>
    <contour>
      <point x="86" y="0" type="line" smooth="no"/>
      <point x="86" y="64" type="line" smooth="no"/>
      <point x="118" y="64" type="line" smooth="no"/>
      <point x="118" y="160" type="line" smooth="no"/>
      <point x="22" y="160" type="line" smooth="no"/>
      <point x="22" y="224" type="line" smooth="no"/>
      <point x="182" y="224" type="line" smooth="no"/>
      <point x="182" y="320" type="line" smooth="no"/>
      <point x="214" y="320" type="line" smooth="no"/>
      <point x="214" y="416" type="line" smooth="no"/>
      <point x="118" y="416" type="line" smooth="no"/>
      <point x="118" y="480" type="line" smooth="no"/>
      <point x="278" y="480" type="line" smooth="no"/>
      <point x="278" y="576" type="line" smooth="no"/>
      <point x="310" y="576" type="line" smooth="no"/>
      <point x="310" y="640" type="line" smooth="no"/>
      <point x="406" y="640" type="line" smooth="no"/>
      <point x="406" y="576" type="line" smooth="no"/>
      <point x="374" y="576" type="line" smooth="no"/>
      <point x="374" y="480" type="line" smooth="no"/>
      <point x="534" y="480" type="line" smooth="no"/>
      <point x="534" y="576" type="line" smooth="no"/>
      <point x="566" y="576" type="line" smooth="no"/>
      <point x="566" y="640" type="line" smooth="no"/>
      <point x="662" y="640" type="line" smooth="no"/>
      <point x="662" y="576" type="line" smooth="no"/>
      <point x="630" y="576" type="line" smooth="no"/>
      <point x="630" y="480" type="line" smooth="no"/>
      <point x="726" y="480" type="line" smooth="no"/>
      <point x="726" y="416" type="line" smooth="no"/>
      <point x="566" y="416" type="line" smooth="no"/>
      <point x="566" y="320" type="line" smooth="no"/>
      <point x="534" y="320" type="line" smooth="no"/>
      <point x="534" y="224" type="line" smooth="no"/>
      <point x="630" y="224" type="line" smooth="no"/>
      <point x="630" y="160" type="line" smooth="no"/>
      <point x="470" y="160" type="line" smooth="no"/>
      <point x="470" y="64" type="line" smooth="no"/>
      <point x="438" y="64" type="line" smooth="no"/>
      <point x="438" y="0" type="line" smooth="no"/>
      <point x="342" y="0" type="line" smooth="no"/>
      <point x="342" y="64" type="line" smooth="no"/>
      <point x="374" y="64" type="line" smooth="no"/>
      <point x="374" y="160" type="line" smooth="no"/>
      <point x="214" y="160" type="line" smooth="no"/>
      <point x="214" y="64" type="line" smooth="no"/>
      <point x="182" y="64" type="line" smooth="no"/>
      <point x="182" y="0" type="line" smooth="no"/>
    </contour>
  </outline>
</glyph>
<glyph name="dollar" format="1">
  <advance width="513"/>
  <unicode hex="0024"/>
  <outline>
    <contour>
      <point x="339" y="96" type="line" smooth="no"/>
      <point x="339" y="128" type="line" smooth="no"/>
      <point x="371" y="128" type="line" smooth="no"/>
      <point x="371" y="224" type="line" smooth="no"/>
      <point x="339" y="224" type="line" smooth="no"/>
      <point x="339" y="256" type="line" smooth="no"/>
      <point x="307" y="256" type="line" smooth="no"/>
      <point x="307" y="96" type="line" smooth="no"/>
    </contour>
    <contour>
      <point x="243" y="384" type="line" smooth="no"/>
      <point x="243" y="544" type="line" smooth="no"/>
      <point x="179" y="544" type="line" smooth="no"/>
      <point x="179" y="512" type="line" smooth="no"/>
      <point x="147" y="512" type="line" smooth="no"/>
      <point x="147" y="416" type="line" smooth="no"/>
      <point x="211" y="416" type="line" smooth="no"/>
      <point x="211" y="384" type="line" smooth="no"/>
    </contour>
    <contour>
      <point x="243" y="-64" type="line" smooth="no"/>
      <point x="243" y="0" type="line" smooth="no"/>
      <point x="179" y="0" type="line" smooth="no"/>
      <point x="179" y="32" type="line" smooth="no"/>
      <point x="115" y="32" type="line" smooth="no"/>
      <point x="115" y="64" type="line" smooth="no"/>
      <point x="83" y="64" type="line" smooth="no"/>
      <point x="83" y="96" type="line" smooth="no"/>
      <point x="51" y="96" type="line" smooth="no"/>
      <point x="51" y="160" type="line" smooth="no"/>
      <point x="147" y="160" type="line" smooth="no"/>
      <point x="147" y="128" type="line" smooth="no"/>
      <point x="179" y="128" type="line" smooth="no"/>
      <point x="179" y="96" type="line" smooth="no"/>
      <point x="243" y="96" type="line" smooth="no"/>
      <point x="243" y="288" type="line" smooth="no"/>
      <point x="211" y="288" type="line" smooth="no"/>
      <point x="211" y="320" type="line" smooth="no"/>
      <point x="115" y="320" type="line" smooth="no"/>
      <point x="115" y="352" type="line" smooth="no"/>
      <point x="83" y="352" type="line" smooth="no"/>
      <point x="83" y="384" type="line" smooth="no"/>
      <point x="51" y="384" type="line" smooth="no"/>
      <point x="51" y="544" type="line" smooth="no"/>
      <point x="83" y="544" type="line" smooth="no"/>
      <point x="83" y="576" type="line" smooth="no"/>
      <point x="115" y="576" type="line" smooth="no"/>
      <point x="115" y="608" type="line" smooth="no"/>
      <point x="147" y="608" type="line" smooth="no"/>
      <point x="147" y="640" type="line" smooth="no"/>
      <point x="243" y="640" type="line" smooth="no"/>
      <point x="243" y="704" type="line" smooth="no"/>
      <point x="307" y="704" type="line" smooth="no"/>
      <point x="307" y="640" type="line" smooth="no"/>
      <point x="371" y="640" type="line" smooth="no"/>
      <point x="371" y="608" type="line" smooth="no"/>
      <point x="403" y="608" type="line" smooth="no"/>
      <point x="403" y="576" type="line" smooth="no"/>
      <point x="435" y="576" type="line" smooth="no"/>
      <point x="435" y="512" type="line" smooth="no"/>
      <point x="339" y="512" type="line" smooth="no"/>
      <point x="339" y="544" type="line" smooth="no"/>
      <point x="307" y="544" type="line" smooth="no"/>
      <point x="307" y="352" type="line" smooth="no"/>
      <point x="371" y="352" type="line" smooth="no"/>
      <point x="371" y="320" type="line" smooth="no"/>
      <point x="435" y="320" type="line" smooth="no"/>
      <point x="435" y="256" type="line" smooth="no"/>
      <point x="467" y="256" type="line" smooth="no"/>
      <point x="467" y="96" type="line" smooth="no"/>
      <point x="435" y="96" type="line" smooth="no"/>
      <point x="435" y="64" type="line" smooth="no"/>
      <point x="403" y="64" type="line" smooth="no"/>
      <point x="403" y="32" type="line" smooth="no"/>
      <point x="339" y="32" type="line" smooth="no"/>
      <point x="339" y="0" type="line" smooth="no"/>
      <point x="307" y="0" type="line" smooth="no"/>
      <point x="307" y="-64" type="line" smooth="no"/>
    </contour>
  </outline>
</glyph>
<glyph name="percent" format="1">
  <advance width="650"/>
  <unicode hex="0025"/>
  <outline>
    <contour>
      <point x="527" y="64" type="line" smooth="no"/>
      <point x="527" y="160" type="line" smooth="no"/>
      <point x="463" y="160" type="line" smooth="no"/>
      <point x="463" y="64" type="line" smooth="no"/>
    </contour>
    <contour>
      <point x="463" y="0" type="line" smooth="no"/>
      <point x="463" y="32" type="line" smooth="no"/>
      <point x="431" y="32" type="line" smooth="no"/>
      <point x="431" y="64" type="line" smooth="no"/>
      <point x="399" y="64" type="line" smooth="no"/>
      <point x="399" y="160" type="line" smooth="no"/>
      <point x="431" y="160" type="line" smooth="no"/>
      <point x="431" y="192" type="line" smooth="no"/>
      <point x="463" y="192" type="line" smooth="no"/>
      <point x="463" y="224" type="line" smooth="no"/>
      <point x="527" y="224" type="line" smooth="no"/>
      <point x="527" y="192" type="line" smooth="no"/>
      <point x="559" y="192" type="line" smooth="no"/>
      <point x="559" y="160" type="line" smooth="no"/>
      <point x="591" y="160" type="line" smooth="no"/>
      <point x="591" y="64" type="line" smooth="no"/>
      <point x="559" y="64" type="line" smooth="no"/>
      <point x="559" y="32" type="line" smooth="no"/>
      <point x="527" y="32" type="line" smooth="no"/>
      <point x="527" y="0" type="line" smooth="no"/>
    </contour>
    <contour>
      <point x="175" y="480" type="line" smooth="no"/>
      <point x="175" y="576" type="line" smooth="no"/>
      <point x="111" y="576" type="line" smooth="no"/>
      <point x="111" y="480" type="line" smooth="no"/>
    </contour>
    <contour>
      <point x="111" y="416" type="line" smooth="no"/>
      <point x="111" y="448" type="line" smooth="no"/>
      <point x="79" y="448" type="line" smooth="no"/>
      <point x="79" y="480" type="line" smooth="no"/>
      <point x="47" y="480" type="line" smooth="no"/>
      <point x="47" y="576" type="line" smooth="no"/>
      <point x="79" y="576" type="line" smooth="no"/>
      <point x="79" y="608" type="line" smooth="no"/>
      <point x="111" y="608" type="line" smooth="no"/>
      <point x="111" y="640" type="line" smooth="no"/>
      <point x="175" y="640" type="line" smooth="no"/>
      <point x="175" y="608" type="line" smooth="no"/>
      <point x="207" y="608" type="line" smooth="no"/>
      <point x="207" y="576" type="line" smooth="no"/>
      <point x="239" y="576" type="line" smooth="no"/>
      <point x="239" y="480" type="line" smooth="no"/>
      <point x="207" y="480" type="line" smooth="no"/>
      <point x="207" y="448" type="line" smooth="no"/>
      <point x="175" y="448" type="line" smooth="no"/>
      <point x="175" y="416" type="line" smooth="no"/>
    </contour>
    <contour>
      <point x="47" y="0" type="line" smooth="no"/>
      <point x="47" y="32" type="line" smooth="no"/>
      <point x="79" y="32" type="line" smooth="no"/>
      <point x="79" y="96" type="line" smooth="no"/>
      <point x="111" y="96" type="line" smooth="no"/>
      <point x="111" y="128" type="line" smooth="no"/>
      <point x="143" y="128" type="line" smooth="no"/>
      <point x="143" y="160" type="line" smooth="no"/>
      <point x="175" y="160" type="line" smooth="no"/>
      <point x="175" y="224" type="line" smooth="no"/>
      <point x="207" y="224" type="line" smooth="no"/>
      <point x="207" y="256" type="line" smooth="no"/>
      <point x="239" y="256" type="line" smooth="no"/>
      <point x="239" y="288" type="line" smooth="no"/>
      <point x="271" y="288" type="line" smooth="no"/>
      <point x="271" y="352" type="line" smooth="no"/>
      <point x="303" y="352" type="line" smooth="no"/>
      <point x="303" y="384" type="line" smooth="no"/>
      <point x="335" y="384" type="line" smooth="no"/>
      <point x="335" y="416" type="line" smooth="no"/>
      <point x="367" y="416" type="line" smooth="no"/>
      <point x="367" y="480" type="line" smooth="no"/>
      <point x="399" y="480" type="line" smooth="no"/>
      <point x="399" y="512" type="line" smooth="no"/>
      <point x="431" y="512" type="line" smooth="no"/>
      <point x="431" y="544" type="line" smooth="no"/>
      <point x="463" y="544" type="line" smooth="no"/>
      <point x="463" y="608" type="line" smooth="no"/>
      <point x="495" y="608" type="line" smooth="no"/>
      <point x="495" y="640" type="line" smooth="no"/>
      <point x="591" y="640" type="line" smooth="no"/>
      <point x="591" y="608" type="line" smooth="no"/>
      <point x="559" y="608" type="line" smooth="no"/>
      <point x="559" y="544" type="line" smooth="no"/>
      <point x="527" y="544" type="line" smooth="no"/>
      <point x="527" y="512" type="line" smooth="no"/>
      <point x="495" y="512" type="line" smooth="no"/>
      <point x="495" y="480" type="line" smooth="no"/>
      <point x="463" y="480" type="line" smooth="no"/>
      <point x="463" y="416" type="line" smooth="no"/>
      <point x="431" y="416" type="line" smooth="no"/>
      <point x="431" y="384" type="line" smooth="no"/>
      <point x="399" y="384" type="line" smooth="no"/>
      <point x="399" y="352" type="line" smooth="no"/>
      <point x="367" y="352" type="line" smooth="no"/>
      <point x="367" y="288" type="line" smooth="no"/>
      <point x="335" y="288" type="line" smooth="no"/>
      <point x="335" y="256" type="line" smooth="no"/>
      <point x="303" y="256" type="line" smooth="no"/>
      <point x="303" y="224" type="line" smooth="no"/>
      <point x="271" y="224" type="line" smooth="no"/>
      <point x="271" y="160" type="line" smooth="no"/>
      <point x="239" y="160" type="line" smooth="no"/>
      <point x="239" y="128" type="line" smooth="no"/>
      <point x="207" y="128" type="line" smooth="no"/>
      <point x="207" y="96" type="line" smooth="no"/>
      <point x="175" y="96" type="line" smooth="no"/>
      <point x="175" y="32" type="line" smooth="no"/>
      <point x="143" y="32" type="line" smooth="no"/>
      <point x="143" y="0" type="line" smooth="no"/>
    </contour>
  </outline>
</glyph>
<glyph name="ampersand" format="1">
  <advance width="586"/>
  <unicode hex="0026"/>
  <outline>
    <contour>
      <point x="173" y="0" type="line" smooth="no"/>
      <point x="173" y="32" type="line" smooth="no"/>
      <point x="109" y="32" type="line" smooth="no"/>
      <point x="109" y="64" type="line" smooth="no"/>
      <point x="77" y="64" type="line" smooth="no"/>
      <point x="77" y="128" type="line" smooth="no"/>
      <point x="45" y="128" type="line" smooth="no"/>
      <point x="45" y="256" type="line" smooth="no"/>
      <point x="77" y="256" type="line" smooth="no"/>
      <point x="77" y="320" type="line" smooth="no"/>
      <point x="109" y="320" type="line" smooth="no"/>
      <point x="109" y="352" type="line" smooth="no"/>
      <point x="141" y="352" type="line" smooth="no"/>
      <point x="141" y="384" type="line" smooth="no"/>
      <point x="109" y="384" type="line" smooth="no"/>
      <point x="109" y="416" type="line" smooth="no"/>
      <point x="77" y="416" type="line" smooth="no"/>
      <point x="77" y="512" type="line" smooth="no"/>
      <point x="109" y="512" type="line" smooth="no"/>
      <point x="109" y="576" type="line" smooth="no"/>
      <point x="141" y="576" type="line" smooth="no"/>
      <point x="141" y="608" type="line" smooth="no"/>
      <point x="205" y="608" type="line" smooth="no"/>
      <point x="205" y="640" type="line" smooth="no"/>
      <point x="333" y="640" type="line" smooth="no"/>
      <point x="333" y="608" type="line" smooth="no"/>
      <point x="397" y="608" type="line" smooth="no"/>
      <point x="397" y="576" type="line" smooth="no"/>
      <point x="429" y="576" type="line" smooth="no"/>
      <point x="429" y="544" type="line" smooth="no"/>
      <point x="461" y="544" type="line" smooth="no"/>
      <point x="461" y="448" type="line" smooth="no"/>
      <point x="429" y="448" type="line" smooth="no"/>
      <point x="429" y="416" type="line" smooth="no"/>
      <point x="333" y="416" type="line" smooth="no"/>
      <point x="333" y="448" type="line" smooth="no"/>
      <point x="365" y="448" type="line" smooth="no"/>
      <point x="365" y="512" type="line" smooth="no"/>
      <point x="333" y="512" type="line" smooth="no"/>
      <point x="333" y="544" type="line" smooth="no"/>
      <point x="205" y="544" type="line" smooth="no"/>
      <point x="205" y="512" type="line" smooth="no"/>
      <point x="173" y="512" type="line" smooth="no"/>
      <point x="173" y="416" type="line" smooth="no"/>
      <point x="205" y="416" type="line" smooth="no"/>
      <point x="205" y="384" type="line" smooth="no"/>
      <point x="269" y="384" type="line" smooth="no"/>
      <point x="269" y="320" type="line" smooth="no"/>
      <point x="205" y="320" type="line" smooth="no"/>
      <point x="205" y="288" type="line" smooth="no"/>
      <point x="173" y="288" type="line" smooth="no"/>
      <point x="173" y="256" type="line" smooth="no"/>
      <point x="141" y="256" type="line" smooth="no"/>
      <point x="141" y="128" type="line" smooth="no"/>
      <point x="173" y="128" type="line" smooth="no"/>
      <point x="173" y="96" type="line" smooth="no"/>
      <point x="365" y="96" type="line" smooth="no"/>
      <point x="365" y="128" type="line" smooth="no"/>
      <point x="397" y="128" type="line" smooth="no"/>
      <point x="397" y="224" type="line" smooth="no"/>
      <point x="365" y="224" type="line" smooth="no"/>
      <point x="365" y="288" type="line" smooth="no"/>
      <point x="557" y="288" type="line" smooth="no"/>
      <point x="557" y="224" type="line" smooth="no"/>
      <point x="493" y="224" type="line" smooth="no"/>
      <point x="493" y="96" type="line" smooth="no"/>
      <point x="461" y="96" type="line" smooth="no"/>
      <point x="461" y="64" type="line" smooth="no"/>
      <point x="429" y="64" type="line" smooth="no"/>
      <point x="429" y="32" type="line" smooth="no"/>
      <point x="397" y="32" type="line" smooth="no"/>
      <point x="397" y="0" type="line" smooth="no"/>
    </contour>
  </outline>
</glyph>
<glyph name="parenleft" format="1">
  <advance width="329"/>
  <unicode hex="0028"/>
  <outline>
    <contour>
      <point x="174" y="0" type="line" smooth="no"/>
      <point x="174" y="32" type="line" smooth="no"/>
      <point x="142" y="32" type="line" smooth="no"/>
      <point x="142" y="64" type="line" smooth="no"/>
      <point x="110" y="64" type="line" smooth="no"/>
      <point x="110" y="96" type="line" smooth="no"/>
      <point x="78" y="96" type="line" smooth="no"/>
      <point x="78" y="192" type="line" smooth="no"/>
      <point x="46" y="192" type="line" smooth="no"/>
      <point x="46" y="448" type="line" smooth="no"/>
      <point x="78" y="448" type="line" smooth="no"/>
      <point x="78" y="544" type="line" smooth="no"/>
      <point x="110" y="544" type="line" smooth="no"/>
      <point x="110" y="576" type="line" smooth="no"/>
      <point x="142" y="576" type="line" smooth="no"/>
      <point x="142" y="608" type="line" smooth="no"/>
      <point x="174" y="608" type="line" smooth="no"/>
      <point x="174" y="640" type="line" smooth="no"/>
      <point x="270" y="640" type="line" smooth="no"/>
      <point x="270" y="608" type="line" smooth="no"/>
      <point x="238" y="608" type="line" smooth="no"/>
      <point x="238" y="576" type="line" smooth="no"/>
      <point x="206" y="576" type="line" smooth="no"/>
      <point x="206" y="512" type="line" smooth="no"/>
      <point x="174" y="512" type="line" smooth="no"/>
      <point x="174" y="416" type="line" smooth="no"/>
      <point x="142" y="416" type="line" smooth="no"/>
      <point x="142" y="224" type="line" smooth="no"/>
      <point x="174" y="224" type="line" smooth="no"/>
      <point x="174" y="128" type="line" smooth="no"/>
      <point x="206" y="128" type="line" smooth="no"/>
      <point x="206" y="64" type="line" smooth="no"/>
      <point x="238" y="64" type="line" smooth="no"/>
      <point x="238" y="32" type="line" smooth="no"/>
      <point x="270" y="32" type="line" smooth="no"/>
      <point x="270" y="0" type="line" smooth="no"/>
    </contour>
  </outline>
</glyph>
<glyph name="parenright" format="1">
  <advance width="307"/>
  <unicode hex="0029"/>
  <outline>
    <contour>
      <point x="35" y="0" type="line" smooth="no"/>
      <point x="35" y="32" type="line" smooth="no"/>
      <point x="67" y="32" type="line" smooth="no"/>
      <point x="67" y="64" type="line" smooth="no"/>
      <point x="99" y="64" type="line" smooth="no"/>
      <point x="99" y="128" type="line" smooth="no"/>
      <point x="131" y="128" type="line" smooth="no"/>
      <point x="131" y="224" type="line" smooth="no"/>
      <point x="163" y="224" type="line" smooth="no"/>
      <point x="163" y="416" type="line" smooth="no"/>
      <point x="131" y="416" type="line" smooth="no"/>
      <point x="131" y="512" type="line" smooth="no"/>
      <point x="99" y="512" type="line" smooth="no"/>
      <point x="99" y="576" type="line" smooth="no"/>
      <point x="67" y="576" type="line" smooth="no"/>
      <point x="67" y="608" type="line" smooth="no"/>
      <point x="35" y="608" type="line" smooth="no"/>
      <point x="35" y="640" type="line" smooth="no"/>
      <point x="131" y="640" type="line" smooth="no"/>
      <point x="131" y="608" type="line" smooth="no"/>
      <point x="163" y="608" type="line" smooth="no"/>
      <point x="163" y="576" type="line" smooth="no"/>
      <point x="195" y="576" type="line" smooth="no"/>
      <point x="195" y="544" type="line" smooth="no"/>
      <point x="227" y="544" type="line" smooth="no"/>
      <point x="227" y="448" type="line" smooth="no"/>
      <point x="259" y="448" type="line" smooth="no"/>
      <point x="259" y="192" type="line" smooth="no"/>
      <point x="227" y="192" type="line" smooth="no"/>
      <point x="227" y="96" type="line" smooth="no"/>
      <point x="195" y="96" type="line" smooth="no"/>
      <point x="195" y="64" type="line" smooth="no"/>
      <point x="163" y="64" type="line" smooth="no"/>
      <point x="163" y="32" type="line" smooth="no"/>
      <point x="131" y="32" type="line" smooth="no"/>
      <point x="131" y="0" type="line" smooth="no"/>
    </contour>
  </outline>
</glyph>
<glyph name="asterisk" format="1">
  <advance width="304"/>
  <unicode hex="002a"/>
  <outline>
    <contour>
      <point x="53" y="448" type="line" smooth="no"/>
      <point x="53" y="512" type="line" smooth="no"/>
      <point x="85" y="512" type="line" smooth="no"/>
      <point x="85" y="544" type="line" smooth="no"/>
      <point x="53" y="544" type="line" smooth="no"/>
      <point x="53" y="576" type="line" smooth="no"/>
      <point x="21" y="576" type="line" smooth="no"/>
      <point x="21" y="608" type="line" smooth="no"/>
      <point x="117" y="608" type="line" smooth="no"/>
      <point x="117" y="672" type="line" smooth="no"/>
      <point x="149" y="672" type="line" smooth="no"/>
      <point x="149" y="608" type="line" smooth="no"/>
      <point x="245" y="608" type="line" smooth="no"/>
      <point x="245" y="576" type="line" smooth="no"/>
      <point x="213" y="576" type="line" smooth="no"/>
      <point x="213" y="544" type="line" smooth="no"/>
      <point x="181" y="544" type="line" smooth="no"/>
      <point x="181" y="512" type="line" smooth="no"/>
      <point x="213" y="512" type="line" smooth="no"/>
      <point x="213" y="448" type="line" smooth="no"/>
      <point x="181" y="448" type="line" smooth="no"/>
      <point x="181" y="480" type="line" smooth="no"/>
      <point x="149" y="480" type="line" smooth="no"/>
      <point x="149" y="512" type="line" smooth="no"/>
      <point x="117" y="512" type="line" smooth="no"/>
      <point x="117" y="480" type="line" smooth="no"/>
      <point x="85" y="480" type="line" smooth="no"/>
      <point x="85" y="448" type="line" smooth="no"/>
    </contour>
  </outline>
</glyph>
<glyph name="plus" format="1">
  <advance width="524"/>
  <unicode hex="002b"/>
  <outline>
    <contour>
      <point x="207" y="32" type="line" smooth="no"/>
      <point x="207" y="224" type="line" smooth="no"/>
      <point x="15" y="224" type="line" smooth="no"/>
      <point x="15" y="320" type="line" smooth="no"/>
      <point x="207" y="320" type="line" smooth="no"/>
      <point x="207" y="512" type="line" smooth="no"/>
      <point x="303" y="512" type="line" smooth="no"/>
      <point x="303" y="320" type="line" smooth="no"/>
      <point x="495" y="320" type="line" smooth="no"/>
      <point x="495" y="224" type="line" smooth="no"/>
      <point x="303" y="224" type="line" smooth="no"/>
      <point x="303" y="32" type="line" smooth="no"/>
    </contour>
  </outline>
</glyph>
<glyph name="hyphen" format="1">
  <advance width="422"/>
  <unicode hex="002d"/>
  <outline>
    <contour>
      <point x="387" y="224" type="line" smooth="no"/>
      <point x="35" y="224" type="line" smooth="no"/>
      <point x="35" y="320" type="line" smooth="no"/>
      <point x="387" y="320" type="line" smooth="no"/>
    </contour>
  </outline>
</glyph>
<glyph name="period" format="1">
  <advance width="171"/>
  <unicode hex="002e"/>
  <outline>
    <contour>
      <point x="27" y="0" type="line" smooth="no"/>
      <point x="27" y="96" type="line" smooth="no"/>
      <point x="123" y="96" type="line" smooth="no"/>
      <point x="123" y="0" type="line" smooth="no"/>
    </contour>
  </outline>
</glyph>
<glyph name="slash" format="1">
  <advance width="503"/>
  <unicode hex="002f"/>
  <outline>
    <contour>
      <point x="-10" y="-64" type="line" smooth="no"/>
      <point x="-10" y="0" type="line" smooth="no"/>
      <point x="22" y="0" type="line" smooth="no"/>
      <point x="22" y="64" type="line" smooth="no"/>
      <point x="54" y="64" type="line" smooth="no"/>
      <point x="54" y="128" type="line" smooth="no"/>
      <point x="86" y="128" type="line" smooth="no"/>
      <point x="86" y="192" type="line" smooth="no"/>
      <point x="118" y="192" type="line" smooth="no"/>
      <point x="118" y="256" type="line" smooth="no"/>
      <point x="150" y="256" type="line" smooth="no"/>
      <point x="150" y="320" type="line" smooth="no"/>
      <point x="182" y="320" type="line" smooth="no"/>
      <point x="182" y="384" type="line" smooth="no"/>
      <point x="214" y="384" type="line" smooth="no"/>
      <point x="214" y="448" type="line" smooth="no"/>
      <point x="246" y="448" type="line" smooth="no"/>
      <point x="246" y="512" type="line" smooth="no"/>
      <point x="278" y="512" type="line" smooth="no"/>
      <point x="278" y="576" type="line" smooth="no"/>
      <point x="310" y="576" type="line" smooth="no"/>
      <point x="310" y="640" type="line" smooth="no"/>
      <point x="342" y="640" type="line" smooth="no"/>
      <point x="342" y="704" type="line" smooth="no"/>
      <point x="438" y="704" type="line" smooth="no"/>
      <point x="438" y="640" type="line" smooth="no"/>
      <point x="406" y="640" type="line" smooth="no"/>
      <point x="406" y="576" type="line" smooth="no"/>
      <point x="374" y="576" type="line" smooth="no"/>
      <point x="374" y="512" type="line" smooth="no"/>
      <point x="342" y="512" type="line" smooth="no"/>
      <point x="342" y="448" type="line" smooth="no"/>
      <point x="310" y="448" type="line" smooth="no"/>
      <point x="310" y="384" type="line" smooth="no"/>
      <point x="278" y="384" type="line" smooth="no"/>
      <point x="278" y="320" type="line" smooth="no"/>
      <point x="246" y="320" type="line" smooth="no"/>
      <point x="246" y="256" type="line" smooth="no"/>
      <point x="214" y="256" type="line" smooth="no"/>
      <point x="214" y="192" type="line" smooth="no"/>
      <point x="182" y="192" type="line" smooth="no"/>
      <point x="182" y="128" type="line" smooth="no"/>
      <point x="150" y="128" type="line" smooth="no"/>
      <point x="150" y="64" type="line" smooth="no"/>
      <point x="118" y="64" type="line" smooth="no"/>
      <point x="118" y="0" type="line" smooth="no"/>
      <point x="86" y="0" type="line" smooth="no"/>
      <point x="86" y="-64" type="line" smooth="no"/>
    </contour>
  </outline>
</glyph>
<glyph name="zero" format="1">
  <advance width="575"/>
  <unicode hex="0030"/>
  <outline>
    <contour>
      <point x="367" y="96" type="line" smooth="no"/>
      <point x="367" y="128" type="line" smooth="no"/>
      <point x="399" y="128" type="line" smooth="no"/>
      <point x="399" y="224" type="line" smooth="no"/>
      <point x="431" y="224" type="line" smooth="no"/>
      <point x="431" y="416" type="line" smooth="no"/>
      <point x="399" y="416" type="line" smooth="no"/>
      <point x="399" y="512" type="line" smooth="no"/>
      <point x="367" y="512" type="line" smooth="no"/>
      <point x="367" y="544" type="line" smooth="no"/>
      <point x="207" y="544" type="line" smooth="no"/>
      <point x="207" y="512" type="line" smooth="no"/>
      <point x="175" y="512" type="line" smooth="no"/>
      <point x="175" y="416" type="line" smooth="no"/>
      <point x="143" y="416" type="line" smooth="no"/>
      <point x="143" y="224" type="line" smooth="no"/>
      <point x="175" y="224" type="line" smooth="no"/>
      <point x="175" y="128" type="line" smooth="no"/>
      <point x="207" y="128" type="line" smooth="no"/>
      <point x="207" y="96" type="line" smooth="no"/>
    </contour>
    <contour>
      <point x="175" y="0" type="line" smooth="no"/>
      <point x="175" y="32" type="line" smooth="no"/>
      <point x="111" y="32" type="line" smooth="no"/>
      <point x="111" y="96" type="line" smooth="no"/>
      <point x="79" y="96" type="line" smooth="no"/>
      <point x="79" y="192" type="line" smooth="no"/>
      <point x="47" y="192" type="line" smooth="no"/>
      <point x="47" y="448" type="line" smooth="no"/>
      <point x="79" y="448" type="line" smooth="no"/>
      <point x="79" y="544" type="line" smooth="no"/>
      <point x="111" y="544" type="line" smooth="no"/>
      <point x="111" y="608" type="line" smooth="no"/>
      <point x="175" y="608" type="line" smooth="no"/>
      <point x="175" y="640" type="line" smooth="no"/>
      <point x="399" y="640" type="line" smooth="no"/>
      <point x="399" y="608" type="line" smooth="no"/>
      <point x="463" y="608" type="line" smooth="no"/>
      <point x="463" y="544" type="line" smooth="no"/>
      <point x="495" y="544" type="line" smooth="no"/>
      <point x="495" y="448" type="line" smooth="no"/>
      <point x="527" y="448" type="line" smooth="no"/>
      <point x="527" y="192" type="line" smooth="no"/>
      <point x="495" y="192" type="line" smooth="no"/>
      <point x="495" y="96" type="line" smooth="no"/>
      <point x="463" y="96" type="line" smooth="no"/>
      <point x="463" y="32" type="line" smooth="no"/>
      <point x="399" y="32" type="line" smooth="no"/>
      <point x="399" y="0" type="line" smooth="no"/>
    </contour>
  </outline>
</glyph>
<glyph name="one" format="1">
  <advance width="281"/>
  <unicode hex="0031"/>
  <outline>
    <contour>
      <point x="126" y="0" type="line" smooth="no"/>
      <point x="126" y="480" type="line" smooth="no"/>
      <point x="30" y="480" type="line" smooth="no"/>
      <point x="30" y="544" type="line" smooth="no"/>
      <point x="62" y="544" type="line" smooth="no"/>
      <point x="62" y="576" type="line" smooth="no"/>
      <point x="94" y="576" type="line" smooth="no"/>
      <point x="94" y="608" type="line" smooth="no"/>
      <point x="126" y="608" type="line" smooth="no"/>
      <point x="126" y="640" type="line" smooth="no"/>
      <point x="222" y="640" type="line" smooth="no"/>
      <point x="222" y="0" type="line" smooth="no"/>
    </contour>
  </outline>
</glyph>
<glyph name="two" format="1">
  <advance width="546"/>
  <unicode hex="0032"/>
  <outline>
    <contour>
      <point x="50" y="0" type="line" smooth="no"/>
      <point x="50" y="96" type="line" smooth="no"/>
      <point x="82" y="96" type="line" smooth="no"/>
      <point x="82" y="128" type="line" smooth="no"/>
      <point x="114" y="128" type="line" smooth="no"/>
      <point x="114" y="160" type="line" smooth="no"/>
      <point x="146" y="160" type="line" smooth="no"/>
      <point x="146" y="192" type="line" smooth="no"/>
      <point x="178" y="192" type="line" smooth="no"/>
      <point x="178" y="224" type="line" smooth="no"/>
      <point x="210" y="224" type="line" smooth="no"/>
      <point x="210" y="256" type="line" smooth="no"/>
      <point x="242" y="256" type="line" smooth="no"/>
      <point x="242" y="288" type="line" smooth="no"/>
      <point x="274" y="288" type="line" smooth="no"/>
      <point x="274" y="320" type="line" smooth="no"/>
      <point x="306" y="320" type="line" smooth="no"/>
      <point x="306" y="352" type="line" smooth="no"/>
      <point x="338" y="352" type="line" smooth="no"/>
      <point x="338" y="384" type="line" smooth="no"/>
      <point x="370" y="384" type="line" smooth="no"/>
      <point x="370" y="512" type="line" smooth="no"/>
      <point x="338" y="512" type="line" smooth="no"/>
      <point x="338" y="544" type="line" smooth="no"/>
      <point x="210" y="544" type="line" smooth="no"/>
      <point x="210" y="512" type="line" smooth="no"/>
      <point x="178" y="512" type="line" smooth="no"/>
      <point x="178" y="480" type="line" smooth="no"/>
      <point x="146" y="480" type="line" smooth="no"/>
      <point x="146" y="416" type="line" smooth="no"/>
      <point x="50" y="416" type="line" smooth="no"/>
      <point x="50" y="480" type="line" smooth="no"/>
      <point x="82" y="480" type="line" smooth="no"/>
      <point x="82" y="544" type="line" smooth="no"/>
      <point x="114" y="544" type="line" smooth="no"/>
      <point x="114" y="576" type="line" smooth="no"/>
      <point x="146" y="576" type="line" smooth="no"/>
      <point x="146" y="608" type="line" smooth="no"/>
      <point x="178" y="608" type="line" smooth="no"/>
      <point x="178" y="640" type="line" smooth="no"/>
      <point x="370" y="640" type="line" smooth="no"/>
      <point x="370" y="608" type="line" smooth="no"/>
      <point x="402" y="608" type="line" smooth="no"/>
      <point x="402" y="576" type="line" smooth="no"/>
      <point x="434" y="576" type="line" smooth="no"/>
      <point x="434" y="544" type="line" smooth="no"/>
      <point x="466" y="544" type="line" smooth="no"/>
      <point x="466" y="352" type="line" smooth="no"/>
      <point x="434" y="352" type="line" smooth="no"/>
      <point x="434" y="320" type="line" smooth="no"/>
      <point x="402" y="320" type="line" smooth="no"/>
      <point x="402" y="288" type="line" smooth="no"/>
      <point x="370" y="288" type="line" smooth="no"/>
      <point x="370" y="256" type="line" smooth="no"/>
      <point x="338" y="256" type="line" smooth="no"/>
      <point x="338" y="224" type="line" smooth="no"/>
      <point x="306" y="224" type="line" smooth="no"/>
      <point x="306" y="192" type="line" smooth="no"/>
      <point x="274" y="192" type="line" smooth="no"/>
      <point x="274" y="160" type="line" smooth="no"/>
      <point x="242" y="160" type="line" smooth="no"/>
      <point x="242" y="128" type="line" smooth="no"/>
      <point x="210" y="128" type="line" smooth="no"/>
      <point x="210" y="96" type="line" smooth="no"/>
      <point x="498" y="96" type="line" smooth="no"/>
      <point x="498" y="0" type="line" smooth="no"/>
    </contour>
  </outline>
</glyph>
<glyph name="three" format="1">
  <advance width="523"/>
  <unicode hex="0033"/>
  <outline>
    <contour>
      <point x="144" y="0" type="line" smooth="no"/>
      <point x="144" y="32" type="line" smooth="no"/>
      <point x="112" y="32" type="line" smooth="no"/>
      <point x="112" y="64" type="line" smooth="no"/>
      <point x="80" y="64" type="line" smooth="no"/>
      <point x="80" y="96" type="line" smooth="no"/>
      <point x="48" y="96" type="line" smooth="no"/>
      <point x="48" y="160" type="line" smooth="no"/>
      <point x="144" y="160" type="line" smooth="no"/>
      <point x="144" y="128" type="line" smooth="no"/>
      <point x="176" y="128" type="line" smooth="no"/>
      <point x="176" y="96" type="line" smooth="no"/>
      <point x="336" y="96" type="line" smooth="no"/>
      <point x="336" y="128" type="line" smooth="no"/>
      <point x="368" y="128" type="line" smooth="no"/>
      <point x="368" y="256" type="line" smooth="no"/>
      <point x="336" y="256" type="line" smooth="no"/>
      <point x="336" y="288" type="line" smooth="no"/>
      <point x="208" y="288" type="line" smooth="no"/>
      <point x="208" y="384" type="line" smooth="no"/>
      <point x="336" y="384" type="line" smooth="no"/>
      <point x="336" y="416" type="line" smooth="no"/>
      <point x="368" y="416" type="line" smooth="no"/>
      <point x="368" y="512" type="line" smooth="no"/>
      <point x="336" y="512" type="line" smooth="no"/>
      <point x="336" y="544" type="line" smooth="no"/>
      <point x="176" y="544" type="line" smooth="no"/>
      <point x="176" y="512" type="line" smooth="no"/>
      <point x="144" y="512" type="line" smooth="no"/>
      <point x="144" y="480" type="line" smooth="no"/>
      <point x="48" y="480" type="line" smooth="no"/>
      <point x="48" y="544" type="line" smooth="no"/>
      <point x="80" y="544" type="line" smooth="no"/>
      <point x="80" y="576" type="line" smooth="no"/>
      <point x="112" y="576" type="line" smooth="no"/>
      <point x="112" y="608" type="line" smooth="no"/>
      <point x="144" y="608" type="line" smooth="no"/>
      <point x="144" y="640" type="line" smooth="no"/>
      <point x="336" y="640" type="line" smooth="no"/>
      <point x="336" y="608" type="line" smooth="no"/>
      <point x="400" y="608" type="line" smooth="no"/>
      <point x="400" y="576" type="line" smooth="no"/>
      <point x="432" y="576" type="line" smooth="no"/>
      <point x="432" y="544" type="line" smooth="no"/>
      <point x="464" y="544" type="line" smooth="no"/>
      <point x="464" y="384" type="line" smooth="no"/>
      <point x="432" y="384" type="line" smooth="no"/>
      <point x="432" y="352" type="line" smooth="no"/>
      <point x="400" y="352" type="line" smooth="no"/>
      <point x="400" y="320" type="line" smooth="no"/>
      <point x="432" y="320" type="line" smooth="no"/>
      <point x="432" y="288" type="line" smooth="no"/>
      <point x="464" y="288" type="line" smooth="no"/>
      <point x="464" y="96" type="line" smooth="no"/>
      <point x="432" y="96" type="line" smooth="no"/>
      <point x="432" y="64" type="line" smooth="no"/>
      <point x="400" y="64" type="line" smooth="no"/>
      <point x="400" y="32" type="line" smooth="no"/>
      <point x="336" y="32" type="line" smooth="no"/>
      <point x="336" y="0" type="line" smooth="no"/>
    </contour>
  </outline>
</glyph>
<glyph name="four" format="1">
  <advance width="533"/>
  <unicode hex="0034"/>
  <outline>
    <contour>
      <point x="312" y="256" type="line" smooth="no"/>
      <point x="312" y="480" type="line" smooth="no"/>
      <point x="280" y="480" type="line" smooth="no"/>
      <point x="280" y="448" type="line" smooth="no"/>
      <point x="248" y="448" type="line" smooth="no"/>
      <point x="248" y="416" type="line" smooth="no"/>
      <point x="216" y="416" type="line" smooth="no"/>
      <point x="216" y="384" type="line" smooth="no"/>
      <point x="184" y="384" type="line" smooth="no"/>
      <point x="184" y="352" type="line" smooth="no"/>
      <point x="152" y="352" type="line" smooth="no"/>
      <point x="152" y="320" type="line" smooth="no"/>
      <point x="120" y="320" type="line" smooth="no"/>
      <point x="120" y="256" type="line" smooth="no"/>
    </contour>
    <contour>
      <point x="312" y="0" type="line" smooth="no"/>
      <point x="312" y="160" type="line" smooth="no"/>
      <point x="24" y="160" type="line" smooth="no"/>
      <point x="24" y="352" type="line" smooth="no"/>
      <point x="56" y="352" type="line" smooth="no"/>
      <point x="56" y="384" type="line" smooth="no"/>
      <point x="88" y="384" type="line" smooth="no"/>
      <point x="88" y="416" type="line" smooth="no"/>
      <point x="120" y="416" type="line" smooth="no"/>
      <point x="120" y="448" type="line" smooth="no"/>
      <point x="152" y="448" type="line" smooth="no"/>
      <point x="152" y="480" type="line" smooth="no"/>
      <point x="184" y="480" type="line" smooth="no"/>
      <point x="184" y="512" type="line" smooth="no"/>
      <point x="216" y="512" type="line" smooth="no"/>
      <point x="216" y="544" type="line" smooth="no"/>
      <point x="248" y="544" type="line" smooth="no"/>
      <point x="248" y="576" type="line" smooth="no"/>
      <point x="280" y="576" type="line" smooth="no"/>
      <point x="280" y="608" type="line" smooth="no"/>
      <point x="312" y="608" type="line" smooth="no"/>
      <point x="312" y="640" type="line" smooth="no"/>
      <point x="408" y="640" type="line" smooth="no"/>
      <point x="408" y="256" type="line" smooth="no"/>
      <point x="504" y="256" type="line" smooth="no"/>
      <point x="504" y="160" type="line" smooth="no"/>
      <point x="408" y="160" type="line" smooth="no"/>
      <point x="408" y="0" type="line" smooth="no"/>
    </contour>
  </outline>
</glyph>
<glyph name="five" format="1">
  <advance width="531"/>
  <unicode hex="0035"/>
  <outline>
    <contour>
      <point x="172" y="0" type="line" smooth="no"/>
      <point x="172" y="32" type="line" smooth="no"/>
      <point x="108" y="32" type="line" smooth="no"/>
      <point x="108" y="64" type="line" smooth="no"/>
      <point x="76" y="64" type="line" smooth="no"/>
      <point x="76" y="96" type="line" smooth="no"/>
      <point x="44" y="96" type="line" smooth="no"/>
      <point x="44" y="192" type="line" smooth="no"/>
      <point x="140" y="192" type="line" smooth="no"/>
      <point x="140" y="128" type="line" smooth="no"/>
      <point x="172" y="128" type="line" smooth="no"/>
      <point x="172" y="96" type="line" smooth="no"/>
      <point x="300" y="96" type="line" smooth="no"/>
      <point x="300" y="128" type="line" smooth="no"/>
      <point x="364" y="128" type="line" smooth="no"/>
      <point x="364" y="192" type="line" smooth="no"/>
      <point x="396" y="192" type="line" smooth="no"/>
      <point x="396" y="256" type="line" smooth="no"/>
      <point x="364" y="256" type="line" smooth="no"/>
      <point x="364" y="288" type="line" smooth="no"/>
      <point x="332" y="288" type="line" smooth="no"/>
      <point x="332" y="320" type="line" smooth="no"/>
      <point x="300" y="320" type="line" smooth="no"/>
      <point x="300" y="352" type="line" smooth="no"/>
      <point x="76" y="352" type="line" smooth="no"/>
      <point x="76" y="480" type="line" smooth="no"/>
      <point x="108" y="480" type="line" smooth="no"/>
      <point x="108" y="576" type="line" smooth="no"/>
      <point x="140" y="576" type="line" smooth="no"/>
      <point x="140" y="640" type="line" smooth="no"/>
      <point x="428" y="640" type="line" smooth="no"/>
      <point x="428" y="544" type="line" smooth="no"/>
      <point x="204" y="544" type="line" smooth="no"/>
      <point x="204" y="480" type="line" smooth="no"/>
      <point x="172" y="480" type="line" smooth="no"/>
      <point x="172" y="448" type="line" smooth="no"/>
      <point x="332" y="448" type="line" smooth="no"/>
      <point x="332" y="416" type="line" smooth="no"/>
      <point x="396" y="416" type="line" smooth="no"/>
      <point x="396" y="384" type="line" smooth="no"/>
      <point x="428" y="384" type="line" smooth="no"/>
      <point x="428" y="352" type="line" smooth="no"/>
      <point x="460" y="352" type="line" smooth="no"/>
      <point x="460" y="288" type="line" smooth="no"/>
      <point x="492" y="288" type="line" smooth="no"/>
      <point x="492" y="160" type="line" smooth="no"/>
      <point x="460" y="160" type="line" smooth="no"/>
      <point x="460" y="96" type="line" smooth="no"/>
      <point x="428" y="96" type="line" smooth="no"/>
      <point x="428" y="64" type="line" smooth="no"/>
      <point x="396" y="64" type="line" smooth="no"/>
      <point x="396" y="32" type="line" smooth="no"/>
      <point x="332" y="32" type="line" smooth="no"/>
      <point x="332" y="0" type="line" smooth="no"/>
    </contour>
  </outline>
</glyph>
<glyph name="six" format="1">
  <advance width="554"/>
  <unicode hex="0036"/>
  <outline>
    <contour>
      <point x="367" y="96" type="line" smooth="no"/>
      <point x="367" y="128" type="line" smooth="no"/>
      <point x="399" y="128" type="line" smooth="no"/>
      <point x="399" y="256" type="line" smooth="no"/>
      <point x="367" y="256" type="line" smooth="no"/>
      <point x="367" y="288" type="line" smooth="no"/>
      <point x="207" y="288" type="line" smooth="no"/>
      <point x="207" y="256" type="line" smooth="no"/>
      <point x="175" y="256" type="line" smooth="no"/>
      <point x="175" y="128" type="line" smooth="no"/>
      <point x="207" y="128" type="line" smooth="no"/>
      <point x="207" y="96" type="line" smooth="no"/>
    </contour>
    <contour>
      <point x="175" y="0" type="line" smooth="no"/>
      <point x="175" y="32" type="line" smooth="no"/>
      <point x="111" y="32" type="line" smooth="no"/>
      <point x="111" y="96" type="line" smooth="no"/>
      <point x="79" y="96" type="line" smooth="no"/>
      <point x="79" y="192" type="line" smooth="no"/>
      <point x="47" y="192" type="line" smooth="no"/>
      <point x="47" y="448" type="line" smooth="no"/>
      <point x="79" y="448" type="line" smooth="no"/>
      <point x="79" y="544" type="line" smooth="no"/>
      <point x="111" y="544" type="line" smooth="no"/>
      <point x="111" y="608" type="line" smooth="no"/>
      <point x="175" y="608" type="line" smooth="no"/>
      <point x="175" y="640" type="line" smooth="no"/>
      <point x="399" y="640" type="line" smooth="no"/>
      <point x="399" y="608" type="line" smooth="no"/>
      <point x="463" y="608" type="line" smooth="no"/>
      <point x="463" y="544" type="line" smooth="no"/>
      <point x="495" y="544" type="line" smooth="no"/>
      <point x="495" y="480" type="line" smooth="no"/>
      <point x="399" y="480" type="line" smooth="no"/>
      <point x="399" y="512" type="line" smooth="no"/>
      <point x="367" y="512" type="line" smooth="no"/>
      <point x="367" y="544" type="line" smooth="no"/>
      <point x="207" y="544" type="line" smooth="no"/>
      <point x="207" y="512" type="line" smooth="no"/>
      <point x="175" y="512" type="line" smooth="no"/>
      <point x="175" y="416" type="line" smooth="no"/>
      <point x="143" y="416" type="line" smooth="no"/>
      <point x="143" y="320" type="line" smooth="no"/>
      <point x="175" y="320" type="line" smooth="no"/>
      <point x="175" y="352" type="line" smooth="no"/>
      <point x="207" y="352" type="line" smooth="no"/>
      <point x="207" y="384" type="line" smooth="no"/>
      <point x="431" y="384" type="line" smooth="no"/>
      <point x="431" y="352" type="line" smooth="no"/>
      <point x="463" y="352" type="line" smooth="no"/>
      <point x="463" y="320" type="line" smooth="no"/>
      <point x="495" y="320" type="line" smooth="no"/>
      <point x="495" y="96" type="line" smooth="no"/>
      <point x="463" y="96" type="line" smooth="no"/>
      <point x="463" y="32" type="line" smooth="no"/>
      <point x="399" y="32" type="line" smooth="no"/>
      <point x="399" y="0" type="line" smooth="no"/>
    </contour>
  </outline>
</glyph>
<glyph name="seven" format="1">
  <advance width="540"/>
  <unicode hex="0037"/>
  <outline>
    <contour>
      <point x="129" y="0" type="line" smooth="no"/>
      <point x="129" y="128" type="line" smooth="no"/>
      <point x="161" y="128" type="line" smooth="no"/>
      <point x="161" y="192" type="line" smooth="no"/>
      <point x="193" y="192" type="line" smooth="no"/>
      <point x="193" y="288" type="line" smooth="no"/>
      <point x="225" y="288" type="line" smooth="no"/>
      <point x="225" y="352" type="line" smooth="no"/>
      <point x="257" y="352" type="line" smooth="no"/>
      <point x="257" y="416" type="line" smooth="no"/>
      <point x="289" y="416" type="line" smooth="no"/>
      <point x="289" y="480" type="line" smooth="no"/>
      <point x="321" y="480" type="line" smooth="no"/>
      <point x="321" y="512" type="line" smooth="no"/>
      <point x="353" y="512" type="line" smooth="no"/>
      <point x="353" y="544" type="line" smooth="no"/>
      <point x="1" y="544" type="line" smooth="no"/>
      <point x="1" y="640" type="line" smooth="no"/>
      <point x="481" y="640" type="line" smooth="no"/>
      <point x="481" y="544" type="line" smooth="no"/>
      <point x="449" y="544" type="line" smooth="no"/>
      <point x="449" y="480" type="line" smooth="no"/>
      <point x="417" y="480" type="line" smooth="no"/>
      <point x="417" y="448" type="line" smooth="no"/>
      <point x="385" y="448" type="line" smooth="no"/>
      <point x="385" y="384" type="line" smooth="no"/>
      <point x="353" y="384" type="line" smooth="no"/>
      <point x="353" y="320" type="line" smooth="no"/>
      <point x="321" y="320" type="line" smooth="no"/>
      <point x="321" y="256" type="line" smooth="no"/>
      <point x="289" y="256" type="line" smooth="no"/>
      <point x="289" y="192" type="line" smooth="no"/>
      <point x="257" y="192" type="line" smooth="no"/>
      <point x="257" y="96" type="line" smooth="no"/>
      <point x="225" y="96" type="line" smooth="no"/>
      <point x="225" y="0" type="line" smooth="no"/>
    </contour>
  </outline>
</glyph>
<glyph name="eight" format="1">
  <advance width="537"/>
  <unicode hex="0038"/>
  <outline>
    <contour>
      <point x="365" y="96" type="line" smooth="no"/>
      <point x="365" y="128" type="line" smooth="no"/>
      <point x="397" y="128" type="line" smooth="no"/>
      <point x="397" y="256" type="line" smooth="no"/>
      <point x="365" y="256" type="line" smooth="no"/>
      <point x="365" y="288" type="line" smooth="no"/>
      <point x="333" y="288" type="line" smooth="no"/>
      <point x="333" y="320" type="line" smooth="no"/>
      <point x="205" y="320" type="line" smooth="no"/>
      <point x="205" y="288" type="line" smooth="no"/>
      <point x="173" y="288" type="line" smooth="no"/>
      <point x="173" y="256" type="line" smooth="no"/>
      <point x="141" y="256" type="line" smooth="no"/>
      <point x="141" y="128" type="line" smooth="no"/>
      <point x="173" y="128" type="line" smooth="no"/>
      <point x="173" y="96" type="line" smooth="no"/>
    </contour>
    <contour>
      <point x="333" y="384" type="line" smooth="no"/>
      <point x="333" y="416" type="line" smooth="no"/>
      <point x="365" y="416" type="line" smooth="no"/>
      <point x="365" y="512" type="line" smooth="no"/>
      <point x="333" y="512" type="line" smooth="no"/>
      <point x="333" y="544" type="line" smooth="no"/>
      <point x="205" y="544" type="line" smooth="no"/>
      <point x="205" y="512" type="line" smooth="no"/>
      <point x="173" y="512" type="line" smooth="no"/>
      <point x="173" y="416" type="line" smooth="no"/>
      <point x="205" y="416" type="line" smooth="no"/>
      <point x="205" y="384" type="line" smooth="no"/>
    </contour>
    <contour>
      <point x="173" y="0" type="line" smooth="no"/>
      <point x="173" y="32" type="line" smooth="no"/>
      <point x="109" y="32" type="line" smooth="no"/>
      <point x="109" y="64" type="line" smooth="no"/>
      <point x="77" y="64" type="line" smooth="no"/>
      <point x="77" y="128" type="line" smooth="no"/>
      <point x="45" y="128" type="line" smooth="no"/>
      <point x="45" y="256" type="line" smooth="no"/>
      <point x="77" y="256" type="line" smooth="no"/>
      <point x="77" y="320" type="line" smooth="no"/>
      <point x="109" y="320" type="line" smooth="no"/>
      <point x="109" y="352" type="line" smooth="no"/>
      <point x="141" y="352" type="line" smooth="no"/>
      <point x="141" y="384" type="line" smooth="no"/>
      <point x="109" y="384" type="line" smooth="no"/>
      <point x="109" y="416" type="line" smooth="no"/>
      <point x="77" y="416" type="line" smooth="no"/>
      <point x="77" y="512" type="line" smooth="no"/>
      <point x="109" y="512" type="line" smooth="no"/>
      <point x="109" y="576" type="line" smooth="no"/>
      <point x="141" y="576" type="line" smooth="no"/>
      <point x="141" y="608" type="line" smooth="no"/>
      <point x="205" y="608" type="line" smooth="no"/>
      <point x="205" y="640" type="line" smooth="no"/>
      <point x="333" y="640" type="line" smooth="no"/>
      <point x="333" y="608" type="line" smooth="no"/>
      <point x="397" y="608" type="line" smooth="no"/>
      <point x="397" y="576" type="line" smooth="no"/>
      <point x="429" y="576" type="line" smooth="no"/>
      <point x="429" y="512" type="line" smooth="no"/>
      <point x="461" y="512" type="line" smooth="no"/>
      <point x="461" y="416" type="line" smooth="no"/>
      <point x="429" y="416" type="line" smooth="no"/>
      <point x="429" y="384" type="line" smooth="no"/>
      <point x="397" y="384" type="line" smooth="no"/>
      <point x="397" y="352" type="line" smooth="no"/>
      <point x="429" y="352" type="line" smooth="no"/>
      <point x="429" y="320" type="line" smooth="no"/>
      <point x="461" y="320" type="line" smooth="no"/>
      <point x="461" y="256" type="line" smooth="no"/>
      <point x="493" y="256" type="line" smooth="no"/>
      <point x="493" y="128" type="line" smooth="no"/>
      <point x="461" y="128" type="line" smooth="no"/>
      <point x="461" y="64" type="line" smooth="no"/>
      <point x="429" y="64" type="line" smooth="no"/>
      <point x="429" y="32" type="line" smooth="no"/>
      <point x="365" y="32" type="line" smooth="no"/>
      <point x="365" y="0" type="line" smooth="no"/>
    </contour>
  </outline>
</glyph>
<glyph name="nine" format="1">
  <advance width="549"/>
  <unicode hex="0039"/>
  <outline>
    <contour>
      <point x="341" y="352" type="line" smooth="no"/>
      <point x="341" y="384" type="line" smooth="no"/>
      <point x="373" y="384" type="line" smooth="no"/>
      <point x="373" y="512" type="line" smooth="no"/>
      <point x="341" y="512" type="line" smooth="no"/>
      <point x="341" y="544" type="line" smooth="no"/>
      <point x="181" y="544" type="line" smooth="no"/>
      <point x="181" y="512" type="line" smooth="no"/>
      <point x="149" y="512" type="line" smooth="no"/>
      <point x="149" y="384" type="line" smooth="no"/>
      <point x="181" y="384" type="line" smooth="no"/>
      <point x="181" y="352" type="line" smooth="no"/>
    </contour>
    <contour>
      <point x="149" y="0" type="line" smooth="no"/>
      <point x="149" y="32" type="line" smooth="no"/>
      <point x="85" y="32" type="line" smooth="no"/>
      <point x="85" y="96" type="line" smooth="no"/>
      <point x="53" y="96" type="line" smooth="no"/>
      <point x="53" y="160" type="line" smooth="no"/>
      <point x="149" y="160" type="line" smooth="no"/>
      <point x="149" y="128" type="line" smooth="no"/>
      <point x="181" y="128" type="line" smooth="no"/>
      <point x="181" y="96" type="line" smooth="no"/>
      <point x="341" y="96" type="line" smooth="no"/>
      <point x="341" y="128" type="line" smooth="no"/>
      <point x="373" y="128" type="line" smooth="no"/>
      <point x="373" y="224" type="line" smooth="no"/>
      <point x="405" y="224" type="line" smooth="no"/>
      <point x="405" y="320" type="line" smooth="no"/>
      <point x="373" y="320" type="line" smooth="no"/>
      <point x="373" y="288" type="line" smooth="no"/>
      <point x="341" y="288" type="line" smooth="no"/>
      <point x="341" y="256" type="line" smooth="no"/>
      <point x="117" y="256" type="line" smooth="no"/>
      <point x="117" y="288" type="line" smooth="no"/>
      <point x="85" y="288" type="line" smooth="no"/>
      <point x="85" y="352" type="line" smooth="no"/>
      <point x="53" y="352" type="line" smooth="no"/>
      <point x="53" y="512" type="line" smooth="no"/>
      <point x="85" y="512" type="line" smooth="no"/>
      <point x="85" y="608" type="line" smooth="no"/>
      <point x="149" y="608" type="line" smooth="no"/>
      <point x="149" y="640" type="line" smooth="no"/>
      <point x="373" y="640" type="line" smooth="no"/>
      <point x="373" y="608" type="line" smooth="no"/>
      <point x="437" y="608" type="line" smooth="no"/>
      <point x="437" y="544" type="line" smooth="no"/>
      <point x="469" y="544" type="line" smooth="no"/>
      <point x="469" y="448" type="line" smooth="no"/>
      <point x="501" y="448" type="line" smooth="no"/>
      <point x="501" y="192" type="line" smooth="no"/>
      <point x="469" y="192" type="line" smooth="no"/>
      <point x="469" y="96" type="line" smooth="no"/>
      <point x="437" y="96" type="line" smooth="no"/>
      <point x="437" y="32" type="line" smooth="no"/>
      <point x="373" y="32" type="line" smooth="no"/>
      <point x="373" y="0" type="line" smooth="no"/>
    </contour>
  </outline>
</glyph>
<glyph name="colon" format="1">
  <advance width="195"/>
  <unicode hex="003a"/>
  <outline>
    <contour>
      <point x="50" y="32" type="line" smooth="no"/>
      <point x="50" y="128" type="line" smooth="no"/>
      <point x="146" y="128" type="line" smooth="no"/>
      <point x="146" y="32" type="line" smooth="no"/>
    </contour>
    <contour>
      <point x="50" y="320" type="line" smooth="no"/>
      <point x="50" y="416" type="line" smooth="no"/>
      <point x="146" y="416" type="line" smooth="no"/>
      <point x="146" y="320" type="line" smooth="no"/>
    </contour>
  </outline>
</glyph>
<glyph name="semicolon" format="1">
  <advance width="203"/>
  <unicode hex="003b"/>
  <outline>
    <contour>
      <point x="50" y="-96" type="line" smooth="no"/>
      <point x="50" y="-64" type="line" smooth="no"/>
      <point x="82" y="-64" type="line" smooth="no"/>
      <point x="82" y="-32" type="line" smooth="no"/>
      <point x="114" y="-32" type="line" smooth="no"/>
      <point x="114" y="0" type="line" smooth="no"/>
      <point x="50" y="0" type="line" smooth="no"/>
      <point x="50" y="96" type="line" smooth="no"/>
      <point x="146" y="96" type="line" smooth="no"/>
      <point x="146" y="-64" type="line" smooth="no"/>
      <point x="114" y="-64" type="line" smooth="no"/>
      <point x="114" y="-96" type="line" smooth="no"/>
    </contour>
    <contour>
      <point x="50" y="352" type="line" smooth="no"/>
      <point x="50" y="448" type="line" smooth="no"/>
      <point x="146" y="448" type="line" smooth="no"/>
      <point x="146" y="352" type="line" smooth="no"/>
    </contour>
  </outline>
</glyph>
<glyph name="less" format="1">
  <advance width="366"/>
  <unicode hex="003c"/>
  <outline>
    <contour>
      <point x="243" y="64" type="line" smooth="no"/>
      <point x="243" y="96" type="line" smooth="no"/>
      <point x="211" y="96" type="line" smooth="no"/>
      <point x="211" y="128" type="line" smooth="no"/>
      <point x="179" y="128" type="line" smooth="no"/>
      <point x="179" y="160" type="line" smooth="no"/>
      <point x="147" y="160" type="line" smooth="no"/>
      <point x="147" y="192" type="line" smooth="no"/>
      <point x="115" y="192" type="line" smooth="no"/>
      <point x="115" y="224" type="line" smooth="no"/>
      <point x="83" y="224" type="line" smooth="no"/>
      <point x="83" y="256" type="line" smooth="no"/>
      <point x="51" y="256" type="line" smooth="no"/>
      <point x="51" y="288" type="line" smooth="no"/>
      <point x="19" y="288" type="line" smooth="no"/>
      <point x="19" y="320" type="line" smooth="no"/>
      <point x="51" y="320" type="line" smooth="no"/>
      <point x="51" y="352" type="line" smooth="no"/>
      <point x="83" y="352" type="line" smooth="no"/>
      <point x="83" y="384" type="line" smooth="no"/>
      <point x="115" y="384" type="line" smooth="no"/>
      <point x="115" y="416" type="line" smooth="no"/>
      <point x="147" y="416" type="line" smooth="no"/>
      <point x="147" y="448" type="line" smooth="no"/>
      <point x="179" y="448" type="line" smooth="no"/>
      <point x="179" y="480" type="line" smooth="no"/>
      <point x="211" y="480" type="line" smooth="no"/>
      <point x="211" y="512" type="line" smooth="no"/>
      <point x="243" y="512" type="line" smooth="no"/>
      <point x="243" y="544" type="line" smooth="no"/>
      <point x="275" y="544" type="line" smooth="no"/>
      <point x="275" y="512" type="line" smooth="no"/>
      <point x="307" y="512" type="line" smooth="no"/>
      <point x="307" y="480" type="line" smooth="no"/>
      <point x="275" y="480" type="line" smooth="no"/>
      <point x="275" y="448" type="line" smooth="no"/>
      <point x="243" y="448" type="line" smooth="no"/>
      <point x="243" y="416" type="line" smooth="no"/>
      <point x="211" y="416" type="line" smooth="no"/>
      <point x="211" y="384" type="line" smooth="no"/>
      <point x="179" y="384" type="line" smooth="no"/>
      <point x="179" y="352" type="line" smooth="no"/>
      <point x="147" y="352" type="line" smooth="no"/>
      <point x="147" y="320" type="line" smooth="no"/>
      <point x="115" y="320" type="line" smooth="no"/>
      <point x="115" y="288" type="line" smooth="no"/>
      <point x="147" y="288" type="line" smooth="no"/>
      <point x="147" y="256" type="line" smooth="no"/>
      <point x="179" y="256" type="line" smooth="no"/>
      <point x="179" y="224" type="line" smooth="no"/>
      <point x="211" y="224" type="line" smooth="no"/>
      <point x="211" y="192" type="line" smooth="no"/>
      <point x="243" y="192" type="line" smooth="no"/>
      <point x="243" y="160" type="line" smooth="no"/>
      <point x="275" y="160" type="line" smooth="no"/>
      <point x="275" y="128" type="line" smooth="no"/>
      <point x="307" y="128" type="line" smooth="no"/>
      <point x="307" y="96" type="line" smooth="no"/>
      <point x="275" y="96" type="line" smooth="no"/>
      <point x="275" y="64" type="line" smooth="no"/>
    </contour>
  </outline>
</glyph>
<glyph name="equal" format="1">
  <advance width="610"/>
  <unicode hex="003d"/>
  <outline>
    <contour>
      <point x="49" y="128" type="line" smooth="no"/>
      <point x="49" y="224" type="line" smooth="no"/>
      <point x="561" y="224" type="line" smooth="no"/>
      <point x="561" y="128" type="line" smooth="no"/>
    </contour>
    <contour>
      <point x="49" y="352" type="line" smooth="no"/>
      <point x="49" y="448" type="line" smooth="no"/>
      <point x="561" y="448" type="line" smooth="no"/>
      <point x="561" y="352" type="line" smooth="no"/>
    </contour>
  </outline>
</glyph>
<glyph name="greater" format="1">
  <advance width="366"/>
  <unicode hex="003e"/>
  <outline>
    <contour>
      <point x="81" y="64" type="line" smooth="no"/>
      <point x="81" y="96" type="line" smooth="no"/>
      <point x="49" y="96" type="line" smooth="no"/>
      <point x="49" y="128" type="line" smooth="no"/>
      <point x="81" y="128" type="line" smooth="no"/>
      <point x="81" y="160" type="line" smooth="no"/>
      <point x="113" y="160" type="line" smooth="no"/>
      <point x="113" y="192" type="line" smooth="no"/>
      <point x="145" y="192" type="line" smooth="no"/>
      <point x="145" y="224" type="line" smooth="no"/>
      <point x="177" y="224" type="line" smooth="no"/>
      <point x="177" y="256" type="line" smooth="no"/>
      <point x="209" y="256" type="line" smooth="no"/>
      <point x="209" y="288" type="line" smooth="no"/>
      <point x="241" y="288" type="line" smooth="no"/>
      <point x="241" y="320" type="line" smooth="no"/>
      <point x="209" y="320" type="line" smooth="no"/>
      <point x="209" y="352" type="line" smooth="no"/>
      <point x="177" y="352" type="line" smooth="no"/>
      <point x="177" y="384" type="line" smooth="no"/>
      <point x="145" y="384" type="line" smooth="no"/>
      <point x="145" y="416" type="line" smooth="no"/>
      <point x="113" y="416" type="line" smooth="no"/>
      <point x="113" y="448" type="line" smooth="no"/>
      <point x="81" y="448" type="line" smooth="no"/>
      <point x="81" y="480" type="line" smooth="no"/>
      <point x="49" y="480" type="line" smooth="no"/>
      <point x="49" y="512" type="line" smooth="no"/>
      <point x="81" y="512" type="line" smooth="no"/>
      <point x="81" y="544" type="line" smooth="no"/>
      <point x="113" y="544" type="line" smooth="no"/>
      <point x="113" y="512" type="line" smooth="no"/>
      <point x="145" y="512" type="line" smooth="no"/>
      <point x="145" y="480" type="line" smooth="no"/>
      <point x="177" y="480" type="line" smooth="no"/>
      <point x="177" y="448" type="line" smooth="no"/>
      <point x="209" y="448" type="line" smooth="no"/>
      <point x="209" y="416" type="line" smooth="no"/>
      <point x="241" y="416" type="line" smooth="no"/>
      <point x="241" y="384" type="line" smooth="no"/>
      <point x="273" y="384" type="line" smooth="no"/>
      <point x="273" y="352" type="line" smooth="no"/>
      <point x="305" y="352" type="line" smooth="no"/>
      <point x="305" y="320" type="line" smooth="no"/>
      <point x="337" y="320" type="line" smooth="no"/>
      <point x="337" y="288" type="line" smooth="no"/>
      <point x="305" y="288" type="line" smooth="no"/>
      <point x="305" y="256" type="line" smooth="no"/>
      <point x="273" y="256" type="line" smooth="no"/>
      <point x="273" y="224" type="line" smooth="no"/>
      <point x="241" y="224" type="line" smooth="no"/>
      <point x="241" y="192" type="line" smooth="no"/>
      <point x="209" y="192" type="line" smooth="no"/>
      <point x="209" y="160" type="line" smooth="no"/>
      <point x="177" y="160" type="line" smooth="no"/>
      <point x="177" y="128" type="line" smooth="no"/>
      <point x="145" y="128" type="line" smooth="no"/>
      <point x="145" y="96" type="line" smooth="no"/>
      <point x="113" y="96" type="line" smooth="no"/>
      <point x="113" y="64" type="line" smooth="no"/>
    </contour>
  </outline>
</glyph>
<glyph name="question" format="1">
  <advance width="531"/>
  <unicode hex="003f"/>
  <outline>
    <contour>
      <point x="216" y="0" type="line" smooth="no"/>
      <point x="216" y="96" type="line" smooth="no"/>
      <point x="312" y="96" type="line" smooth="no"/>
      <point x="312" y="0" type="line" smooth="no"/>
    </contour>
    <contour>
      <point x="216" y="192" type="line" smooth="no"/>
      <point x="216" y="288" type="line" smooth="no"/>
      <point x="248" y="288" type="line" smooth="no"/>
      <point x="248" y="320" type="line" smooth="no"/>
      <point x="280" y="320" type="line" smooth="no"/>
      <point x="280" y="352" type="line" smooth="no"/>
      <point x="312" y="352" type="line" smooth="no"/>
      <point x="312" y="384" type="line" smooth="no"/>
      <point x="344" y="384" type="line" smooth="no"/>
      <point x="344" y="416" type="line" smooth="no"/>
      <point x="376" y="416" type="line" smooth="no"/>
      <point x="376" y="512" type="line" smooth="no"/>
      <point x="344" y="512" type="line" smooth="no"/>
      <point x="344" y="544" type="line" smooth="no"/>
      <point x="184" y="544" type="line" smooth="no"/>
      <point x="184" y="512" type="line" smooth="no"/>
      <point x="152" y="512" type="line" smooth="no"/>
      <point x="152" y="480" type="line" smooth="no"/>
      <point x="120" y="480" type="line" smooth="no"/>
      <point x="120" y="416" type="line" smooth="no"/>
      <point x="24" y="416" type="line" smooth="no"/>
      <point x="24" y="480" type="line" smooth="no"/>
      <point x="56" y="480" type="line" smooth="no"/>
      <point x="56" y="544" type="line" smooth="no"/>
      <point x="88" y="544" type="line" smooth="no"/>
      <point x="88" y="576" type="line" smooth="no"/>
      <point x="120" y="576" type="line" smooth="no"/>
      <point x="120" y="608" type="line" smooth="no"/>
      <point x="152" y="608" type="line" smooth="no"/>
      <point x="152" y="640" type="line" smooth="no"/>
      <point x="344" y="640" type="line" smooth="no"/>
      <point x="344" y="608" type="line" smooth="no"/>
      <point x="408" y="608" type="line" smooth="no"/>
      <point x="408" y="576" type="line" smooth="no"/>
      <point x="440" y="576" type="line" smooth="no"/>
      <point x="440" y="544" type="line" smooth="no"/>
      <point x="472" y="544" type="line" smooth="no"/>
      <point x="472" y="384" type="line" smooth="no"/>
      <point x="440" y="384" type="line" smooth="no"/>
      <point x="440" y="352" type="line" smooth="no"/>
      <point x="408" y="352" type="line" smooth="no"/>
      <point x="408" y="320" type="line" smooth="no"/>
      <point x="376" y="320" type="line" smooth="no"/>
      <point x="376" y="288" type="line" smooth="no"/>
      <point x="344" y="288" type="line" smooth="no"/>
      <point x="344" y="256" type="line" smooth="no"/>
      <point x="312" y="256" type="line" smooth="no"/>
      <point x="312" y="192" type="line" smooth="no"/>
    </contour>
  </outline>
</glyph>
<glyph name="at" format="1">
  <advance width="605"/>
  <unicode hex="0040"/>
  <outline>
    <contour>
      <point x="335" y="160" type="line" smooth="no"/>
      <point x="335" y="192" type="line" smooth="no"/>
      <point x="367" y="192" type="line" smooth="no"/>
      <point x="367" y="384" type="line" smooth="no"/>
      <point x="271" y="384" type="line" smooth="no"/>
      <point x="271" y="352" type="line" smooth="no"/>
      <point x="239" y="352" type="line" smooth="no"/>
      <point x="239" y="192" type="line" smooth="no"/>
      <point x="271" y="192" type="line" smooth="no"/>
      <point x="271" y="160" type="line" smooth="no"/>
    </contour>
    <contour>
      <point x="207" y="-32" type="line" smooth="no"/>
      <point x="207" y="0" type="line" smooth="no"/>
      <point x="143" y="0" type="line" smooth="no"/>
      <point x="143" y="32" type="line" smooth="no"/>
      <point x="111" y="32" type="line" smooth="no"/>
      <point x="111" y="64" type="line" smooth="no"/>
      <point x="79" y="64" type="line" smooth="no"/>
      <point x="79" y="128" type="line" smooth="no"/>
      <point x="47" y="128" type="line" smooth="no"/>
      <point x="47" y="416" type="line" smooth="no"/>
      <point x="79" y="416" type="line" smooth="no"/>
      <point x="79" y="480" type="line" smooth="no"/>
      <point x="111" y="480" type="line" smooth="no"/>
      <point x="111" y="512" type="line" smooth="no"/>
      <point x="143" y="512" type="line" smooth="no"/>
      <point x="143" y="544" type="line" smooth="no"/>
      <point x="175" y="544" type="line" smooth="no"/>
      <point x="175" y="576" type="line" smooth="no"/>
      <point x="239" y="576" type="line" smooth="no"/>
      <point x="239" y="608" type="line" smooth="no"/>
      <point x="399" y="608" type="line" smooth="no"/>
      <point x="399" y="576" type="line" smooth="no"/>
      <point x="463" y="576" type="line" smooth="no"/>
      <point x="463" y="544" type="line" smooth="no"/>
      <point x="495" y="544" type="line" smooth="no"/>
      <point x="495" y="512" type="line" smooth="no"/>
      <point x="527" y="512" type="line" smooth="no"/>
      <point x="527" y="480" type="line" smooth="no"/>
      <point x="559" y="480" type="line" smooth="no"/>
      <point x="559" y="160" type="line" smooth="no"/>
      <point x="527" y="160" type="line" smooth="no"/>
      <point x="527" y="128" type="line" smooth="no"/>
      <point x="495" y="128" type="line" smooth="no"/>
      <point x="495" y="96" type="line" smooth="no"/>
      <point x="431" y="96" type="line" smooth="no"/>
      <point x="431" y="128" type="line" smooth="no"/>
      <point x="399" y="128" type="line" smooth="no"/>
      <point x="399" y="160" type="line" smooth="no"/>
      <point x="367" y="160" type="line" smooth="no"/>
      <point x="367" y="128" type="line" smooth="no"/>
      <point x="335" y="128" type="line" smooth="no"/>
      <point x="335" y="96" type="line" smooth="no"/>
      <point x="239" y="96" type="line" smooth="no"/>
      <point x="239" y="128" type="line" smooth="no"/>
      <point x="207" y="128" type="line" smooth="no"/>
      <point x="207" y="160" type="line" smooth="no"/>
      <point x="175" y="160" type="line" smooth="no"/>
      <point x="175" y="384" type="line" smooth="no"/>
      <point x="207" y="384" type="line" smooth="no"/>
      <point x="207" y="416" type="line" smooth="no"/>
      <point x="239" y="416" type="line" smooth="no"/>
      <point x="239" y="448" type="line" smooth="no"/>
      <point x="399" y="448" type="line" smooth="no"/>
      <point x="399" y="416" type="line" smooth="no"/>
      <point x="431" y="416" type="line" smooth="no"/>
      <point x="431" y="160" type="line" smooth="no"/>
      <point x="463" y="160" type="line" smooth="no"/>
      <point x="463" y="192" type="line" smooth="no"/>
      <point x="495" y="192" type="line" smooth="no"/>
      <point x="495" y="448" type="line" smooth="no"/>
      <point x="463" y="448" type="line" smooth="no"/>
      <point x="463" y="480" type="line" smooth="no"/>
      <point x="431" y="480" type="line" smooth="no"/>
      <point x="431" y="512" type="line" smooth="no"/>
      <point x="367" y="512" type="line" smooth="no"/>
      <point x="367" y="544" type="line" smooth="no"/>
      <point x="271" y="544" type="line" smooth="no"/>
      <point x="271" y="512" type="line" smooth="no"/>
      <point x="207" y="512" type="line" smooth="no"/>
      <point x="207" y="480" type="line" smooth="no"/>
      <point x="175" y="480" type="line" smooth="no"/>
      <point x="175" y="448" type="line" smooth="no"/>
      <point x="143" y="448" type="line" smooth="no"/>
      <point x="143" y="416" type="line" smooth="no"/>
      <point x="111" y="416" type="line" smooth="no"/>
      <point x="111" y="128" type="line" smooth="no"/>
      <point x="143" y="128" type="line" smooth="no"/>
      <point x="143" y="96" type="line" smooth="no"/>
      <point x="175" y="96" type="line" smooth="no"/>
      <point x="175" y="64" type="line" smooth="no"/>
      <point x="239" y="64" type="line" smooth="no"/>
      <point x="239" y="32" type="line" smooth="no"/>
      <point x="335" y="32" type="line" smooth="no"/>
      <point x="335" y="-32" type="line" smooth="no"/>
    </contour>
  </outline>
</glyph>
<glyph name="B" format="1">
  <advance width="552"/>
  <unicode hex="0042"/>
  <outline>
    <contour>
      <point x="377" y="96" type="line" smooth="no"/>
      <point x="377" y="128" type="line" smooth="no"/>
      <point x="409" y="128" type="line" smooth="no"/>
      <point x="409" y="256" type="line" smooth="no"/>
      <point x="377" y="256" type="line" smooth="no"/>
      <point x="377" y="288" type="line" smooth="no"/>
      <point x="153" y="288" type="line" smooth="no"/>
      <point x="153" y="96" type="line" smooth="no"/>
    </contour>
    <contour>
      <point x="345" y="384" type="line" smooth="no"/>
      <point x="345" y="416" type="line" smooth="no"/>
      <point x="377" y="416" type="line" smooth="no"/>
      <point x="377" y="512" type="line" smooth="no"/>
      <point x="345" y="512" type="line" smooth="no"/>
      <point x="345" y="544" type="line" smooth="no"/>
      <point x="153" y="544" type="line" smooth="no"/>
      <point x="153" y="384" type="line" smooth="no"/>
    </contour>
    <contour>
      <point x="57" y="0" type="line" smooth="no"/>
      <point x="57" y="640" type="line" smooth="no"/>
      <point x="377" y="640" type="line" smooth="no"/>
      <point x="377" y="608" type="line" smooth="no"/>
      <point x="409" y="608" type="line" smooth="no"/>
      <point x="409" y="576" type="line" smooth="no"/>
      <point x="441" y="576" type="line" smooth="no"/>
      <point x="441" y="544" type="line" smooth="no"/>
      <point x="473" y="544" type="line" smooth="no"/>
      <point x="473" y="384" type="line" smooth="no"/>
      <point x="441" y="384" type="line" smooth="no"/>
      <point x="441" y="320" type="line" smooth="no"/>
      <point x="473" y="320" type="line" smooth="no"/>
      <point x="473" y="288" type="line" smooth="no"/>
      <point x="505" y="288" type="line" smooth="no"/>
      <point x="505" y="96" type="line" smooth="no"/>
      <point x="473" y="96" type="line" smooth="no"/>
      <point x="473" y="64" type="line" smooth="no"/>
      <point x="441" y="64" type="line" smooth="no"/>
      <point x="441" y="32" type="line" smooth="no"/>
      <point x="409" y="32" type="line" smooth="no"/>
      <point x="409" y="0" type="line" smooth="no"/>
    </contour>
  </outline>
</glyph>
<glyph name="D" format="1">
  <advance width="615"/>
  <unicode hex="0044"/>
  <outline>
    <contour>
      <point x="313" y="96" type="line" smooth="no"/>
      <point x="313" y="128" type="line" smooth="no"/>
      <point x="377" y="128" type="line" smooth="no"/>
      <point x="377" y="160" type="line" smooth="no"/>
      <point x="409" y="160" type="line" smooth="no"/>
      <point x="409" y="192" type="line" smooth="no"/>
      <point x="441" y="192" type="line" smooth="no"/>
      <point x="441" y="256" type="line" smooth="no"/>
      <point x="473" y="256" type="line" smooth="no"/>
      <point x="473" y="384" type="line" smooth="no"/>
      <point x="441" y="384" type="line" smooth="no"/>
      <point x="441" y="448" type="line" smooth="no"/>
      <point x="409" y="448" type="line" smooth="no"/>
      <point x="409" y="480" type="line" smooth="no"/>
      <point x="377" y="480" type="line" smooth="no"/>
      <point x="377" y="512" type="line" smooth="no"/>
      <point x="313" y="512" type="line" smooth="no"/>
      <point x="313" y="544" type="line" smooth="no"/>
      <point x="153" y="544" type="line" smooth="no"/>
      <point x="153" y="96" type="line" smooth="no"/>
    </contour>
    <contour>
      <point x="57" y="0" type="line" smooth="no"/>
      <point x="57" y="640" type="line" smooth="no"/>
      <point x="345" y="640" type="line" smooth="no"/>
      <point x="345" y="608" type="line" smooth="no"/>
      <point x="441" y="608" type="line" smooth="no"/>
      <point x="441" y="576" type="line" smooth="no"/>
      <point x="473" y="576" type="line" smooth="no"/>
      <point x="473" y="544" type="line" smooth="no"/>
      <point x="505" y="544" type="line" smooth="no"/>
      <point x="505" y="512" type="line" smooth="no"/>
      <point x="537" y="512" type="line" smooth="no"/>
      <point x="537" y="448" type="line" smooth="no"/>
      <point x="569" y="448" type="line" smooth="no"/>
      <point x="569" y="192" type="line" smooth="no"/>
      <point x="537" y="192" type="line" smooth="no"/>
      <point x="537" y="128" type="line" smooth="no"/>
      <point x="505" y="128" type="line" smooth="no"/>
      <point x="505" y="96" type="line" smooth="no"/>
      <point x="473" y="96" type="line" smooth="no"/>
      <point x="473" y="64" type="line" smooth="no"/>
      <point x="441" y="64" type="line" smooth="no"/>
      <point x="441" y="32" type="line" smooth="no"/>
      <point x="345" y="32" type="line" smooth="no"/>
      <point x="345" y="0" type="line" smooth="no"/>
    </contour>
  </outline>
</glyph>
<glyph name="E" format="1">
  <advance width="500"/>
  <unicode hex="0045"/>
  <outline>
    <contour>
      <point x="57" y="0" type="line" smooth="no"/>
      <point x="57" y="640" type="line" smooth="no"/>
      <point x="441" y="640" type="line" smooth="no"/>
      <point x="441" y="544" type="line" smooth="no"/>
      <point x="153" y="544" type="line" smooth="no"/>
      <point x="153" y="384" type="line" smooth="no"/>
      <point x="441" y="384" type="line" smooth="no"/>
      <point x="441" y="288" type="line" smooth="no"/>
      <point x="153" y="288" type="line" smooth="no"/>
      <point x="153" y="96" type="line" smooth="no"/>
      <point x="441" y="96" type="line" smooth="no"/>
      <point x="441" y="0" type="line" smooth="no"/>
    </contour>
  </outline>
</glyph>
<glyph name="H" format="1">
  <advance width="596"/>
  <unicode hex="0048"/>
  <outline>
    <contour>
      <point x="57" y="0" type="line" smooth="no"/>
      <point x="57" y="640" type="line" smooth="no"/>
      <point x="153" y="640" type="line" smooth="no"/>
      <point x="153" y="384" type="line" smooth="no"/>
      <point x="441" y="384" type="line" smooth="no"/>
      <point x="441" y="640" type="line" smooth="no"/>
      <point x="537" y="640" type="line" smooth="no"/>
      <point x="537" y="0" type="line" smooth="no"/>
      <point x="441" y="0" type="line" smooth="no"/>
      <point x="441" y="288" type="line" smooth="no"/>
      <point x="153" y="288" type="line" smooth="no"/>
      <point x="153" y="0" type="line" smooth="no"/>
    </contour>
  </outline>
</glyph>
<glyph name="J" format="1">
  <advance width="426"/>
  <unicode hex="004a"/>
  <outline>
    <contour>
      <point x="111" y="0" type="line" smooth="no"/>
      <point x="111" y="32" type="line" smooth="no"/>
      <point x="47" y="32" type="line" smooth="no"/>
      <point x="47" y="96" type="line" smooth="no"/>
      <point x="15" y="96" type="line" smooth="no"/>
      <point x="15" y="224" type="line" smooth="no"/>
      <point x="111" y="224" type="line" smooth="no"/>
      <point x="111" y="128" type="line" smooth="no"/>
      <point x="143" y="128" type="line" smooth="no"/>
      <point x="143" y="96" type="line" smooth="no"/>
      <point x="239" y="96" type="line" smooth="no"/>
      <point x="239" y="128" type="line" smooth="no"/>
      <point x="271" y="128" type="line" smooth="no"/>
      <point x="271" y="640" type="line" smooth="no"/>
      <point x="367" y="640" type="line" smooth="no"/>
      <point x="367" y="96" type="line" smooth="no"/>
      <point x="335" y="96" type="line" smooth="no"/>
      <point x="335" y="32" type="line" smooth="no"/>
      <point x="271" y="32" type="line" smooth="no"/>
      <point x="271" y="0" type="line" smooth="no"/>
    </contour>
  </outline>
</glyph>
<glyph name="K" format="1">
  <advance width="681"/>
  <unicode hex="004b"/>
  <outline>
    <contour>
      <point x="57" y="0" type="line" smooth="no"/>
      <point x="57" y="640" type="line" smooth="no"/>
      <point x="153" y="640" type="line" smooth="no"/>
      <point x="153" y="352" type="line" smooth="no"/>
      <point x="185" y="352" type="line" smooth="no"/>
      <point x="185" y="384" type="line" smooth="no"/>
      <point x="217" y="384" type="line" smooth="no"/>
      <point x="217" y="416" type="line" smooth="no"/>
      <point x="249" y="416" type="line" smooth="no"/>
      <point x="249" y="448" type="line" smooth="no"/>
      <point x="281" y="448" type="line" smooth="no"/>
      <point x="281" y="480" type="line" smooth="no"/>
      <point x="313" y="480" type="line" smooth="no"/>
      <point x="313" y="512" type="line" smooth="no"/>
      <point x="345" y="512" type="line" smooth="no"/>
      <point x="345" y="544" type="line" smooth="no"/>
      <point x="377" y="544" type="line" smooth="no"/>
      <point x="377" y="576" type="line" smooth="no"/>
      <point x="409" y="576" type="line" smooth="no"/>
      <point x="409" y="608" type="line" smooth="no"/>
      <point x="441" y="608" type="line" smooth="no"/>
      <point x="441" y="640" type="line" smooth="no"/>
      <point x="569" y="640" type="line" smooth="no"/>
      <point x="569" y="608" type="line" smooth="no"/>
      <point x="537" y="608" type="line" smooth="no"/>
      <point x="537" y="576" type="line" smooth="no"/>
      <point x="505" y="576" type="line" smooth="no"/>
      <point x="505" y="544" type="line" smooth="no"/>
      <point x="473" y="544" type="line" smooth="no"/>
      <point x="473" y="512" type="line" smooth="no"/>
      <point x="441" y="512" type="line" smooth="no"/>
      <point x="441" y="480" type="line" smooth="no"/>
      <point x="409" y="480" type="line" smooth="no"/>
      <point x="409" y="448" type="line" smooth="no"/>
      <point x="377" y="448" type="line" smooth="no"/>
      <point x="377" y="416" type="line" smooth="no"/>
      <point x="345" y="416" type="line" smooth="no"/>
      <point x="345" y="384" type="line" smooth="no"/>
      <point x="313" y="384" type="line" smooth="no"/>
      <point x="313" y="320" type="line" smooth="no"/>
      <point x="345" y="320" type="line" smooth="no"/>
      <point x="345" y="288" type="line" smooth="no"/>
      <point x="377" y="288" type="line" smooth="no"/>
      <point x="377" y="256" type="line" smooth="no"/>
      <point x="409" y="256" type="line" smooth="no"/>
      <point x="409" y="224" type="line" smooth="no"/>
      <point x="441" y="224" type="line" smooth="no"/>
      <point x="441" y="192" type="line" smooth="no"/>
      <point x="473" y="192" type="line" smooth="no"/>
      <point x="473" y="160" type="line" smooth="no"/>
      <point x="505" y="160" type="line" smooth="no"/>
      <point x="505" y="128" type="line" smooth="no"/>
      <point x="537" y="128" type="line" smooth="no"/>
      <point x="537" y="96" type="line" smooth="no"/>
      <point x="569" y="96" type="line" smooth="no"/>
      <point x="569" y="64" type="line" smooth="no"/>
      <point x="601" y="64" type="line" smooth="no"/>
      <point x="601" y="32" type="line" smooth="no"/>
      <point x="633" y="32" type="line" smooth="no"/>
      <point x="633" y="0" type="line" smooth="no"/>
      <point x="505" y="0" type="line" smooth="no"/>
      <point x="505" y="32" type="line" smooth="no"/>
      <point x="473" y="32" type="line" smooth="no"/>
      <point x="473" y="64" type="line" smooth="no"/>
      <point x="441" y="64" type="line" smooth="no"/>
      <point x="441" y="96" type="line" smooth="no"/>
      <point x="409" y="96" type="line" smooth="no"/>
      <point x="409" y="128" type="line" smooth="no"/>
      <point x="377" y="128" type="line" smooth="no"/>
      <point x="377" y="160" type="line" smooth="no"/>
      <point x="345" y="160" type="line" smooth="no"/>
      <point x="345" y="192" type="line" smooth="no"/>
      <point x="313" y="192" type="line" smooth="no"/>
      <point x="313" y="224" type="line" smooth="no"/>
      <point x="281" y="224" type="line" smooth="no"/>
      <point x="281" y="256" type="line" smooth="no"/>
      <point x="249" y="256" type="line" smooth="no"/>
      <point x="249" y="288" type="line" smooth="no"/>
      <point x="217" y="288" type="line" smooth="no"/>
      <point x="217" y="256" type="line" smooth="no"/>
      <point x="185" y="256" type="line" smooth="no"/>
      <point x="185" y="224" type="line" smooth="no"/>
      <point x="153" y="224" type="line" smooth="no"/>
      <point x="153" y="0" type="line" smooth="no"/>
    </contour>
  </outline>
</glyph>
<glyph name="L" format="1">
  <advance width="521"/>
  <unicode hex="004c"/>
  <outline>
    <contour>
      <point x="57" y="0" type="line" smooth="no"/>
      <point x="57" y="640" type="line" smooth="no"/>
      <point x="153" y="640" type="line" smooth="no"/>
      <point x="153" y="96" type="line" smooth="no"/>
      <point x="473" y="96" type="line" smooth="no"/>
      <point x="473" y="0" type="line" smooth="no"/>
    </contour>
  </outline>
</glyph>
<glyph name="M" format="1">
  <advance width="724"/>
  <unicode hex="004d"/>
  <outline>
    <contour>
      <point x="57" y="0" type="line" smooth="no"/>
      <point x="57" y="640" type="line" smooth="no"/>
      <point x="217" y="640" type="line" smooth="no"/>
      <point x="217" y="544" type="line" smooth="no"/>
      <point x="249" y="544" type="line" smooth="no"/>
      <point x="249" y="480" type="line" smooth="no"/>
      <point x="281" y="480" type="line" smooth="no"/>
      <point x="281" y="384" type="line" smooth="no"/>
      <point x="313" y="384" type="line" smooth="no"/>
      <point x="313" y="288" type="line" smooth="no"/>
      <point x="345" y="288" type="line" smooth="no"/>
      <point x="345" y="160" type="line" smooth="no"/>
      <point x="377" y="160" type="line" smooth="no"/>
      <point x="377" y="288" type="line" smooth="no"/>
      <point x="409" y="288" type="line" smooth="no"/>
      <point x="409" y="384" type="line" smooth="no"/>
      <point x="441" y="384" type="line" smooth="no"/>
      <point x="441" y="480" type="line" smooth="no"/>
      <point x="473" y="480" type="line" smooth="no"/>
      <point x="473" y="544" type="line" smooth="no"/>
      <point x="505" y="544" type="line" smooth="no"/>
      <point x="505" y="640" type="line" smooth="no"/>
      <point x="665" y="640" type="line" smooth="no"/>
      <point x="665" y="0" type="line" smooth="no"/>
      <point x="569" y="0" type="line" smooth="no"/>
      <point x="569" y="480" type="line" smooth="no"/>
      <point x="537" y="480" type="line" smooth="no"/>
      <point x="537" y="416" type="line" smooth="no"/>
      <point x="505" y="416" type="line" smooth="no"/>
      <point x="505" y="288" type="line" smooth="no"/>
      <point x="473" y="288" type="line" smooth="no"/>
      <point x="473" y="160" type="line" smooth="no"/>
      <point x="441" y="160" type="line" smooth="no"/>
      <point x="441" y="64" type="line" smooth="no"/>
      <point x="409" y="64" type="line" smooth="no"/>
      <point x="409" y="0" type="line" smooth="no"/>
      <point x="313" y="0" type="line" smooth="no"/>
      <point x="313" y="64" type="line" smooth="no"/>
      <point x="281" y="64" type="line" smooth="no"/>
      <point x="281" y="160" type="line" smooth="no"/>
      <point x="249" y="160" type="line" smooth="no"/>
      <point x="249" y="288" type="line" smooth="no"/>
      <point x="217" y="288" type="line" smooth="no"/>
      <point x="217" y="416" type="line" smooth="no"/>
      <point x="185" y="416" type="line" smooth="no"/>
      <point x="185" y="480" type="line" smooth="no"/>
      <point x="153" y="480" type="line" smooth="no"/>
      <point x="153" y="0" type="line" smooth="no"/>
    </contour>
  </outline>
</glyph>
<glyph name="O" format="1">
  <advance width="698"/>
  <unicode hex="004f"/>
  <outline>
    <contour>
      <point x="396" y="96" type="line" smooth="no"/>
      <point x="396" y="128" type="line" smooth="no"/>
      <point x="460" y="128" type="line" smooth="no"/>
      <point x="460" y="160" type="line" smooth="no"/>
      <point x="492" y="160" type="line" smooth="no"/>
      <point x="492" y="192" type="line" smooth="no"/>
      <point x="524" y="192" type="line" smooth="no"/>
      <point x="524" y="256" type="line" smooth="no"/>
      <point x="556" y="256" type="line" smooth="no"/>
      <point x="556" y="384" type="line" smooth="no"/>
      <point x="524" y="384" type="line" smooth="no"/>
      <point x="524" y="448" type="line" smooth="no"/>
      <point x="492" y="448" type="line" smooth="no"/>
      <point x="492" y="480" type="line" smooth="no"/>
      <point x="460" y="480" type="line" smooth="no"/>
      <point x="460" y="512" type="line" smooth="no"/>
      <point x="396" y="512" type="line" smooth="no"/>
      <point x="396" y="544" type="line" smooth="no"/>
      <point x="300" y="544" type="line" smooth="no"/>
      <point x="300" y="512" type="line" smooth="no"/>
      <point x="236" y="512" type="line" smooth="no"/>
      <point x="236" y="480" type="line" smooth="no"/>
      <point x="204" y="480" type="line" smooth="no"/>
      <point x="204" y="448" type="line" smooth="no"/>
      <point x="172" y="448" type="line" smooth="no"/>
      <point x="172" y="384" type="line" smooth="no"/>
      <point x="140" y="384" type="line" smooth="no"/>
      <point x="140" y="256" type="line" smooth="no"/>
      <point x="172" y="256" type="line" smooth="no"/>
      <point x="172" y="192" type="line" smooth="no"/>
      <point x="204" y="192" type="line" smooth="no"/>
      <point x="204" y="160" type="line" smooth="no"/>
      <point x="236" y="160" type="line" smooth="no"/>
      <point x="236" y="128" type="line" smooth="no"/>
      <point x="300" y="128" type="line" smooth="no"/>
      <point x="300" y="96" type="line" smooth="no"/>
    </contour>
    <contour>
      <point x="268" y="0" type="line" smooth="no"/>
      <point x="268" y="32" type="line" smooth="no"/>
      <point x="172" y="32" type="line" smooth="no"/>
      <point x="172" y="64" type="line" smooth="no"/>
      <point x="140" y="64" type="line" smooth="no"/>
      <point x="140" y="96" type="line" smooth="no"/>
      <point x="108" y="96" type="line" smooth="no"/>
      <point x="108" y="128" type="line" smooth="no"/>
      <point x="76" y="128" type="line" smooth="no"/>
      <point x="76" y="192" type="line" smooth="no"/>
      <point x="44" y="192" type="line" smooth="no"/>
      <point x="44" y="448" type="line" smooth="no"/>
      <point x="76" y="448" type="line" smooth="no"/>
      <point x="76" y="512" type="line" smooth="no"/>
      <point x="108" y="512" type="line" smooth="no"/>
      <point x="108" y="544" type="line" smooth="no"/>
      <point x="140" y="544" type="line" smooth="no"/>
      <point x="140" y="576" type="line" smooth="no"/>
      <point x="172" y="576" type="line" smooth="no"/>
      <point x="172" y="608" type="line" smooth="no"/>
      <point x="268" y="608" type="line" smooth="no"/>
      <point x="268" y="640" type="line" smooth="no"/>
      <point x="428" y="640" type="line" smooth="no"/>
      <point x="428" y="608" type="line" smooth="no"/>
      <point x="524" y="608" type="line" smooth="no"/>
      <point x="524" y="576" type="line" smooth="no"/>
      <point x="556" y="576" type="line" smooth="no"/>
      <point x="556" y="544" type="line" smooth="no"/>
      <point x="588" y="544" type="line" smooth="no"/>
      <point x="588" y="512" type="line" smooth="no"/>
      <point x="620" y="512" type="line" smooth="no"/>
      <point x="620" y="448" type="line" smooth="no"/>
      <point x="652" y="448" type="line" smooth="no"/>
      <point x="652" y="192" type="line" smooth="no"/>
      <point x="620" y="192" type="line" smooth="no"/>
      <point x="620" y="128" type="line" smooth="no"/>
      <point x="588" y="128" type="line" smooth="no"/>
      <point x="588" y="96" type="line" smooth="no"/>
      <point x="556" y="96" type="line" smooth="no"/>
      <point x="556" y="64" type="line" smooth="no"/>
      <point x="524" y="64" type="line" smooth="no"/>
      <point x="524" y="32" type="line" smooth="no"/>
      <point x="428" y="32" type="line" smooth="no"/>
      <point x="428" y="0" type="line" smooth="no"/>
    </contour>
  </outline>
</glyph>
<glyph name="P" format="1">
  <advance width="564"/>
  <unicode hex="0050"/>
  <outline>
    <contour>
      <point x="377" y="384" type="line" smooth="no"/>
      <point x="377" y="416" type="line" smooth="no"/>
      <point x="409" y="416" type="line" smooth="no"/>
      <point x="409" y="512" type="line" smooth="no"/>
      <point x="377" y="512" type="line" smooth="no"/>
      <point x="377" y="544" type="line" smooth="no"/>
      <point x="153" y="544" type="line" smooth="no"/>
      <point x="153" y="384" type="line" smooth="no"/>
    </contour>
    <contour>
      <point x="57" y="0" type="line" smooth="no"/>
      <point x="57" y="640" type="line" smooth="no"/>
      <point x="409" y="640" type="line" smooth="no"/>
      <point x="409" y="608" type="line" smooth="no"/>
      <point x="441" y="608" type="line" smooth="no"/>
      <point x="441" y="576" type="line" smooth="no"/>
      <point x="473" y="576" type="line" smooth="no"/>
      <point x="473" y="544" type="line" smooth="no"/>
      <point x="505" y="544" type="line" smooth="no"/>
      <point x="505" y="384" type="line" smooth="no"/>
      <point x="473" y="384" type="line" smooth="no"/>
      <point x="473" y="352" type="line" smooth="no"/>
      <point x="441" y="352" type="line" smooth="no"/>
      <point x="441" y="320" type="line" smooth="no"/>
      <point x="409" y="320" type="line" smooth="no"/>
      <point x="409" y="288" type="line" smooth="no"/>
      <point x="153" y="288" type="line" smooth="no"/>
      <point x="153" y="0" type="line" smooth="no"/>
    </contour>
  </outline>
</glyph>
<glyph name="R" format="1">
  <advance width="617"/>
  <unicode hex="0052"/>
  <outline>
    <contour>
      <point x="377" y="384" type="line" smooth="no"/>
      <point x="377" y="416" type="line" smooth="no"/>
      <point x="409" y="416" type="line" smooth="no"/>
      <point x="409" y="512" type="line" smooth="no"/>
      <point x="377" y="512" type="line" smooth="no"/>
      <point x="377" y="544" type="line" smooth="no"/>
      <point x="153" y="544" type="line" smooth="no"/>
      <point x="153" y="384" type="line" smooth="no"/>
    </contour>
    <contour>
      <point x="57" y="0" type="line" smooth="no"/>
      <point x="57" y="640" type="line" smooth="no"/>
      <point x="409" y="640" type="line" smooth="no"/>
      <point x="409" y="608" type="line" smooth="no"/>
      <point x="441" y="608" type="line" smooth="no"/>
      <point x="441" y="576" type="line" smooth="no"/>
      <point x="473" y="576" type="line" smooth="no"/>
      <point x="473" y="544" type="line" smooth="no"/>
      <point x="505" y="544" type="line" smooth="no"/>
      <point x="505" y="384" type="line" smooth="no"/>
      <point x="473" y="384" type="line" smooth="no"/>
      <point x="473" y="352" type="line" smooth="no"/>
      <point x="441" y="352" type="line" smooth="no"/>
      <point x="441" y="320" type="line" smooth="no"/>
      <point x="409" y="320" type="line" smooth="no"/>
      <point x="409" y="288" type="line" smooth="no"/>
      <point x="313" y="288" type="line" smooth="no"/>
      <point x="313" y="256" type="line" smooth="no"/>
      <point x="345" y="256" type="line" smooth="no"/>
      <point x="345" y="224" type="line" smooth="no"/>
      <point x="377" y="224" type="line" smooth="no"/>
      <point x="377" y="192" type="line" smooth="no"/>
      <point x="409" y="192" type="line" smooth="no"/>
      <point x="409" y="160" type="line" smooth="no"/>
      <point x="441" y="160" type="line" smooth="no"/>
      <point x="441" y="128" type="line" smooth="no"/>
      <point x="473" y="128" type="line" smooth="no"/>
      <point x="473" y="96" type="line" smooth="no"/>
      <point x="505" y="96" type="line" smooth="no"/>
      <point x="505" y="64" type="line" smooth="no"/>
      <point x="537" y="64" type="line" smooth="no"/>
      <point x="537" y="32" type="line" smooth="no"/>
      <point x="569" y="32" type="line" smooth="no"/>
      <point x="569" y="0" type="line" smooth="no"/>
      <point x="441" y="0" type="line" smooth="no"/>
      <point x="441" y="32" type="line" smooth="no"/>
      <point x="409" y="32" type="line" smooth="no"/>
      <point x="409" y="64" type="line" smooth="no"/>
      <point x="377" y="64" type="line" smooth="no"/>
      <point x="377" y="96" type="line" smooth="no"/>
      <point x="345" y="96" type="line" smooth="no"/>
      <point x="345" y="128" type="line" smooth="no"/>
      <point x="313" y="128" type="line" smooth="no"/>
      <point x="313" y="160" type="line" smooth="no"/>
      <point x="281" y="160" type="line" smooth="no"/>
      <point x="281" y="192" type="line" smooth="no"/>
      <point x="249" y="192" type="line" smooth="no"/>
      <point x="249" y="224" type="line" smooth="no"/>
      <point x="217" y="224" type="line" smooth="no"/>
      <point x="217" y="256" type="line" smooth="no"/>
      <point x="185" y="256" type="line" smooth="no"/>
      <point x="185" y="288" type="line" smooth="no"/>
      <point x="153" y="288" type="line" smooth="no"/>
      <point x="153" y="0" type="line" smooth="no"/>
    </contour>
  </outline>
</glyph>
<glyph name="S" format="1">
  <advance width="515"/>
  <unicode hex="0053"/>
  <outline>
    <contour>
      <point x="180" y="0" type="line" smooth="no"/>
      <point x="180" y="32" type="line" smooth="no"/>
      <point x="116" y="32" type="line" smooth="no"/>
      <point x="116" y="64" type="line" smooth="no"/>
      <point x="84" y="64" type="line" smooth="no"/>
      <point x="84" y="96" type="line" smooth="no"/>
      <point x="52" y="96" type="line" smooth="no"/>
      <point x="52" y="160" type="line" smooth="no"/>
      <point x="148" y="160" type="line" smooth="no"/>
      <point x="148" y="128" type="line" smooth="no"/>
      <point x="180" y="128" type="line" smooth="no"/>
      <point x="180" y="96" type="line" smooth="no"/>
      <point x="340" y="96" type="line" smooth="no"/>
      <point x="340" y="128" type="line" smooth="no"/>
      <point x="372" y="128" type="line" smooth="no"/>
      <point x="372" y="224" type="line" smooth="no"/>
      <point x="340" y="224" type="line" smooth="no"/>
      <point x="340" y="256" type="line" smooth="no"/>
      <point x="308" y="256" type="line" smooth="no"/>
      <point x="308" y="288" type="line" smooth="no"/>
      <point x="212" y="288" type="line" smooth="no"/>
      <point x="212" y="320" type="line" smooth="no"/>
      <point x="116" y="320" type="line" smooth="no"/>
      <point x="116" y="352" type="line" smooth="no"/>
      <point x="84" y="352" type="line" smooth="no"/>
      <point x="84" y="384" type="line" smooth="no"/>
      <point x="52" y="384" type="line" smooth="no"/>
      <point x="52" y="544" type="line" smooth="no"/>
      <point x="84" y="544" type="line" smooth="no"/>
      <point x="84" y="576" type="line" smooth="no"/>
      <point x="116" y="576" type="line" smooth="no"/>
      <point x="116" y="608" type="line" smooth="no"/>
      <point x="148" y="608" type="line" smooth="no"/>
      <point x="148" y="640" type="line" smooth="no"/>
      <point x="372" y="640" type="line" smooth="no"/>
      <point x="372" y="608" type="line" smooth="no"/>
      <point x="404" y="608" type="line" smooth="no"/>
      <point x="404" y="576" type="line" smooth="no"/>
      <point x="436" y="576" type="line" smooth="no"/>
      <point x="436" y="512" type="line" smooth="no"/>
      <point x="340" y="512" type="line" smooth="no"/>
      <point x="340" y="544" type="line" smooth="no"/>
      <point x="180" y="544" type="line" smooth="no"/>
      <point x="180" y="512" type="line" smooth="no"/>
      <point x="148" y="512" type="line" smooth="no"/>
      <point x="148" y="416" type="line" smooth="no"/>
      <point x="212" y="416" type="line" smooth="no"/>
      <point x="212" y="384" type="line" smooth="no"/>
      <point x="308" y="384" type="line" smooth="no"/>
      <point x="308" y="352" type="line" smooth="no"/>
      <point x="372" y="352" type="line" smooth="no"/>
      <point x="372" y="320" type="line" smooth="no"/>
      <point x="436" y="320" type="line" smooth="no"/>
      <point x="436" y="256" type="line" smooth="no"/>
      <point x="468" y="256" type="line" smooth="no"/>
      <point x="468" y="96" type="line" smooth="no"/>
      <point x="436" y="96" type="line" smooth="no"/>
      <point x="436" y="64" type="line" smooth="no"/>
      <point x="404" y="64" type="line" smooth="no"/>
      <point x="404" y="32" type="line" smooth="no"/>
      <point x="340" y="32" type="line" smooth="no"/>
      <point x="340" y="0" type="line" smooth="no"/>
    </contour>
  </outline>
</glyph>
<glyph name="T" format="1">
  <advance width="550"/>
  <unicode hex="0054"/>
  <outline>
    <contour>
      <point x="203" y="0" type="line" smooth="no"/>
      <point x="203" y="544" type="line" smooth="no"/>
      <point x="-21" y="544" type="line" smooth="no"/>
      <point x="-21" y="640" type="line" smooth="no"/>
      <point x="491" y="640" type="line" smooth="no"/>
      <point x="491" y="544" type="line" smooth="no"/>
      <point x="299" y="544" type="line" smooth="no"/>
      <point x="299" y="0" type="line" smooth="no"/>
    </contour>
  </outline>
</glyph>
<glyph name="V" format="1">
  <advance width="618"/>
  <unicode hex="0056"/>
  <outline>
    <contour>
      <point x="239" y="0" type="line" smooth="no"/>
      <point x="239" y="64" type="line" smooth="no"/>
      <point x="207" y="64" type="line" smooth="no"/>
      <point x="207" y="160" type="line" smooth="no"/>
      <point x="175" y="160" type="line" smooth="no"/>
      <point x="175" y="224" type="line" smooth="no"/>
      <point x="143" y="224" type="line" smooth="no"/>
      <point x="143" y="320" type="line" smooth="no"/>
      <point x="111" y="320" type="line" smooth="no"/>
      <point x="111" y="416" type="line" smooth="no"/>
      <point x="79" y="416" type="line" smooth="no"/>
      <point x="79" y="480" type="line" smooth="no"/>
      <point x="47" y="480" type="line" smooth="no"/>
      <point x="47" y="576" type="line" smooth="no"/>
      <point x="15" y="576" type="line" smooth="no"/>
      <point x="15" y="640" type="line" smooth="no"/>
      <point x="111" y="640" type="line" smooth="no"/>
      <point x="111" y="576" type="line" smooth="no"/>
      <point x="143" y="576" type="line" smooth="no"/>
      <point x="143" y="480" type="line" smooth="no"/>
      <point x="175" y="480" type="line" smooth="no"/>
      <point x="175" y="416" type="line" smooth="no"/>
      <point x="207" y="416" type="line" smooth="no"/>
      <point x="207" y="320" type="line" smooth="no"/>
      <point x="239" y="320" type="line" smooth="no"/>
      <point x="239" y="224" type="line" smooth="no"/>
      <point x="271" y="224" type="line" smooth="no"/>
      <point x="271" y="160" type="line" smooth="no"/>
      <point x="303" y="160" type="line" smooth="no"/>
      <point x="303" y="224" type="line" smooth="no"/>
      <point x="335" y="224" type="line" smooth="no"/>
      <point x="335" y="320" type="line" smooth="no"/>
      <point x="367" y="320" type="line" smooth="no"/>
      <point x="367" y="416" type="line" smooth="no"/>
      <point x="399" y="416" type="line" smooth="no"/>
      <point x="399" y="480" type="line" smooth="no"/>
      <point x="431" y="480" type="line" smooth="no"/>
      <point x="431" y="576" type="line" smooth="no"/>
      <point x="463" y="576" type="line" smooth="no"/>
      <point x="463" y="640" type="line" smooth="no"/>
      <point x="559" y="640" type="line" smooth="no"/>
      <point x="559" y="576" type="line" smooth="no"/>
      <point x="527" y="576" type="line" smooth="no"/>
      <point x="527" y="480" type="line" smooth="no"/>
      <point x="495" y="480" type="line" smooth="no"/>
      <point x="495" y="416" type="line" smooth="no"/>
      <point x="463" y="416" type="line" smooth="no"/>
      <point x="463" y="320" type="line" smooth="no"/>
      <point x="431" y="320" type="line" smooth="no"/>
      <point x="431" y="224" type="line" smooth="no"/>
      <point x="399" y="224" type="line" smooth="no"/>
      <point x="399" y="160" type="line" smooth="no"/>
      <point x="367" y="160" type="line" smooth="no"/>
      <point x="367" y="64" type="line" smooth="no"/>
      <point x="335" y="64" type="line" smooth="no"/>
      <point x="335" y="0" type="line" smooth="no"/>
    </contour>
  </outline>
</glyph>
<glyph name="W" format="1">
  <advance width="826"/>
  <unicode hex="0057"/>
  <outline>
    <contour>
      <point x="191" y="0" type="line" smooth="no"/>
      <point x="191" y="64" type="line" smooth="no"/>
      <point x="159" y="64" type="line" smooth="no"/>
      <point x="159" y="160" type="line" smooth="no"/>
      <point x="127" y="160" type="line" smooth="no"/>
      <point x="127" y="288" type="line" smooth="no"/>
      <point x="95" y="288" type="line" smooth="no"/>
      <point x="95" y="416" type="line" smooth="no"/>
      <point x="63" y="416" type="line" smooth="no"/>
      <point x="63" y="512" type="line" smooth="no"/>
      <point x="31" y="512" type="line" smooth="no"/>
      <point x="31" y="640" type="line" smooth="no"/>
      <point x="127" y="640" type="line" smooth="no"/>
      <point x="127" y="512" type="line" smooth="no"/>
      <point x="159" y="512" type="line" smooth="no"/>
      <point x="159" y="384" type="line" smooth="no"/>
      <point x="191" y="384" type="line" smooth="no"/>
      <point x="191" y="288" type="line" smooth="no"/>
      <point x="223" y="288" type="line" smooth="no"/>
      <point x="223" y="160" type="line" smooth="no"/>
      <point x="255" y="160" type="line" smooth="no"/>
      <point x="255" y="288" type="line" smooth="no"/>
      <point x="287" y="288" type="line" smooth="no"/>
      <point x="287" y="384" type="line" smooth="no"/>
      <point x="319" y="384" type="line" smooth="no"/>
      <point x="319" y="512" type="line" smooth="no"/>
      <point x="351" y="512" type="line" smooth="no"/>
      <point x="351" y="640" type="line" smooth="no"/>
      <point x="447" y="640" type="line" smooth="no"/>
      <point x="447" y="512" type="line" smooth="no"/>
      <point x="479" y="512" type="line" smooth="no"/>
      <point x="479" y="384" type="line" smooth="no"/>
      <point x="511" y="384" type="line" smooth="no"/>
      <point x="511" y="288" type="line" smooth="no"/>
      <point x="543" y="288" type="line" smooth="no"/>
      <point x="543" y="160" type="line" smooth="no"/>
      <point x="575" y="160" type="line" smooth="no"/>
      <point x="575" y="288" type="line" smooth="no"/>
      <point x="607" y="288" type="line" smooth="no"/>
      <point x="607" y="384" type="line" smooth="no"/>
      <point x="639" y="384" type="line" smooth="no"/>
      <point x="639" y="512" type="line" smooth="no"/>
      <point x="671" y="512" type="line" smooth="no"/>
      <point x="671" y="640" type="line" smooth="no"/>
      <point x="767" y="640" type="line" smooth="no"/>
      <point x="767" y="512" type="line" smooth="no"/>
      <point x="735" y="512" type="line" smooth="no"/>
      <point x="735" y="416" type="line" smooth="no"/>
      <point x="703" y="416" type="line" smooth="no"/>
      <point x="703" y="288" type="line" smooth="no"/>
      <point x="671" y="288" type="line" smooth="no"/>
      <point x="671" y="160" type="line" smooth="no"/>
      <point x="639" y="160" type="line" smooth="no"/>
      <point x="639" y="64" type="line" smooth="no"/>
      <point x="607" y="64" type="line" smooth="no"/>
      <point x="607" y="0" type="line" smooth="no"/>
      <point x="511" y="0" type="line" smooth="no"/>
      <point x="511" y="64" type="line" smooth="no"/>
      <point x="479" y="64" type="line" smooth="no"/>
      <point x="479" y="160" type="line" smooth="no"/>
      <point x="447" y="160" type="line" smooth="no"/>
      <point x="447" y="288" type="line" smooth="no"/>
      <point x="415" y="288" type="line" smooth="no"/>
      <point x="415" y="416" type="line" smooth="no"/>
      <point x="383" y="416" type="line" smooth="no"/>
      <point x="383" y="288" type="line" smooth="no"/>
      <point x="351" y="288" type="line" smooth="no"/>
      <point x="351" y="160" type="line" smooth="no"/>
      <point x="319" y="160" type="line" smooth="no"/>
      <point x="319" y="64" type="line" smooth="no"/>
      <point x="287" y="64" type="line" smooth="no"/>
      <point x="287" y="0" type="line" smooth="no"/>
    </contour>
  </outline>
</glyph>
<glyph name="Y" format="1">
  <advance width="601"/>
  <unicode hex="0059"/>
  <outline>
    <contour>
      <point x="222" y="0" type="line" smooth="no"/>
      <point x="222" y="224" type="line" smooth="no"/>
      <point x="190" y="224" type="line" smooth="no"/>
      <point x="190" y="288" type="line" smooth="no"/>
      <point x="158" y="288" type="line" smooth="no"/>
      <point x="158" y="352" type="line" smooth="no"/>
      <point x="126" y="352" type="line" smooth="no"/>
      <point x="126" y="416" type="line" smooth="no"/>
      <point x="94" y="416" type="line" smooth="no"/>
      <point x="94" y="480" type="line" smooth="no"/>
      <point x="62" y="480" type="line" smooth="no"/>
      <point x="62" y="544" type="line" smooth="no"/>
      <point x="30" y="544" type="line" smooth="no"/>
      <point x="30" y="608" type="line" smooth="no"/>
      <point x="-2" y="608" type="line" smooth="no"/>
      <point x="-2" y="640" type="line" smooth="no"/>
      <point x="126" y="640" type="line" smooth="no"/>
      <point x="126" y="576" type="line" smooth="no"/>
      <point x="158" y="576" type="line" smooth="no"/>
      <point x="158" y="512" type="line" smooth="no"/>
      <point x="190" y="512" type="line" smooth="no"/>
      <point x="190" y="448" type="line" smooth="no"/>
      <point x="222" y="448" type="line" smooth="no"/>
      <point x="222" y="384" type="line" smooth="no"/>
      <point x="254" y="384" type="line" smooth="no"/>
      <point x="254" y="320" type="line" smooth="no"/>
      <point x="286" y="320" type="line" smooth="no"/>
      <point x="286" y="384" type="line" smooth="no"/>
      <point x="318" y="384" type="line" smooth="no"/>
      <point x="318" y="448" type="line" smooth="no"/>
      <point x="350" y="448" type="line" smooth="no"/>
      <point x="350" y="512" type="line" smooth="no"/>
      <point x="382" y="512" type="line" smooth="no"/>
      <point x="382" y="576" type="line" smooth="no"/>
      <point x="414" y="576" type="line" smooth="no"/>
      <point x="414" y="640" type="line" smooth="no"/>
      <point x="542" y="640" type="line" smooth="no"/>
      <point x="542" y="608" type="line" smooth="no"/>
      <point x="510" y="608" type="line" smooth="no"/>
      <point x="510" y="544" type="line" smooth="no"/>
      <point x="478" y="544" type="line" smooth="no"/>
      <point x="478" y="480" type="line" smooth="no"/>
      <point x="446" y="480" type="line" smooth="no"/>
      <point x="446" y="416" type="line" smooth="no"/>
      <point x="414" y="416" type="line" smooth="no"/>
      <point x="414" y="352" type="line" smooth="no"/>
      <point x="382" y="352" type="line" smooth="no"/>
      <point x="382" y="288" type="line" smooth="no"/>
      <point x="350" y="288" type="line" smooth="no"/>
      <point x="350" y="224" type="line" smooth="no"/>
      <point x="318" y="224" type="line" smooth="no"/>
      <point x="318" y="0" type="line" smooth="no"/>
    </contour>
  </outline>
</glyph>
<glyph name="Z" format="1">
  <advance width="582"/>
  <unicode hex="005a"/>
  <outline>
    <contour>
      <point x="43" y="0" type="line" smooth="no"/>
      <point x="43" y="96" type="line" smooth="no"/>
      <point x="75" y="96" type="line" smooth="no"/>
      <point x="75" y="128" type="line" smooth="no"/>
      <point x="107" y="128" type="line" smooth="no"/>
      <point x="107" y="160" type="line" smooth="no"/>
      <point x="139" y="160" type="line" smooth="no"/>
      <point x="139" y="224" type="line" smooth="no"/>
      <point x="171" y="224" type="line" smooth="no"/>
      <point x="171" y="256" type="line" smooth="no"/>
      <point x="203" y="256" type="line" smooth="no"/>
      <point x="203" y="288" type="line" smooth="no"/>
      <point x="235" y="288" type="line" smooth="no"/>
      <point x="235" y="352" type="line" smooth="no"/>
      <point x="267" y="352" type="line" smooth="no"/>
      <point x="267" y="384" type="line" smooth="no"/>
      <point x="299" y="384" type="line" smooth="no"/>
      <point x="299" y="416" type="line" smooth="no"/>
      <point x="331" y="416" type="line" smooth="no"/>
      <point x="331" y="480" type="line" smooth="no"/>
      <point x="363" y="480" type="line" smooth="no"/>
      <point x="363" y="512" type="line" smooth="no"/>
      <point x="395" y="512" type="line" smooth="no"/>
      <point x="395" y="544" type="line" smooth="no"/>
      <point x="43" y="544" type="line" smooth="no"/>
      <point x="43" y="640" type="line" smooth="no"/>
      <point x="523" y="640" type="line" smooth="no"/>
      <point x="523" y="512" type="line" smooth="no"/>
      <point x="491" y="512" type="line" smooth="no"/>
      <point x="491" y="480" type="line" smooth="no"/>
      <point x="459" y="480" type="line" smooth="no"/>
      <point x="459" y="416" type="line" smooth="no"/>
      <point x="427" y="416" type="line" smooth="no"/>
      <point x="427" y="384" type="line" smooth="no"/>
      <point x="395" y="384" type="line" smooth="no"/>
      <point x="395" y="352" type="line" smooth="no"/>
      <point x="363" y="352" type="line" smooth="no"/>
      <point x="363" y="288" type="line" smooth="no"/>
      <point x="331" y="288" type="line" smooth="no"/>
      <point x="331" y="256" type="line" smooth="no"/>
      <point x="299" y="256" type="line" smooth="no"/>
      <point x="299" y="224" type="line" smooth="no"/>
      <point x="267" y="224" type="line" smooth="no"/>
      <point x="267" y="192" type="line" smooth="no"/>
      <point x="235" y="192" type="line" smooth="no"/>
      <point x="235" y="128" type="line" smooth="no"/>
      <point x="203" y="128" type="line" smooth="no"/>
      <point x="203" y="96" type="line" smooth="no"/>
      <point x="523" y="96" type="line" smooth="no"/>
      <point x="523" y="0" type="line" smooth="no"/>
    </contour>
  </outline>
</glyph>
<glyph name="bracketleft" format="1">
  <advance width="315"/>
  <unicode hex="005b"/>
  <outline>
    <contour>
      <point x="58" y="-96" type="line" smooth="no"/>
      <point x="58" y="736" type="line" smooth="no"/>
      <point x="250" y="736" type="line" smooth="no"/>
      <point x="250" y="672" type="line" smooth="no"/>
      <point x="122" y="672" type="line" smooth="no"/>
      <point x="122" y="-32" type="line" smooth="no"/>
      <point x="250" y="-32" type="line" smooth="no"/>
      <point x="250" y="-96" type="line" smooth="no"/>
    </contour>
  </outline>
</glyph>
<glyph name="backslash" format="1">
  <advance width="497"/>
  <unicode hex="005c"/>
  <outline>
    <contour>
      <point x="344" y="-64" type="line" smooth="no"/>
      <point x="344" y="0" type="line" smooth="no"/>
      <point x="312" y="0" type="line" smooth="no"/>
      <point x="312" y="64" type="line" smooth="no"/>
      <point x="280" y="64" type="line" smooth="no"/>
      <point x="280" y="128" type="line" smooth="no"/>
      <point x="248" y="128" type="line" smooth="no"/>
      <point x="248" y="192" type="line" smooth="no"/>
      <point x="216" y="192" type="line" smooth="no"/>
      <point x="216" y="256" type="line" smooth="no"/>
      <point x="184" y="256" type="line" smooth="no"/>
      <point x="184" y="320" type="line" smooth="no"/>
      <point x="152" y="320" type="line" smooth="no"/>
      <point x="152" y="384" type="line" smooth="no"/>
      <point x="120" y="384" type="line" smooth="no"/>
      <point x="120" y="448" type="line" smooth="no"/>
      <point x="88" y="448" type="line" smooth="no"/>
      <point x="88" y="512" type="line" smooth="no"/>
      <point x="56" y="512" type="line" smooth="no"/>
      <point x="56" y="576" type="line" smooth="no"/>
      <point x="24" y="576" type="line" smooth="no"/>
      <point x="24" y="640" type="line" smooth="no"/>
      <point x="-8" y="640" type="line" smooth="no"/>
      <point x="-8" y="704" type="line" smooth="no"/>
      <point x="88" y="704" type="line" smooth="no"/>
      <point x="88" y="640" type="line" smooth="no"/>
      <point x="120" y="640" type="line" smooth="no"/>
      <point x="120" y="576" type="line" smooth="no"/>
      <point x="152" y="576" type="line" smooth="no"/>
      <point x="152" y="512" type="line" smooth="no"/>
      <point x="184" y="512" type="line" smooth="no"/>
      <point x="184" y="448" type="line" smooth="no"/>
      <point x="216" y="448" type="line" smooth="no"/>
      <point x="216" y="384" type="line" smooth="no"/>
      <point x="248" y="384" type="line" smooth="no"/>
      <point x="248" y="320" type="line" smooth="no"/>
      <point x="280" y="320" type="line" smooth="no"/>
      <point x="280" y="256" type="line" smooth="no"/>
      <point x="312" y="256" type="line" smooth="no"/>
      <point x="312" y="192" type="line" smooth="no"/>
      <point x="344" y="192" type="line" smooth="no"/>
      <point x="344" y="128" type="line" smooth="no"/>
      <point x="376" y="128" type="line" smooth="no"/>
      <point x="376" y="64" type="line" smooth="no"/>
      <point x="408" y="64" type="line" smooth="no"/>
      <point x="408" y="0" type="line" smooth="no"/>
      <point x="440" y="0" type="line" smooth="no"/>
      <point x="440" y="-64" type="line" smooth="no"/>
    </contour>
  </outline>
</glyph>
<glyph name="bracketright" format="1">
  <advance width="269"/>
  <unicode hex="005d"/>
  <outline>
    <contour>
      <point x="12" y="-96" type="line" smooth="no"/>
      <point x="12" y="-32" type="line" smooth="no"/>
      <point x="140" y="-32" type="line" smooth="no"/>
      <point x="140" y="672" type="line" smooth="no"/>
      <point x="12" y="672" type="line" smooth="no"/>
      <point x="12" y="736" type="line" smooth="no"/>
      <point x="204" y="736" type="line" smooth="no"/>
      <point x="204" y="-96" type="line" smooth="no"/>
    </contour>
  </outline>
</glyph>
<glyph name="asciicircum" format="1">
  <advance width="400"/>
  <unicode hex="005e"/>
  <outline>
    <contour>
      <point x="21" y="512" type="line" smooth="no"/>
      <point x="21" y="544" type="line" smooth="no"/>
      <point x="53" y="544" type="line" smooth="no"/>
      <point x="53" y="576" type="line" smooth="no"/>
      <point x="85" y="576" type="line" smooth="no"/>
      <point x="85" y="608" type="line" smooth="no"/>
      <point x="117" y="608" type="line" smooth="no"/>
      <point x="117" y="640" type="line" smooth="no"/>
      <point x="245" y="640" type="line" smooth="no"/>
      <point x="245" y="608" type="line" smooth="no"/>
      <point x="277" y="608" type="line" smooth="no"/>
      <point x="277" y="576" type="line" smooth="no"/>
      <point x="309" y="576" type="line" smooth="no"/>
      <point x="309" y="544" type="line" smooth="no"/>
      <point x="341" y="544" type="line" smooth="no"/>
      <point x="341" y="512" type="line" smooth="no"/>
      <point x="277" y="512" type="line" smooth="no"/>
      <point x="277" y="544" type="line" smooth="no"/>
      <point x="213" y="544" type="line" smooth="no"/>
      <point x="213" y="576" type="line" smooth="no"/>
      <point x="149" y="576" type="line" smooth="no"/>
      <point x="149" y="544" type="line" smooth="no"/>
      <point x="85" y="544" type="line" smooth="no"/>
      <point x="85" y="512" type="line" smooth="no"/>
    </contour>
  </outline>
</glyph>
<glyph name="underscore" format="1">
  <advance width="735"/>
  <unicode hex="005f"/>
  <outline>
    <contour>
      <point x="6" y="-64" type="line" smooth="no"/>
      <point x="6" y="0" type="line" smooth="no"/>
      <point x="678" y="0" type="line" smooth="no"/>
      <point x="678" y="-64" type="line" smooth="no"/>
    </contour>
  </outline>
</glyph>
<glyph name="grave" format="1">
  <advance width="229"/>
  <unicode hex="0060"/>
  <outline>
    <contour>
      <point x="74" y="544" type="line" smooth="no"/>
      <point x="74" y="576" type="line" smooth="no"/>
      <point x="42" y="576" type="line" smooth="no"/>
      <point x="42" y="608" type="line" smooth="no"/>
      <point x="10" y="608" type="line" smooth="no"/>
      <point x="10" y="640" type="line" smooth="no"/>
      <point x="106" y="640" type="line" smooth="no"/>
      <point x="106" y="608" type="line" smooth="no"/>
      <point x="138" y="608" type="line" smooth="no"/>
      <point x="138" y="576" type="line" smooth="no"/>
      <point x="170" y="576" type="line" smooth="no"/>
      <point x="170" y="544" type="line" smooth="no"/>
    </contour>
  </outline>
</glyph>
<glyph name="a" format="1">
  <advance width="509"/>
  <unicode hex="0061"/>
  <outline>
    <contour>
      <point x="298" y="96" type="line" smooth="no"/>
      <point x="298" y="128" type="line" smooth="no"/>
      <point x="330" y="128" type="line" smooth="no"/>
      <point x="330" y="160" type="line" smooth="no"/>
      <point x="362" y="160" type="line" smooth="no"/>
      <point x="362" y="320" type="line" smooth="no"/>
      <point x="330" y="320" type="line" smooth="no"/>
      <point x="330" y="352" type="line" smooth="no"/>
      <point x="298" y="352" type="line" smooth="no"/>
      <point x="298" y="384" type="line" smooth="no"/>
      <point x="170" y="384" type="line" smooth="no"/>
      <point x="170" y="352" type="line" smooth="no"/>
      <point x="138" y="352" type="line" smooth="no"/>
      <point x="138" y="128" type="line" smooth="no"/>
      <point x="170" y="128" type="line" smooth="no"/>
      <point x="170" y="96" type="line" smooth="no"/>
    </contour>
    <contour>
      <point x="170" y="0" type="line" smooth="no"/>
      <point x="170" y="32" type="line" smooth="no"/>
      <point x="106" y="32" type="line" smooth="no"/>
      <point x="106" y="64" type="line" smooth="no"/>
      <point x="74" y="64" type="line" smooth="no"/>
      <point x="74" y="128" type="line" smooth="no"/>
      <point x="42" y="128" type="line" smooth="no"/>
      <point x="42" y="352" type="line" smooth="no"/>
      <point x="74" y="352" type="line" smooth="no"/>
      <point x="74" y="416" type="line" smooth="no"/>
      <point x="106" y="416" type="line" smooth="no"/>
      <point x="106" y="448" type="line" smooth="no"/>
      <point x="170" y="448" type="line" smooth="no"/>
      <point x="170" y="480" type="line" smooth="no"/>
      <point x="298" y="480" type="line" smooth="no"/>
      <point x="298" y="448" type="line" smooth="no"/>
      <point x="330" y="448" type="line" smooth="no"/>
      <point x="330" y="416" type="line" smooth="no"/>
      <point x="362" y="416" type="line" smooth="no"/>
      <point x="362" y="480" type="line" smooth="no"/>
      <point x="458" y="480" type="line" smooth="no"/>
      <point x="458" y="0" type="line" smooth="no"/>
      <point x="362" y="0" type="line" smooth="no"/>
      <point x="362" y="64" type="line" smooth="no"/>
      <point x="330" y="64" type="line" smooth="no"/>
      <point x="330" y="32" type="line" smooth="no"/>
      <point x="298" y="32" type="line" smooth="no"/>
      <point x="298" y="0" type="line" smooth="no"/>
    </contour>
  </outline>
</glyph>
<glyph name="d" format="1">
  <advance width="513"/>
  <unicode hex="0064"/>
  <outline>
    <contour>
      <point x="294" y="96" type="line" smooth="no"/>
      <point x="294" y="128" type="line" smooth="no"/>
      <point x="326" y="128" type="line" smooth="no"/>
      <point x="326" y="160" type="line" smooth="no"/>
      <point x="358" y="160" type="line" smooth="no"/>
      <point x="358" y="320" type="line" smooth="no"/>
      <point x="326" y="320" type="line" smooth="no"/>
      <point x="326" y="352" type="line" smooth="no"/>
      <point x="294" y="352" type="line" smooth="no"/>
      <point x="294" y="384" type="line" smooth="no"/>
      <point x="166" y="384" type="line" smooth="no"/>
      <point x="166" y="352" type="line" smooth="no"/>
      <point x="134" y="352" type="line" smooth="no"/>
      <point x="134" y="128" type="line" smooth="no"/>
      <point x="166" y="128" type="line" smooth="no"/>
      <point x="166" y="96" type="line" smooth="no"/>
    </contour>
    <contour>
      <point x="166" y="0" type="line" smooth="no"/>
      <point x="166" y="32" type="line" smooth="no"/>
      <point x="102" y="32" type="line" smooth="no"/>
      <point x="102" y="64" type="line" smooth="no"/>
      <point x="70" y="64" type="line" smooth="no"/>
      <point x="70" y="128" type="line" smooth="no"/>
      <point x="38" y="128" type="line" smooth="no"/>
      <point x="38" y="352" type="line" smooth="no"/>
      <point x="70" y="352" type="line" smooth="no"/>
      <point x="70" y="416" type="line" smooth="no"/>
      <point x="102" y="416" type="line" smooth="no"/>
      <point x="102" y="448" type="line" smooth="no"/>
      <point x="166" y="448" type="line" smooth="no"/>
      <point x="166" y="480" type="line" smooth="no"/>
      <point x="294" y="480" type="line" smooth="no"/>
      <point x="294" y="448" type="line" smooth="no"/>
      <point x="326" y="448" type="line" smooth="no"/>
      <point x="326" y="416" type="line" smooth="no"/>
      <point x="358" y="416" type="line" smooth="no"/>
      <point x="358" y="640" type="line" smooth="no"/>
      <point x="454" y="640" type="line" smooth="no"/>
      <point x="454" y="0" type="line" smooth="no"/>
      <point x="358" y="0" type="line" smooth="no"/>
      <point x="358" y="64" type="line" smooth="no"/>
      <point x="326" y="64" type="line" smooth="no"/>
      <point x="326" y="32" type="line" smooth="no"/>
      <point x="294" y="32" type="line" smooth="no"/>
      <point x="294" y="0" type="line" smooth="no"/>
    </contour>
  </outline>
</glyph>
<glyph name="f" format="1">
  <advance width="387"/>
  <unicode hex="0066"/>
  <outline>
    <contour>
      <point x="104" y="0" type="line" smooth="no"/>
      <point x="104" y="384" type="line" smooth="no"/>
      <point x="40" y="384" type="line" smooth="no"/>
      <point x="40" y="480" type="line" smooth="no"/>
      <point x="104" y="480" type="line" smooth="no"/>
      <point x="104" y="576" type="line" smooth="no"/>
      <point x="136" y="576" type="line" smooth="no"/>
      <point x="136" y="608" type="line" smooth="no"/>
      <point x="168" y="608" type="line" smooth="no"/>
      <point x="168" y="640" type="line" smooth="no"/>
      <point x="328" y="640" type="line" smooth="no"/>
      <point x="328" y="576" type="line" smooth="no"/>
      <point x="232" y="576" type="line" smooth="no"/>
      <point x="232" y="544" type="line" smooth="no"/>
      <point x="200" y="544" type="line" smooth="no"/>
      <point x="200" y="480" type="line" smooth="no"/>
      <point x="296" y="480" type="line" smooth="no"/>
      <point x="296" y="384" type="line" smooth="no"/>
      <point x="200" y="384" type="line" smooth="no"/>
      <point x="200" y="0" type="line" smooth="no"/>
    </contour>
  </outline>
</glyph>
<glyph name="h" format="1">
  <advance width="521"/>
  <unicode hex="0068"/>
  <outline>
    <contour>
      <point x="57" y="0" type="line" smooth="no"/>
      <point x="57" y="640" type="line" smooth="no"/>
      <point x="153" y="640" type="line" smooth="no"/>
      <point x="153" y="416" type="line" smooth="no"/>
      <point x="185" y="416" type="line" smooth="no"/>
      <point x="185" y="448" type="line" smooth="no"/>
      <point x="217" y="448" type="line" smooth="no"/>
      <point x="217" y="480" type="line" smooth="no"/>
      <point x="345" y="480" type="line" smooth="no"/>
      <point x="345" y="448" type="line" smooth="no"/>
      <point x="409" y="448" type="line" smooth="no"/>
      <point x="409" y="416" type="line" smooth="no"/>
      <point x="441" y="416" type="line" smooth="no"/>
      <point x="441" y="352" type="line" smooth="no"/>
      <point x="473" y="352" type="line" smooth="no"/>
      <point x="473" y="0" type="line" smooth="no"/>
      <point x="377" y="0" type="line" smooth="no"/>
      <point x="377" y="352" type="line" smooth="no"/>
      <point x="345" y="352" type="line" smooth="no"/>
      <point x="345" y="384" type="line" smooth="no"/>
      <point x="217" y="384" type="line" smooth="no"/>
      <point x="217" y="352" type="line" smooth="no"/>
      <point x="185" y="352" type="line" smooth="no"/>
      <point x="185" y="320" type="line" smooth="no"/>
      <point x="153" y="320" type="line" smooth="no"/>
      <point x="153" y="0" type="line" smooth="no"/>
    </contour>
  </outline>
</glyph>
<glyph name="i" format="1">
  <advance width="212"/>
  <unicode hex="0069"/>
  <outline>
    <contour>
      <point x="57" y="0" type="line" smooth="no"/>
      <point x="57" y="480" type="line" smooth="no"/>
      <point x="152.999" y="480" type="line" smooth="no"/>
      <point x="152.999" y="0" type="line" smooth="no"/>
    </contour>
    <contour>
      <point x="57" y="544" type="line" smooth="no"/>
      <point x="57" y="640" type="line" smooth="no"/>
      <point x="152.999" y="640" type="line" smooth="no"/>
      <point x="152.999" y="544" type="line" smooth="no"/>
    </contour>
  </outline>
</glyph>
<glyph name="j" format="1">
  <advance width="212"/>
  <unicode hex="006a"/>
  <outline>
    <contour>
      <point x="57" y="-192" type="line" smooth="no"/>
      <point x="57" y="480" type="line" smooth="no"/>
      <point x="153" y="480" type="line" smooth="no"/>
      <point x="153" y="-192" type="line" smooth="no"/>
    </contour>
    <contour>
      <point x="57" y="544" type="line" smooth="no"/>
      <point x="57" y="640" type="line" smooth="no"/>
      <point x="153" y="640" type="line" smooth="no"/>
      <point x="153" y="544" type="line" smooth="no"/>
    </contour>
  </outline>
</glyph>
<glyph name="k" format="1">
  <advance width="521"/>
  <unicode hex="006b"/>
  <outline>
    <contour>
      <point x="57" y="0" type="line" smooth="no"/>
      <point x="57" y="640" type="line" smooth="no"/>
      <point x="153" y="640" type="line" smooth="no"/>
      <point x="153" y="288" type="line" smooth="no"/>
      <point x="185" y="288" type="line" smooth="no"/>
      <point x="185" y="320" type="line" smooth="no"/>
      <point x="217" y="320" type="line" smooth="no"/>
      <point x="217" y="352" type="line" smooth="no"/>
      <point x="249" y="352" type="line" smooth="no"/>
      <point x="249" y="384" type="line" smooth="no"/>
      <point x="281" y="384" type="line" smooth="no"/>
      <point x="281" y="416" type="line" smooth="no"/>
      <point x="313" y="416" type="line" smooth="no"/>
      <point x="313" y="448" type="line" smooth="no"/>
      <point x="345" y="448" type="line" smooth="no"/>
      <point x="345" y="480" type="line" smooth="no"/>
      <point x="473" y="480" type="line" smooth="no"/>
      <point x="473" y="448" type="line" smooth="no"/>
      <point x="441" y="448" type="line" smooth="no"/>
      <point x="441" y="416" type="line" smooth="no"/>
      <point x="409" y="416" type="line" smooth="no"/>
      <point x="409" y="384" type="line" smooth="no"/>
      <point x="377" y="384" type="line" smooth="no"/>
      <point x="377" y="352" type="line" smooth="no"/>
      <point x="345" y="352" type="line" smooth="no"/>
      <point x="345" y="320" type="line" smooth="no"/>
      <point x="313" y="320" type="line" smooth="no"/>
      <point x="313" y="288" type="line" smooth="no"/>
      <point x="281" y="288" type="line" smooth="no"/>
      <point x="281" y="256" type="line" smooth="no"/>
      <point x="249" y="256" type="line" smooth="no"/>
      <point x="249" y="224" type="line" smooth="no"/>
      <point x="281" y="224" type="line" smooth="no"/>
      <point x="281" y="192" type="line" smooth="no"/>
      <point x="313" y="192" type="line" smooth="no"/>
      <point x="313" y="160" type="line" smooth="no"/>
      <point x="345" y="160" type="line" smooth="no"/>
      <point x="345" y="128" type="line" smooth="no"/>
      <point x="377" y="128" type="line" smooth="no"/>
      <point x="377" y="96" type="line" smooth="no"/>
      <point x="409" y="96" type="line" smooth="no"/>
      <point x="409" y="64" type="line" smooth="no"/>
      <point x="441" y="64" type="line" smooth="no"/>
      <point x="441" y="32" type="line" smooth="no"/>
      <point x="473" y="32" type="line" smooth="no"/>
      <point x="473" y="0" type="line" smooth="no"/>
      <point x="345" y="0" type="line" smooth="no"/>
      <point x="345" y="32" type="line" smooth="no"/>
      <point x="313" y="32" type="line" smooth="no"/>
      <point x="313" y="64" type="line" smooth="no"/>
      <point x="281" y="64" type="line" smooth="no"/>
      <point x="281" y="96" type="line" smooth="no"/>
      <point x="249" y="96" type="line" smooth="no"/>
      <point x="249" y="128" type="line" smooth="no"/>
      <point x="217" y="128" type="line" smooth="no"/>
      <point x="217" y="160" type="line" smooth="no"/>
      <point x="185" y="160" type="line" smooth="no"/>
      <point x="185" y="192" type="line" smooth="no"/>
      <point x="153" y="192" type="line" smooth="no"/>
      <point x="153" y="0" type="line" smooth="no"/>
    </contour>
  </outline>
</glyph>
<glyph name="l" format="1">
  <advance width="212"/>
  <unicode hex="006c"/>
  <outline>
    <contour>
      <point x="57" y="0" type="line" smooth="no"/>
      <point x="57" y="640" type="line" smooth="no"/>
      <point x="153" y="640" type="line" smooth="no"/>
      <point x="153" y="0" type="line" smooth="no"/>
    </contour>
  </outline>
</glyph>
<glyph name="m" format="1">
  <advance width="709"/>
  <unicode hex="006d"/>
  <outline>
    <contour>
      <point x="53" y="0" type="line" smooth="no"/>
      <point x="53" y="480" type="line" smooth="no"/>
      <point x="149" y="480" type="line" smooth="no"/>
      <point x="149" y="416" type="line" smooth="no"/>
      <point x="181" y="416" type="line" smooth="no"/>
      <point x="181" y="448" type="line" smooth="no"/>
      <point x="213" y="448" type="line" smooth="no"/>
      <point x="213" y="480" type="line" smooth="no"/>
      <point x="309" y="480" type="line" smooth="no"/>
      <point x="309" y="448" type="line" smooth="no"/>
      <point x="341" y="448" type="line" smooth="no"/>
      <point x="341" y="416" type="line" smooth="no"/>
      <point x="405" y="416" type="line" smooth="no"/>
      <point x="405" y="448" type="line" smooth="no"/>
      <point x="437" y="448" type="line" smooth="no"/>
      <point x="437" y="480" type="line" smooth="no"/>
      <point x="565" y="480" type="line" smooth="no"/>
      <point x="565" y="448" type="line" smooth="no"/>
      <point x="597" y="448" type="line" smooth="no"/>
      <point x="597" y="416" type="line" smooth="no"/>
      <point x="629" y="416" type="line" smooth="no"/>
      <point x="629" y="352" type="line" smooth="no"/>
      <point x="661" y="352" type="line" smooth="no"/>
      <point x="661" y="0" type="line" smooth="no"/>
      <point x="565" y="0" type="line" smooth="no"/>
      <point x="565" y="352" type="line" smooth="no"/>
      <point x="533" y="352" type="line" smooth="no"/>
      <point x="533" y="384" type="line" smooth="no"/>
      <point x="437" y="384" type="line" smooth="no"/>
      <point x="437" y="352" type="line" smooth="no"/>
      <point x="405" y="352" type="line" smooth="no"/>
      <point x="405" y="0" type="line" smooth="no"/>
      <point x="309" y="0" type="line" smooth="no"/>
      <point x="309" y="352" type="line" smooth="no"/>
      <point x="277" y="352" type="line" smooth="no"/>
      <point x="277" y="384" type="line" smooth="no"/>
      <point x="213" y="384" type="line" smooth="no"/>
      <point x="213" y="352" type="line" smooth="no"/>
      <point x="181" y="352" type="line" smooth="no"/>
      <point x="181" y="320" type="line" smooth="no"/>
      <point x="149" y="320" type="line" smooth="no"/>
      <point x="149" y="0" type="line" smooth="no"/>
    </contour>
  </outline>
</glyph>
<glyph name="n" format="1">
  <advance width="485"/>
  <unicode hex="006e"/>
  <outline>
    <contour>
      <point x="53" y="0" type="line" smooth="no"/>
      <point x="53" y="480" type="line" smooth="no"/>
      <point x="149" y="480" type="line" smooth="no"/>
      <point x="149" y="416" type="line" smooth="no"/>
      <point x="181" y="416" type="line" smooth="no"/>
      <point x="181" y="448" type="line" smooth="no"/>
      <point x="213" y="448" type="line" smooth="no"/>
      <point x="213" y="480" type="line" smooth="no"/>
      <point x="309" y="480" type="line" smooth="no"/>
      <point x="309" y="448" type="line" smooth="no"/>
      <point x="373" y="448" type="line" smooth="no"/>
      <point x="373" y="416" type="line" smooth="no"/>
      <point x="405" y="416" type="line" smooth="no"/>
      <point x="405" y="352" type="line" smooth="no"/>
      <point x="437" y="352" type="line" smooth="no"/>
      <point x="437" y="0" type="line" smooth="no"/>
      <point x="341" y="0" type="line" smooth="no"/>
      <point x="341" y="352" type="line" smooth="no"/>
      <point x="309" y="352" type="line" smooth="no"/>
      <point x="309" y="384" type="line" smooth="no"/>
      <point x="213" y="384" type="line" smooth="no"/>
      <point x="213" y="352" type="line" smooth="no"/>
      <point x="181" y="352" type="line" smooth="no"/>
      <point x="181" y="320" type="line" smooth="no"/>
      <point x="149" y="320" type="line" smooth="no"/>
      <point x="149" y="0" type="line" smooth="no"/>
    </contour>
  </outline>
</glyph>
<glyph name="p" format="1">
  <advance width="510"/>
  <unicode hex="0070"/>
  <outline>
    <contour>
      <point x="341" y="96" type="line" smooth="no"/>
      <point x="341" y="128" type="line" smooth="no"/>
      <point x="373" y="128" type="line" smooth="no"/>
      <point x="373" y="352" type="line" smooth="no"/>
      <point x="341" y="352" type="line" smooth="no"/>
      <point x="341" y="384" type="line" smooth="no"/>
      <point x="213" y="384" type="line" smooth="no"/>
      <point x="213" y="352" type="line" smooth="no"/>
      <point x="181" y="352" type="line" smooth="no"/>
      <point x="181" y="320" type="line" smooth="no"/>
      <point x="149" y="320" type="line" smooth="no"/>
      <point x="149" y="160" type="line" smooth="no"/>
      <point x="181" y="160" type="line" smooth="no"/>
      <point x="181" y="128" type="line" smooth="no"/>
      <point x="213" y="128" type="line" smooth="no"/>
      <point x="213" y="96" type="line" smooth="no"/>
    </contour>
    <contour>
      <point x="53" y="-192" type="line" smooth="no"/>
      <point x="53" y="480" type="line" smooth="no"/>
      <point x="149" y="480" type="line" smooth="no"/>
      <point x="149" y="416" type="line" smooth="no"/>
      <point x="181" y="416" type="line" smooth="no"/>
      <point x="181" y="448" type="line" smooth="no"/>
      <point x="213" y="448" type="line" smooth="no"/>
      <point x="213" y="480" type="line" smooth="no"/>
      <point x="341" y="480" type="line" smooth="no"/>
      <point x="341" y="448" type="line" smooth="no"/>
      <point x="405" y="448" type="line" smooth="no"/>
      <point x="405" y="416" type="line" smooth="no"/>
      <point x="437" y="416" type="line" smooth="no"/>
      <point x="437" y="352" type="line" smooth="no"/>
      <point x="469" y="352" type="line" smooth="no"/>
      <point x="469" y="128" type="line" smooth="no"/>
      <point x="437" y="128" type="line" smooth="no"/>
      <point x="437" y="64" type="line" smooth="no"/>
      <point x="405" y="64" type="line" smooth="no"/>
      <point x="405" y="32" type="line" smooth="no"/>
      <point x="341" y="32" type="line" smooth="no"/>
      <point x="341" y="0" type="line" smooth="no"/>
      <point x="213" y="0" type="line" smooth="no"/>
      <point x="213" y="32" type="line" smooth="no"/>
      <point x="181" y="32" type="line" smooth="no"/>
      <point x="181" y="64" type="line" smooth="no"/>
      <point x="149" y="64" type="line" smooth="no"/>
      <point x="149" y="-192" type="line" smooth="no"/>
    </contour>
  </outline>
</glyph>
<glyph name="r" format="1">
  <advance width="434"/>
  <unicode hex="0072"/>
  <outline>
    <contour>
      <point x="53" y="0" type="line" smooth="no"/>
      <point x="53" y="480" type="line" smooth="no"/>
      <point x="149" y="480" type="line" smooth="no"/>
      <point x="149" y="416" type="line" smooth="no"/>
      <point x="181" y="416" type="line" smooth="no"/>
      <point x="181" y="448" type="line" smooth="no"/>
      <point x="213" y="448" type="line" smooth="no"/>
      <point x="213" y="480" type="line" smooth="no"/>
      <point x="341" y="480" type="line" smooth="no"/>
      <point x="341" y="448" type="line" smooth="no"/>
      <point x="373" y="448" type="line" smooth="no"/>
      <point x="373" y="416" type="line" smooth="no"/>
      <point x="405" y="416" type="line" smooth="no"/>
      <point x="405" y="352" type="line" smooth="no"/>
      <point x="373" y="352" type="line" smooth="no"/>
      <point x="373" y="320" type="line" smooth="no"/>
      <point x="341" y="320" type="line" smooth="no"/>
      <point x="341" y="352" type="line" smooth="no"/>
      <point x="309" y="352" type="line" smooth="no"/>
      <point x="309" y="384" type="line" smooth="no"/>
      <point x="213" y="384" type="line" smooth="no"/>
      <point x="213" y="352" type="line" smooth="no"/>
      <point x="181" y="352" type="line" smooth="no"/>
      <point x="181" y="320" type="line" smooth="no"/>
      <point x="149" y="320" type="line" smooth="no"/>
      <point x="149" y="0" type="line" smooth="no"/>
    </contour>
  </outline>
</glyph>
<glyph name="s" format="1">
  <advance width="411"/>
  <unicode hex="0073"/>
  <outline>
    <contour>
      <point x="112" y="0" type="line" smooth="no"/>
      <point x="112" y="32" type="line" smooth="no"/>
      <point x="80" y="32" type="line" smooth="no"/>
      <point x="80" y="64" type="line" smooth="no"/>
      <point x="48" y="64" type="line" smooth="no"/>
      <point x="48" y="128" type="line" smooth="no"/>
      <point x="80" y="128" type="line" smooth="no"/>
      <point x="80" y="160" type="line" smooth="no"/>
      <point x="112" y="160" type="line" smooth="no"/>
      <point x="112" y="128" type="line" smooth="no"/>
      <point x="144" y="128" type="line" smooth="no"/>
      <point x="144" y="96" type="line" smooth="no"/>
      <point x="176" y="96" type="line" smooth="no"/>
      <point x="176" y="64" type="line" smooth="no"/>
      <point x="240" y="64" type="line" smooth="no"/>
      <point x="240" y="96" type="line" smooth="no"/>
      <point x="272" y="96" type="line" smooth="no"/>
      <point x="272" y="160" type="line" smooth="no"/>
      <point x="240" y="160" type="line" smooth="no"/>
      <point x="240" y="192" type="line" smooth="no"/>
      <point x="208" y="192" type="line" smooth="no"/>
      <point x="208" y="224" type="line" smooth="no"/>
      <point x="144" y="224" type="line" smooth="no"/>
      <point x="144" y="256" type="line" smooth="no"/>
      <point x="112" y="256" type="line" smooth="no"/>
      <point x="112" y="288" type="line" smooth="no"/>
      <point x="80" y="288" type="line" smooth="no"/>
      <point x="80" y="320" type="line" smooth="no"/>
      <point x="48" y="320" type="line" smooth="no"/>
      <point x="48" y="416" type="line" smooth="no"/>
      <point x="80" y="416" type="line" smooth="no"/>
      <point x="80" y="448" type="line" smooth="no"/>
      <point x="112" y="448" type="line" smooth="no"/>
      <point x="112" y="480" type="line" smooth="no"/>
      <point x="304" y="480" type="line" smooth="no"/>
      <point x="304" y="448" type="line" smooth="no"/>
      <point x="336" y="448" type="line" smooth="no"/>
      <point x="336" y="352" type="line" smooth="no"/>
      <point x="272" y="352" type="line" smooth="no"/>
      <point x="272" y="384" type="line" smooth="no"/>
      <point x="240" y="384" type="line" smooth="no"/>
      <point x="240" y="416" type="line" smooth="no"/>
      <point x="176" y="416" type="line" smooth="no"/>
      <point x="176" y="384" type="line" smooth="no"/>
      <point x="144" y="384" type="line" smooth="no"/>
      <point x="144" y="352" type="line" smooth="no"/>
      <point x="176" y="352" type="line" smooth="no"/>
      <point x="176" y="320" type="line" smooth="no"/>
      <point x="208" y="320" type="line" smooth="no"/>
      <point x="208" y="288" type="line" smooth="no"/>
      <point x="272" y="288" type="line" smooth="no"/>
      <point x="272" y="256" type="line" smooth="no"/>
      <point x="304" y="256" type="line" smooth="no"/>
      <point x="304" y="224" type="line" smooth="no"/>
      <point x="336" y="224" type="line" smooth="no"/>
      <point x="336" y="192" type="line" smooth="no"/>
      <point x="368" y="192" type="line" smooth="no"/>
      <point x="368" y="64" type="line" smooth="no"/>
      <point x="336" y="64" type="line" smooth="no"/>
      <point x="336" y="32" type="line" smooth="no"/>
      <point x="304" y="32" type="line" smooth="no"/>
      <point x="304" y="0" type="line" smooth="no"/>
    </contour>
  </outline>
</glyph>
<glyph name="t" format="1">
  <advance width="361"/>
  <unicode hex="0074"/>
  <outline>
    <contour>
      <point x="104" y="0" type="line" smooth="no"/>
      <point x="104" y="384" type="line" smooth="no"/>
      <point x="40" y="384" type="line" smooth="no"/>
      <point x="40" y="480" type="line" smooth="no"/>
      <point x="104" y="480" type="line" smooth="no"/>
      <point x="104" y="608" type="line" smooth="no"/>
      <point x="200" y="608" type="line" smooth="no"/>
      <point x="200" y="480" type="line" smooth="no"/>
      <point x="328" y="480" type="line" smooth="no"/>
      <point x="328" y="384" type="line" smooth="no"/>
      <point x="200" y="384" type="line" smooth="no"/>
      <point x="200" y="0" type="line" smooth="no"/>
    </contour>
  </outline>
</glyph>
<glyph name="u" format="1">
  <advance width="487"/>
  <unicode hex="0075"/>
  <outline>
    <contour>
      <point x="116" y="0" type="line" smooth="no"/>
      <point x="116" y="32" type="line" smooth="no"/>
      <point x="84" y="32" type="line" smooth="no"/>
      <point x="84" y="64" type="line" smooth="no"/>
      <point x="52" y="64" type="line" smooth="no"/>
      <point x="52" y="480" type="line" smooth="no"/>
      <point x="148" y="480" type="line" smooth="no"/>
      <point x="148" y="128" type="line" smooth="no"/>
      <point x="180" y="128" type="line" smooth="no"/>
      <point x="180" y="96" type="line" smooth="no"/>
      <point x="276" y="96" type="line" smooth="no"/>
      <point x="276" y="128" type="line" smooth="no"/>
      <point x="308" y="128" type="line" smooth="no"/>
      <point x="308" y="160" type="line" smooth="no"/>
      <point x="340" y="160" type="line" smooth="no"/>
      <point x="340" y="480" type="line" smooth="no"/>
      <point x="436" y="480" type="line" smooth="no"/>
      <point x="436" y="0" type="line" smooth="no"/>
      <point x="340" y="0" type="line" smooth="no"/>
      <point x="340" y="64" type="line" smooth="no"/>
      <point x="308" y="64" type="line" smooth="no"/>
      <point x="308" y="32" type="line" smooth="no"/>
      <point x="276" y="32" type="line" smooth="no"/>
      <point x="276" y="0" type="line" smooth="no"/>
    </contour>
  </outline>
</glyph>
<glyph name="v" format="1">
  <advance width="492"/>
  <unicode hex="0076"/>
  <outline>
    <contour>
      <point x="166" y="0" type="line" smooth="no"/>
      <point x="166" y="64" type="line" smooth="no"/>
      <point x="134" y="64" type="line" smooth="no"/>
      <point x="134" y="160" type="line" smooth="no"/>
      <point x="102" y="160" type="line" smooth="no"/>
      <point x="102" y="288" type="line" smooth="no"/>
      <point x="70" y="288" type="line" smooth="no"/>
      <point x="70" y="384" type="line" smooth="no"/>
      <point x="38" y="384" type="line" smooth="no"/>
      <point x="38" y="480" type="line" smooth="no"/>
      <point x="134" y="480" type="line" smooth="no"/>
      <point x="134" y="416" type="line" smooth="no"/>
      <point x="166" y="416" type="line" smooth="no"/>
      <point x="166" y="288" type="line" smooth="no"/>
      <point x="198" y="288" type="line" smooth="no"/>
      <point x="198" y="192" type="line" smooth="no"/>
      <point x="230" y="192" type="line" smooth="no"/>
      <point x="230" y="96" type="line" smooth="no"/>
      <point x="262" y="96" type="line" smooth="no"/>
      <point x="262" y="192" type="line" smooth="no"/>
      <point x="294" y="192" type="line" smooth="no"/>
      <point x="294" y="288" type="line" smooth="no"/>
      <point x="326" y="288" type="line" smooth="no"/>
      <point x="326" y="416" type="line" smooth="no"/>
      <point x="358" y="416" type="line" smooth="no"/>
      <point x="358" y="480" type="line" smooth="no"/>
      <point x="454" y="480" type="line" smooth="no"/>
      <point x="454" y="384" type="line" smooth="no"/>
      <point x="422" y="384" type="line" smooth="no"/>
      <point x="422" y="288" type="line" smooth="no"/>
      <point x="390" y="288" type="line" smooth="no"/>
      <point x="390" y="160" type="line" smooth="no"/>
      <point x="358" y="160" type="line" smooth="no"/>
      <point x="358" y="64" type="line" smooth="no"/>
      <point x="326" y="64" type="line" smooth="no"/>
      <point x="326" y="0" type="line" smooth="no"/>
    </contour>
  </outline>
</glyph>
<glyph name="w" format="1">
  <advance width="684"/>
  <unicode hex="0077"/>
  <outline>
    <contour>
      <point x="390" y="288" type="line" smooth="no"/>
      <point x="390" y="192" type="line" smooth="no"/>
      <point x="422" y="192" type="line" smooth="no"/>
      <point x="422" y="96" type="line" smooth="no"/>
      <point x="454" y="96" type="line" smooth="no"/>
      <point x="454" y="192" type="line" smooth="no"/>
      <point x="486" y="192" type="line" smooth="no"/>
      <point x="486" y="288" type="line" smooth="no"/>
      <point x="518" y="288" type="line" smooth="no"/>
      <point x="518" y="384" type="line" smooth="no"/>
      <point x="550" y="384" type="line" smooth="no"/>
      <point x="550" y="480" type="line" smooth="no"/>
      <point x="646" y="480" type="line" smooth="no"/>
      <point x="646" y="384" type="line" smooth="no"/>
      <point x="614" y="384" type="line" smooth="no"/>
      <point x="614" y="288" type="line" smooth="no"/>
      <point x="582" y="288" type="line" smooth="no"/>
      <point x="582" y="160" type="line" smooth="no"/>
      <point x="550" y="160" type="line" smooth="no"/>
      <point x="550" y="64" type="line" smooth="no"/>
      <point x="518" y="64" type="line" smooth="no"/>
      <point x="518" y="0" type="line" smooth="no"/>
      <point x="390" y="0" type="line" smooth="no"/>
      <point x="390" y="64" type="line" smooth="no"/>
      <point x="358" y="64" type="line" smooth="no"/>
      <point x="358" y="160" type="line" smooth="no"/>
      <point x="326" y="160" type="line" smooth="no"/>
      <point x="326" y="64" type="line" smooth="no"/>
      <point x="294" y="64" type="line" smooth="no"/>
      <point x="294" y="0" type="line" smooth="no"/>
      <point x="166" y="0" type="line" smooth="no"/>
      <point x="166" y="64" type="line" smooth="no"/>
      <point x="134" y="64" type="line" smooth="no"/>
      <point x="134" y="160" type="line" smooth="no"/>
      <point x="102" y="160" type="line" smooth="no"/>
      <point x="102" y="288" type="line" smooth="no"/>
      <point x="70" y="288" type="line" smooth="no"/>
      <point x="70" y="384" type="line" smooth="no"/>
      <point x="38" y="384" type="line" smooth="no"/>
      <point x="38" y="480" type="line" smooth="no"/>
      <point x="134" y="480" type="line" smooth="no"/>
      <point x="134" y="384" type="line" smooth="no"/>
      <point x="166" y="384" type="line" smooth="no"/>
      <point x="166" y="288" type="line" smooth="no"/>
      <point x="198" y="288" type="line" smooth="no"/>
      <point x="198" y="192" type="line" smooth="no"/>
      <point x="230" y="192" type="line" smooth="no"/>
      <point x="230" y="96" type="line" smooth="no"/>
      <point x="262" y="96" type="line" smooth="no"/>
      <point x="262" y="192" type="line" smooth="no"/>
      <point x="294" y="192" type="line" smooth="no"/>
      <point x="294" y="288" type="line" smooth="no"/>
      <point x="326" y="288" type="line" smooth="no"/>
      <point x="326" y="352" type="line" smooth="no"/>
      <point x="358" y="352" type="line" smooth="no"/>
      <point x="358" y="288" type="line" smooth="no"/>
    </contour>
  </outline>
</glyph>
<glyph name="x" format="1">
  <advance width="485"/>
  <unicode hex="0078"/>
  <outline>
    <contour>
      <point x="51" y="0" type="line" smooth="no"/>
      <point x="51" y="96" type="line" smooth="no"/>
      <point x="83" y="96" type="line" smooth="no"/>
      <point x="83" y="128" type="line" smooth="no"/>
      <point x="115" y="128" type="line" smooth="no"/>
      <point x="115" y="160" type="line" smooth="no"/>
      <point x="147" y="160" type="line" smooth="no"/>
      <point x="147" y="192" type="line" smooth="no"/>
      <point x="179" y="192" type="line" smooth="no"/>
      <point x="179" y="224" type="line" smooth="no"/>
      <point x="211" y="224" type="line" smooth="no"/>
      <point x="211" y="256" type="line" smooth="no"/>
      <point x="179" y="256" type="line" smooth="no"/>
      <point x="179" y="288" type="line" smooth="no"/>
      <point x="147" y="288" type="line" smooth="no"/>
      <point x="147" y="320" type="line" smooth="no"/>
      <point x="115" y="320" type="line" smooth="no"/>
      <point x="115" y="352" type="line" smooth="no"/>
      <point x="83" y="352" type="line" smooth="no"/>
      <point x="83" y="384" type="line" smooth="no"/>
      <point x="51" y="384" type="line" smooth="no"/>
      <point x="51" y="480" type="line" smooth="no"/>
      <point x="115" y="480" type="line" smooth="no"/>
      <point x="115" y="448" type="line" smooth="no"/>
      <point x="147" y="448" type="line" smooth="no"/>
      <point x="147" y="416" type="line" smooth="no"/>
      <point x="179" y="416" type="line" smooth="no"/>
      <point x="179" y="384" type="line" smooth="no"/>
      <point x="211" y="384" type="line" smooth="no"/>
      <point x="211" y="320" type="line" smooth="no"/>
      <point x="275" y="320" type="line" smooth="no"/>
      <point x="275" y="384" type="line" smooth="no"/>
      <point x="307" y="384" type="line" smooth="no"/>
      <point x="307" y="416" type="line" smooth="no"/>
      <point x="339" y="416" type="line" smooth="no"/>
      <point x="339" y="448" type="line" smooth="no"/>
      <point x="371" y="448" type="line" smooth="no"/>
      <point x="371" y="480" type="line" smooth="no"/>
      <point x="435" y="480" type="line" smooth="no"/>
      <point x="435" y="384" type="line" smooth="no"/>
      <point x="403" y="384" type="line" smooth="no"/>
      <point x="403" y="352" type="line" smooth="no"/>
      <point x="371" y="352" type="line" smooth="no"/>
      <point x="371" y="320" type="line" smooth="no"/>
      <point x="339" y="320" type="line" smooth="no"/>
      <point x="339" y="288" type="line" smooth="no"/>
      <point x="307" y="288" type="line" smooth="no"/>
      <point x="307" y="256" type="line" smooth="no"/>
      <point x="275" y="256" type="line" smooth="no"/>
      <point x="275" y="224" type="line" smooth="no"/>
      <point x="307" y="224" type="line" smooth="no"/>
      <point x="307" y="192" type="line" smooth="no"/>
      <point x="339" y="192" type="line" smooth="no"/>
      <point x="339" y="160" type="line" smooth="no"/>
      <point x="371" y="160" type="line" smooth="no"/>
      <point x="371" y="128" type="line" smooth="no"/>
      <point x="403" y="128" type="line" smooth="no"/>
      <point x="403" y="96" type="line" smooth="no"/>
      <point x="435" y="96" type="line" smooth="no"/>
      <point x="435" y="0" type="line" smooth="no"/>
      <point x="371" y="0" type="line" smooth="no"/>
      <point x="371" y="32" type="line" smooth="no"/>
      <point x="339" y="32" type="line" smooth="no"/>
      <point x="339" y="64" type="line" smooth="no"/>
      <point x="307" y="64" type="line" smooth="no"/>
      <point x="307" y="96" type="line" smooth="no"/>
      <point x="275" y="96" type="line" smooth="no"/>
      <point x="275" y="160" type="line" smooth="no"/>
      <point x="211" y="160" type="line" smooth="no"/>
      <point x="211" y="96" type="line" smooth="no"/>
      <point x="179" y="96" type="line" smooth="no"/>
      <point x="179" y="64" type="line" smooth="no"/>
      <point x="147" y="64" type="line" smooth="no"/>
      <point x="147" y="32" type="line" smooth="no"/>
      <point x="115" y="32" type="line" smooth="no"/>
      <point x="115" y="0" type="line" smooth="no"/>
    </contour>
  </outline>
</glyph>
<glyph name="y" format="1">
  <advance width="460"/>
  <unicode hex="0079"/>
  <outline>
    <contour>
      <point x="134" y="-192" type="line" smooth="no"/>
      <point x="134" y="-96" type="line" smooth="no"/>
      <point x="166" y="-96" type="line" smooth="no"/>
      <point x="166" y="0" type="line" smooth="no"/>
      <point x="198" y="0" type="line" smooth="no"/>
      <point x="198" y="64" type="line" smooth="no"/>
      <point x="166" y="64" type="line" smooth="no"/>
      <point x="166" y="128" type="line" smooth="no"/>
      <point x="134" y="128" type="line" smooth="no"/>
      <point x="134" y="192" type="line" smooth="no"/>
      <point x="102" y="192" type="line" smooth="no"/>
      <point x="102" y="288" type="line" smooth="no"/>
      <point x="70" y="288" type="line" smooth="no"/>
      <point x="70" y="384" type="line" smooth="no"/>
      <point x="38" y="384" type="line" smooth="no"/>
      <point x="38" y="480" type="line" smooth="no"/>
      <point x="134" y="480" type="line" smooth="no"/>
      <point x="134" y="384" type="line" smooth="no"/>
      <point x="166" y="384" type="line" smooth="no"/>
      <point x="166" y="288" type="line" smooth="no"/>
      <point x="198" y="288" type="line" smooth="no"/>
      <point x="198" y="192" type="line" smooth="no"/>
      <point x="230" y="192" type="line" smooth="no"/>
      <point x="230" y="160" type="line" smooth="no"/>
      <point x="262" y="160" type="line" smooth="no"/>
      <point x="262" y="288" type="line" smooth="no"/>
      <point x="294" y="288" type="line" smooth="no"/>
      <point x="294" y="384" type="line" smooth="no"/>
      <point x="326" y="384" type="line" smooth="no"/>
      <point x="326" y="480" type="line" smooth="no"/>
      <point x="422" y="480" type="line" smooth="no"/>
      <point x="422" y="384" type="line" smooth="no"/>
      <point x="390" y="384" type="line" smooth="no"/>
      <point x="390" y="288" type="line" smooth="no"/>
      <point x="358" y="288" type="line" smooth="no"/>
      <point x="358" y="192" type="line" smooth="no"/>
      <point x="326" y="192" type="line" smooth="no"/>
      <point x="326" y="96" type="line" smooth="no"/>
      <point x="294" y="96" type="line" smooth="no"/>
      <point x="294" y="0" type="line" smooth="no"/>
      <point x="262" y="0" type="line" smooth="no"/>
      <point x="262" y="-96" type="line" smooth="no"/>
      <point x="230" y="-96" type="line" smooth="no"/>
      <point x="230" y="-192" type="line" smooth="no"/>
    </contour>
  </outline>
</glyph>
<glyph name="z" format="1">
  <advance width="516"/>
  <unicode hex="007a"/>
  <outline>
    <contour>
      <point x="50" y="0" type="line" smooth="no"/>
      <point x="50" y="96" type="line" smooth="no"/>
      <point x="82" y="96" type="line" smooth="no"/>
      <point x="82" y="128" type="line" smooth="no"/>
      <point x="114" y="128" type="line" smooth="no"/>
      <point x="114" y="160" type="line" smooth="no"/>
      <point x="146" y="160" type="line" smooth="no"/>
      <point x="146" y="192" type="line" smooth="no"/>
      <point x="178" y="192" type="line" smooth="no"/>
      <point x="178" y="224" type="line" smooth="no"/>
      <point x="210" y="224" type="line" smooth="no"/>
      <point x="210" y="256" type="line" smooth="no"/>
      <point x="242" y="256" type="line" smooth="no"/>
      <point x="242" y="288" type="line" smooth="no"/>
      <point x="274" y="288" type="line" smooth="no"/>
      <point x="274" y="320" type="line" smooth="no"/>
      <point x="306" y="320" type="line" smooth="no"/>
      <point x="306" y="352" type="line" smooth="no"/>
      <point x="338" y="352" type="line" smooth="no"/>
      <point x="338" y="384" type="line" smooth="no"/>
      <point x="50" y="384" type="line" smooth="no"/>
      <point x="50" y="480" type="line" smooth="no"/>
      <point x="466" y="480" type="line" smooth="no"/>
      <point x="466" y="384" type="line" smooth="no"/>
      <point x="434" y="384" type="line" smooth="no"/>
      <point x="434" y="352" type="line" smooth="no"/>
      <point x="402" y="352" type="line" smooth="no"/>
      <point x="402" y="320" type="line" smooth="no"/>
      <point x="370" y="320" type="line" smooth="no"/>
      <point x="370" y="288" type="line" smooth="no"/>
      <point x="338" y="288" type="line" smooth="no"/>
      <point x="338" y="256" type="line" smooth="no"/>
      <point x="306" y="256" type="line" smooth="no"/>
      <point x="306" y="224" type="line" smooth="no"/>
      <point x="274" y="224" type="line" smooth="no"/>
      <point x="274" y="192" type="line" smooth="no"/>
      <point x="242" y="192" type="line" smooth="no"/>
      <point x="242" y="160" type="line" smooth="no"/>
      <point x="210" y="160" type="line" smooth="no"/>
      <point x="210" y="128" type="line" smooth="no"/>
      <point x="178" y="128" type="line" smooth="no"/>
      <point x="178" y="96" type="line" smooth="no"/>
      <point x="466" y="96" type="line" smooth="no"/>
      <point x="466" y="0" type="line" smooth="no"/>
    </contour>
  </outline>
</glyph>
<glyph name="braceleft" format="1">
  <advance width="357"/>
  <unicode hex="007b"/>
  <outline>
    <contour>
      <point x="164" y="-96" type="line" smooth="no"/>
      <point x="164" y="-64" type="line" smooth="no"/>
      <point x="132" y="-64" type="line" smooth="no"/>
      <point x="132" y="-32" type="line" smooth="no"/>
      <point x="100" y="-32" type="line" smooth="no"/>
      <point x="100" y="288" type="line" smooth="no"/>
      <point x="68" y="288" type="line" smooth="no"/>
      <point x="68" y="320" type="line" smooth="no"/>
      <point x="36" y="320" type="line" smooth="no"/>
      <point x="36" y="352" type="line" smooth="no"/>
      <point x="68" y="352" type="line" smooth="no"/>
      <point x="68" y="384" type="line" smooth="no"/>
      <point x="100" y="384" type="line" smooth="no"/>
      <point x="100" y="672" type="line" smooth="no"/>
      <point x="132" y="672" type="line" smooth="no"/>
      <point x="132" y="704" type="line" smooth="no"/>
      <point x="164" y="704" type="line" smooth="no"/>
      <point x="164" y="736" type="line" smooth="no"/>
      <point x="292" y="736" type="line" smooth="no"/>
      <point x="292" y="704" type="line" smooth="no"/>
      <point x="228" y="704" type="line" smooth="no"/>
      <point x="228" y="672" type="line" smooth="no"/>
      <point x="196" y="672" type="line" smooth="no"/>
      <point x="196" y="416" type="line" smooth="no"/>
      <point x="164" y="416" type="line" smooth="no"/>
      <point x="164" y="384" type="line" smooth="no"/>
      <point x="132" y="384" type="line" smooth="no"/>
      <point x="132" y="352" type="line" smooth="no"/>
      <point x="100" y="352" type="line" smooth="no"/>
      <point x="100" y="320" type="line" smooth="no"/>
      <point x="132" y="320" type="line" smooth="no"/>
      <point x="132" y="288" type="line" smooth="no"/>
      <point x="164" y="288" type="line" smooth="no"/>
      <point x="164" y="256" type="line" smooth="no"/>
      <point x="196" y="256" type="line" smooth="no"/>
      <point x="196" y="-32" type="line" smooth="no"/>
      <point x="228" y="-32" type="line" smooth="no"/>
      <point x="228" y="-64" type="line" smooth="no"/>
      <point x="292" y="-64" type="line" smooth="no"/>
      <point x="292" y="-96" type="line" smooth="no"/>
    </contour>
  </outline>
</glyph>
<glyph name="bar" format="1">
  <advance width="187"/>
  <unicode hex="007c"/>
  <outline>
    <contour>
      <point x="58" y="-96" type="line" smooth="no"/>
      <point x="58" y="736" type="line" smooth="no"/>
      <point x="122" y="736" type="line" smooth="no"/>
      <point x="122" y="-96" type="line" smooth="no"/>
    </contour>
  </outline>
</glyph>
<glyph name="braceright" format="1">
  <advance width="283"/>
  <unicode hex="007d"/>
  <outline>
    <contour>
      <point x="-10" y="-96" type="line" smooth="no"/>
      <point x="-10" y="-64" type="line" smooth="no"/>
      <point x="54" y="-64" type="line" smooth="no"/>
      <point x="54" y="-32" type="line" smooth="no"/>
      <point x="86" y="-32" type="line" smooth="no"/>
      <point x="86" y="256" type="line" smooth="no"/>
      <point x="118" y="256" type="line" smooth="no"/>
      <point x="118" y="288" type="line" smooth="no"/>
      <point x="150" y="288" type="line" smooth="no"/>
      <point x="150" y="320" type="line" smooth="no"/>
      <point x="182" y="320" type="line" smooth="no"/>
      <point x="182" y="352" type="line" smooth="no"/>
      <point x="150" y="352" type="line" smooth="no"/>
      <point x="150" y="384" type="line" smooth="no"/>
      <point x="118" y="384" type="line" smooth="no"/>
      <point x="118" y="416" type="line" smooth="no"/>
      <point x="86" y="416" type="line" smooth="no"/>
      <point x="86" y="672" type="line" smooth="no"/>
      <point x="54" y="672" type="line" smooth="no"/>
      <point x="54" y="704" type="line" smooth="no"/>
      <point x="-10" y="704" type="line" smooth="no"/>
      <point x="-10" y="736" type="line" smooth="no"/>
      <point x="118" y="736" type="line" smooth="no"/>
      <point x="118" y="704" type="line" smooth="no"/>
      <point x="150" y="704" type="line" smooth="no"/>
      <point x="150" y="672" type="line" smooth="no"/>
      <point x="182" y="672" type="line" smooth="no"/>
      <point x="182" y="384" type="line" smooth="no"/>
      <point x="214" y="384" type="line" smooth="no"/>
      <point x="214" y="352" type="line" smooth="no"/>
      <point x="246" y="352" type="line" smooth="no"/>
      <point x="246" y="320" type="line" smooth="no"/>
      <point x="214" y="320" type="line" smooth="no"/>
      <point x="214" y="288" type="line" smooth="no"/>
      <point x="182" y="288" type="line" smooth="no"/>
      <point x="182" y="-32" type="line" smooth="no"/>
      <point x="150" y="-32" type="line" smooth="no"/>
      <point x="150" y="-64" type="line" smooth="no"/>
      <point x="118" y="-64" type="line" smooth="no"/>
      <point x="118" y="-96" type="line" smooth="no"/>
    </contour>
  </outline>
</glyph>
<glyph name="asciitilde" format="1">
  <advance width="457"/>
  <unicode hex="007e"/>
  <outline>
    <contour>
      <point x="35" y="256" type="line" smooth="no"/>
      <point x="35" y="352" type="line" smooth="no"/>
      <point x="67" y="352" type="line" smooth="no"/>
      <point x="67" y="384" type="line" smooth="no"/>
      <point x="99" y="384" type="line" smooth="no"/>
      <point x="99" y="416" type="line" smooth="no"/>
      <point x="195" y="416" type="line" smooth="no"/>
      <point x="195" y="384" type="line" smooth="no"/>
      <point x="259" y="384" type="line" smooth="no"/>
      <point x="259" y="352" type="line" smooth="no"/>
      <point x="355" y="352" type="line" smooth="no"/>
      <point x="355" y="384" type="line" smooth="no"/>
      <point x="387" y="384" type="line" smooth="no"/>
      <point x="387" y="416" type="line" smooth="no"/>
      <point x="419" y="416" type="line" smooth="no"/>
      <point x="419" y="320" type="line" smooth="no"/>
      <point x="387" y="320" type="line" smooth="no"/>
      <point x="387" y="288" type="line" smooth="no"/>
      <point x="355" y="288" type="line" smooth="no"/>
      <point x="355" y="256" type="line" smooth="no"/>
      <point x="259" y="256" type="line" smooth="no"/>
      <point x="259" y="288" type="line" smooth="no"/>
      <point x="195" y="288" type="line" smooth="no"/>
      <point x="195" y="320" type="line" smooth="no"/>
      <point x="99" y="320" type="line" smooth="no"/>
      <point x="99" y="288" type="line" smooth="no"/>
      <point x="67" y="288" type="line" smooth="no"/>
      <point x="67" y="256" type="line" smooth="no"/>
    </contour>
  </outline>
</glyph>
<glyph name="exclamdown" format="1">
  <advance width="212"/>
  <unicode hex="00a1"/>
  <outline>
    <contour>
      <point x="57" y="0" type="line" smooth="no"/>
      <point x="57" y="448" type="line" smooth="no"/>
      <point x="153" y="448" type="line" smooth="no"/>
      <point x="153" y="0" type="line" smooth="no"/>
    </contour>
    <contour>
      <point x="57" y="544" type="line" smooth="no"/>
      <point x="57" y="640" type="line" smooth="no"/>
      <point x="153" y="640" type="line" smooth="no"/>
      <point x="153" y="544" type="line" smooth="no"/>
    </contour>
  </outline>
</glyph>
<glyph name="sterling" format="1">
  <advance width="604"/>
  <unicode hex="00a3"/>
  <outline>
    <contour>
      <point x="161" y="64" type="line" smooth="no"/>
      <point x="161" y="128" type="line" smooth="no"/>
      <point x="129" y="128" type="line" smooth="no"/>
      <point x="129" y="160" type="line" smooth="no"/>
      <point x="65" y="160" type="line" smooth="no"/>
      <point x="65" y="64" type="line" smooth="no"/>
    </contour>
    <contour>
      <point x="65" y="0" type="line" smooth="no"/>
      <point x="65" y="32" type="line" smooth="no"/>
      <point x="33" y="32" type="line" smooth="no"/>
      <point x="33" y="192" type="line" smooth="no"/>
      <point x="65" y="192" type="line" smooth="no"/>
      <point x="65" y="224" type="line" smooth="no"/>
      <point x="161" y="224" type="line" smooth="no"/>
      <point x="161" y="192" type="line" smooth="no"/>
      <point x="193" y="192" type="line" smooth="no"/>
      <point x="193" y="320" type="line" smooth="no"/>
      <point x="65" y="320" type="line" smooth="no"/>
      <point x="65" y="384" type="line" smooth="no"/>
      <point x="193" y="384" type="line" smooth="no"/>
      <point x="193" y="576" type="line" smooth="no"/>
      <point x="225" y="576" type="line" smooth="no"/>
      <point x="225" y="608" type="line" smooth="no"/>
      <point x="257" y="608" type="line" smooth="no"/>
      <point x="257" y="640" type="line" smooth="no"/>
      <point x="481" y="640" type="line" smooth="no"/>
      <point x="481" y="608" type="line" smooth="no"/>
      <point x="513" y="608" type="line" smooth="no"/>
      <point x="513" y="576" type="line" smooth="no"/>
      <point x="545" y="576" type="line" smooth="no"/>
      <point x="545" y="512" type="line" smooth="no"/>
      <point x="449" y="512" type="line" smooth="no"/>
      <point x="449" y="544" type="line" smooth="no"/>
      <point x="417" y="544" type="line" smooth="no"/>
      <point x="417" y="576" type="line" smooth="no"/>
      <point x="321" y="576" type="line" smooth="no"/>
      <point x="321" y="544" type="line" smooth="no"/>
      <point x="289" y="544" type="line" smooth="no"/>
      <point x="289" y="384" type="line" smooth="no"/>
      <point x="481" y="384" type="line" smooth="no"/>
      <point x="481" y="320" type="line" smooth="no"/>
      <point x="289" y="320" type="line" smooth="no"/>
      <point x="289" y="128" type="line" smooth="no"/>
      <point x="321" y="128" type="line" smooth="no"/>
      <point x="321" y="96" type="line" smooth="no"/>
      <point x="353" y="96" type="line" smooth="no"/>
      <point x="353" y="64" type="line" smooth="no"/>
      <point x="417" y="64" type="line" smooth="no"/>
      <point x="417" y="96" type="line" smooth="no"/>
      <point x="449" y="96" type="line" smooth="no"/>
      <point x="449" y="128" type="line" smooth="no"/>
      <point x="481" y="128" type="line" smooth="no"/>
      <point x="481" y="160" type="line" smooth="no"/>
      <point x="545" y="160" type="line" smooth="no"/>
      <point x="545" y="64" type="line" smooth="no"/>
      <point x="513" y="64" type="line" smooth="no"/>
      <point x="513" y="32" type="line" smooth="no"/>
      <point x="481" y="32" type="line" smooth="no"/>
      <point x="481" y="0" type="line" smooth="no"/>
      <point x="289" y="0" type="line" smooth="no"/>
      <point x="289" y="32" type="line" smooth="no"/>
      <point x="257" y="32" type="line" smooth="no"/>
      <point x="257" y="64" type="line" smooth="no"/>
      <point x="225" y="64" type="line" smooth="no"/>
      <point x="225" y="32" type="line" smooth="no"/>
      <point x="193" y="32" type="line" smooth="no"/>
      <point x="193" y="0" type="line" smooth="no"/>
    </contour>
  </outline>
</glyph>
<glyph name="currency" format="1">
  <advance width="609"/>
  <unicode hex="00a4"/>
  <outline>
    <contour>
      <point x="401" y="96" type="line" smooth="no"/>
      <point x="401" y="128" type="line" smooth="no"/>
      <point x="433" y="128" type="line" smooth="no"/>
      <point x="433" y="160" type="line" smooth="no"/>
      <point x="465" y="160" type="line" smooth="no"/>
      <point x="465" y="352" type="line" smooth="no"/>
      <point x="433" y="352" type="line" smooth="no"/>
      <point x="433" y="384" type="line" smooth="no"/>
      <point x="401" y="384" type="line" smooth="no"/>
      <point x="401" y="416" type="line" smooth="no"/>
      <point x="209" y="416" type="line" smooth="no"/>
      <point x="209" y="384" type="line" smooth="no"/>
      <point x="177" y="384" type="line" smooth="no"/>
      <point x="177" y="352" type="line" smooth="no"/>
      <point x="145" y="352" type="line" smooth="no"/>
      <point x="145" y="160" type="line" smooth="no"/>
      <point x="177" y="160" type="line" smooth="no"/>
      <point x="177" y="128" type="line" smooth="no"/>
      <point x="209" y="128" type="line" smooth="no"/>
      <point x="209" y="96" type="line" smooth="no"/>
    </contour>
    <contour>
      <point x="81" y="0" type="line" smooth="no"/>
      <point x="81" y="32" type="line" smooth="no"/>
      <point x="49" y="32" type="line" smooth="no"/>
      <point x="49" y="64" type="line" smooth="no"/>
      <point x="81" y="64" type="line" smooth="no"/>
      <point x="81" y="96" type="line" smooth="no"/>
      <point x="113" y="96" type="line" smooth="no"/>
      <point x="113" y="160" type="line" smooth="no"/>
      <point x="81" y="160" type="line" smooth="no"/>
      <point x="81" y="352" type="line" smooth="no"/>
      <point x="113" y="352" type="line" smooth="no"/>
      <point x="113" y="416" type="line" smooth="no"/>
      <point x="81" y="416" type="line" smooth="no"/>
      <point x="81" y="448" type="line" smooth="no"/>
      <point x="49" y="448" type="line" smooth="no"/>
      <point x="49" y="480" type="line" smooth="no"/>
      <point x="81" y="480" type="line" smooth="no"/>
      <point x="81" y="512" type="line" smooth="no"/>
      <point x="113" y="512" type="line" smooth="no"/>
      <point x="113" y="480" type="line" smooth="no"/>
      <point x="145" y="480" type="line" smooth="no"/>
      <point x="145" y="448" type="line" smooth="no"/>
      <point x="209" y="448" type="line" smooth="no"/>
      <point x="209" y="480" type="line" smooth="no"/>
      <point x="401" y="480" type="line" smooth="no"/>
      <point x="401" y="448" type="line" smooth="no"/>
      <point x="465" y="448" type="line" smooth="no"/>
      <point x="465" y="480" type="line" smooth="no"/>
      <point x="497" y="480" type="line" smooth="no"/>
      <point x="497" y="512" type="line" smooth="no"/>
      <point x="529" y="512" type="line" smooth="no"/>
      <point x="529" y="480" type="line" smooth="no"/>
      <point x="561" y="480" type="line" smooth="no"/>
      <point x="561" y="448" type="line" smooth="no"/>
      <point x="529" y="448" type="line" smooth="no"/>
      <point x="529" y="416" type="line" smooth="no"/>
      <point x="497" y="416" type="line" smooth="no"/>
      <point x="497" y="352" type="line" smooth="no"/>
      <point x="529" y="352" type="line" smooth="no"/>
      <point x="529" y="160" type="line" smooth="no"/>
      <point x="497" y="160" type="line" smooth="no"/>
      <point x="497" y="96" type="line" smooth="no"/>
      <point x="529" y="96" type="line" smooth="no"/>
      <point x="529" y="64" type="line" smooth="no"/>
      <point x="561" y="64" type="line" smooth="no"/>
      <point x="561" y="32" type="line" smooth="no"/>
      <point x="529" y="32" type="line" smooth="no"/>
      <point x="529" y="0" type="line" smooth="no"/>
      <point x="497" y="0" type="line" smooth="no"/>
      <point x="497" y="32" type="line" smooth="no"/>
      <point x="465" y="32" type="line" smooth="no"/>
      <point x="465" y="64" type="line" smooth="no"/>
      <point x="401" y="64" type="line" smooth="no"/>
      <point x="401" y="32" type="line" smooth="no"/>
      <point x="209" y="32" type="line" smooth="no"/>
      <point x="209" y="64" type="line" smooth="no"/>
      <point x="145" y="64" type="line" smooth="no"/>
      <point x="145" y="32" type="line" smooth="no"/>
      <point x="113" y="32" type="line" smooth="no"/>
      <point x="113" y="0" type="line" smooth="no"/>
    </contour>
  </outline>
</glyph>
<glyph name="yen" format="1">
  <advance width="647"/>
  <unicode hex="00a5"/>
  <outline>
    <contour>
      <point x="332" y="320" type="line" smooth="no"/>
      <point x="332" y="384" type="line" smooth="no"/>
      <point x="364" y="384" type="line" smooth="no"/>
      <point x="364" y="416" type="line" smooth="no"/>
      <point x="268" y="416" type="line" smooth="no"/>
      <point x="268" y="384" type="line" smooth="no"/>
      <point x="300" y="384" type="line" smooth="no"/>
      <point x="300" y="320" type="line" smooth="no"/>
    </contour>
    <contour>
      <point x="268" y="0" type="line" smooth="no"/>
      <point x="268" y="224" type="line" smooth="no"/>
      <point x="44" y="224" type="line" smooth="no"/>
      <point x="44" y="288" type="line" smooth="no"/>
      <point x="204" y="288" type="line" smooth="no"/>
      <point x="204" y="352" type="line" smooth="no"/>
      <point x="172" y="352" type="line" smooth="no"/>
      <point x="172" y="416" type="line" smooth="no"/>
      <point x="44" y="416" type="line" smooth="no"/>
      <point x="44" y="480" type="line" smooth="no"/>
      <point x="108" y="480" type="line" smooth="no"/>
      <point x="108" y="544" type="line" smooth="no"/>
      <point x="76" y="544" type="line" smooth="no"/>
      <point x="76" y="608" type="line" smooth="no"/>
      <point x="44" y="608" type="line" smooth="no"/>
      <point x="44" y="640" type="line" smooth="no"/>
      <point x="172" y="640" type="line" smooth="no"/>
      <point x="172" y="576" type="line" smooth="no"/>
      <point x="204" y="576" type="line" smooth="no"/>
      <point x="204" y="512" type="line" smooth="no"/>
      <point x="236" y="512" type="line" smooth="no"/>
      <point x="236" y="480" type="line" smooth="no"/>
      <point x="396" y="480" type="line" smooth="no"/>
      <point x="396" y="512" type="line" smooth="no"/>
      <point x="428" y="512" type="line" smooth="no"/>
      <point x="428" y="576" type="line" smooth="no"/>
      <point x="460" y="576" type="line" smooth="no"/>
      <point x="460" y="640" type="line" smooth="no"/>
      <point x="588" y="640" type="line" smooth="no"/>
      <point x="588" y="608" type="line" smooth="no"/>
      <point x="556" y="608" type="line" smooth="no"/>
      <point x="556" y="544" type="line" smooth="no"/>
      <point x="524" y="544" type="line" smooth="no"/>
      <point x="524" y="480" type="line" smooth="no"/>
      <point x="588" y="480" type="line" smooth="no"/>
      <point x="588" y="416" type="line" smooth="no"/>
      <point x="460" y="416" type="line" smooth="no"/>
      <point x="460" y="352" type="line" smooth="no"/>
      <point x="428" y="352" type="line" smooth="no"/>
      <point x="428" y="288" type="line" smooth="no"/>
      <point x="588" y="288" type="line" smooth="no"/>
      <point x="588" y="224" type="line" smooth="no"/>
      <point x="364" y="224" type="line" smooth="no"/>
      <point x="364" y="0" type="line" smooth="no"/>
    </contour>
  </outline>
</glyph>
<glyph name="section" format="1">
  <advance width="410"/>
  <unicode hex="00a7"/>
  <outline>
    <contour>
      <point x="269" y="160" type="line" smooth="no"/>
      <point x="269" y="192" type="line" smooth="no"/>
      <point x="301" y="192" type="line" smooth="no"/>
      <point x="301" y="256" type="line" smooth="no"/>
      <point x="269" y="256" type="line" smooth="no"/>
      <point x="269" y="288" type="line" smooth="no"/>
      <point x="237" y="288" type="line" smooth="no"/>
      <point x="237" y="320" type="line" smooth="no"/>
      <point x="141" y="320" type="line" smooth="no"/>
      <point x="141" y="288" type="line" smooth="no"/>
      <point x="109" y="288" type="line" smooth="no"/>
      <point x="109" y="224" type="line" smooth="no"/>
      <point x="141" y="224" type="line" smooth="no"/>
      <point x="141" y="192" type="line" smooth="no"/>
      <point x="173" y="192" type="line" smooth="no"/>
      <point x="173" y="160" type="line" smooth="no"/>
    </contour>
    <contour>
      <point x="141" y="-160" type="line" smooth="no"/>
      <point x="141" y="-128" type="line" smooth="no"/>
      <point x="109" y="-128" type="line" smooth="no"/>
      <point x="109" y="-64" type="line" smooth="no"/>
      <point x="77" y="-64" type="line" smooth="no"/>
      <point x="77" y="0" type="line" smooth="no"/>
      <point x="141" y="0" type="line" smooth="no"/>
      <point x="141" y="-64" type="line" smooth="no"/>
      <point x="173" y="-64" type="line" smooth="no"/>
      <point x="173" y="-96" type="line" smooth="no"/>
      <point x="237" y="-96" type="line" smooth="no"/>
      <point x="237" y="-64" type="line" smooth="no"/>
      <point x="269" y="-64" type="line" smooth="no"/>
      <point x="269" y="0" type="line" smooth="no"/>
      <point x="237" y="0" type="line" smooth="no"/>
      <point x="237" y="32" type="line" smooth="no"/>
      <point x="205" y="32" type="line" smooth="no"/>
      <point x="205" y="64" type="line" smooth="no"/>
      <point x="173" y="64" type="line" smooth="no"/>
      <point x="173" y="96" type="line" smooth="no"/>
      <point x="141" y="96" type="line" smooth="no"/>
      <point x="141" y="128" type="line" smooth="no"/>
      <point x="109" y="128" type="line" smooth="no"/>
      <point x="109" y="160" type="line" smooth="no"/>
      <point x="77" y="160" type="line" smooth="no"/>
      <point x="77" y="192" type="line" smooth="no"/>
      <point x="45" y="192" type="line" smooth="no"/>
      <point x="45" y="320" type="line" smooth="no"/>
      <point x="77" y="320" type="line" smooth="no"/>
      <point x="77" y="352" type="line" smooth="no"/>
      <point x="141" y="352" type="line" smooth="no"/>
      <point x="141" y="416" type="line" smooth="no"/>
      <point x="109" y="416" type="line" smooth="no"/>
      <point x="109" y="448" type="line" smooth="no"/>
      <point x="77" y="448" type="line" smooth="no"/>
      <point x="77" y="576" type="line" smooth="no"/>
      <point x="109" y="576" type="line" smooth="no"/>
      <point x="109" y="608" type="line" smooth="no"/>
      <point x="141" y="608" type="line" smooth="no"/>
      <point x="141" y="640" type="line" smooth="no"/>
      <point x="269" y="640" type="line" smooth="no"/>
      <point x="269" y="608" type="line" smooth="no"/>
      <point x="301" y="608" type="line" smooth="no"/>
      <point x="301" y="544" type="line" smooth="no"/>
      <point x="333" y="544" type="line" smooth="no"/>
      <point x="333" y="480" type="line" smooth="no"/>
      <point x="269" y="480" type="line" smooth="no"/>
      <point x="269" y="544" type="line" smooth="no"/>
      <point x="237" y="544" type="line" smooth="no"/>
      <point x="237" y="576" type="line" smooth="no"/>
      <point x="173" y="576" type="line" smooth="no"/>
      <point x="173" y="544" type="line" smooth="no"/>
      <point x="141" y="544" type="line" smooth="no"/>
      <point x="141" y="480" type="line" smooth="no"/>
      <point x="173" y="480" type="line" smooth="no"/>
      <point x="173" y="448" type="line" smooth="no"/>
      <point x="205" y="448" type="line" smooth="no"/>
      <point x="205" y="416" type="line" smooth="no"/>
      <point x="237" y="416" type="line" smooth="no"/>
      <point x="237" y="384" type="line" smooth="no"/>
      <point x="269" y="384" type="line" smooth="no"/>
      <point x="269" y="352" type="line" smooth="no"/>
      <point x="301" y="352" type="line" smooth="no"/>
      <point x="301" y="320" type="line" smooth="no"/>
      <point x="333" y="320" type="line" smooth="no"/>
      <point x="333" y="288" type="line" smooth="no"/>
      <point x="365" y="288" type="line" smooth="no"/>
      <point x="365" y="160" type="line" smooth="no"/>
      <point x="333" y="160" type="line" smooth="no"/>
      <point x="333" y="128" type="line" smooth="no"/>
      <point x="269" y="128" type="line" smooth="no"/>
      <point x="269" y="96" type="line" smooth="no"/>
      <point x="301" y="96" type="line" smooth="no"/>
      <point x="301" y="32" type="line" smooth="no"/>
      <point x="333" y="32" type="line" smooth="no"/>
      <point x="333" y="-96" type="line" smooth="no"/>
      <point x="301" y="-96" type="line" smooth="no"/>
      <point x="301" y="-128" type="line" smooth="no"/>
      <point x="269" y="-128" type="line" smooth="no"/>
      <point x="269" y="-160" type="line" smooth="no"/>
    </contour>
  </outline>
</glyph>
<glyph name="dieresis" format="1">
  <advance width="386"/>
  <unicode hex="00a8"/>
  <outline>
    <contour>
      <point x="33" y="704" type="line" smooth="no"/>
      <point x="33" y="800" type="line" smooth="no"/>
      <point x="129" y="800" type="line" smooth="no"/>
      <point x="129" y="704" type="line" smooth="no"/>
    </contour>
    <contour>
      <point x="225" y="704" type="line" smooth="no"/>
      <point x="225" y="800" type="line" smooth="no"/>
      <point x="321" y="800" type="line" smooth="no"/>
      <point x="321" y="704" type="line" smooth="no"/>
    </contour>
  </outline>
</glyph>
<glyph name="ordfeminine" format="1">
  <advance width="367"/>
  <unicode hex="00aa"/>
  <outline>
    <contour>
      <point x="52" y="128" type="line" smooth="no"/>
      <point x="52" y="192" type="line" smooth="no"/>
      <point x="308" y="192" type="line" smooth="no"/>
      <point x="308" y="128" type="line" smooth="no"/>
    </contour>
    <contour>
      <point x="212" y="288" type="line" smooth="no"/>
      <point x="212" y="320" type="line" smooth="no"/>
      <point x="244" y="320" type="line" smooth="no"/>
      <point x="244" y="384" type="line" smooth="no"/>
      <point x="148" y="384" type="line" smooth="no"/>
      <point x="148" y="352" type="line" smooth="no"/>
      <point x="116" y="352" type="line" smooth="no"/>
      <point x="116" y="320" type="line" smooth="no"/>
      <point x="148" y="320" type="line" smooth="no"/>
      <point x="148" y="288" type="line" smooth="no"/>
    </contour>
    <contour>
      <point x="116" y="224" type="line" smooth="no"/>
      <point x="116" y="256" type="line" smooth="no"/>
      <point x="84" y="256" type="line" smooth="no"/>
      <point x="84" y="288" type="line" smooth="no"/>
      <point x="52" y="288" type="line" smooth="no"/>
      <point x="52" y="384" type="line" smooth="no"/>
      <point x="84" y="384" type="line" smooth="no"/>
      <point x="84" y="416" type="line" smooth="no"/>
      <point x="116" y="416" type="line" smooth="no"/>
      <point x="116" y="448" type="line" smooth="no"/>
      <point x="244" y="448" type="line" smooth="no"/>
      <point x="244" y="512" type="line" smooth="no"/>
      <point x="116" y="512" type="line" smooth="no"/>
      <point x="116" y="480" type="line" smooth="no"/>
      <point x="52" y="480" type="line" smooth="no"/>
      <point x="52" y="512" type="line" smooth="no"/>
      <point x="84" y="512" type="line" smooth="no"/>
      <point x="84" y="544" type="line" smooth="no"/>
      <point x="116" y="544" type="line" smooth="no"/>
      <point x="116" y="576" type="line" smooth="no"/>
      <point x="244" y="576" type="line" smooth="no"/>
      <point x="244" y="544" type="line" smooth="no"/>
      <point x="276" y="544" type="line" smooth="no"/>
      <point x="276" y="512" type="line" smooth="no"/>
      <point x="308" y="512" type="line" smooth="no"/>
      <point x="308" y="224" type="line" smooth="no"/>
      <point x="244" y="224" type="line" smooth="no"/>
      <point x="244" y="256" type="line" smooth="no"/>
      <point x="212" y="256" type="line" smooth="no"/>
      <point x="212" y="224" type="line" smooth="no"/>
    </contour>
  </outline>
</glyph>
<glyph name="logicalnot" format="1">
  <advance width="761"/>
  <unicode hex="00ac"/>
  <outline>
    <contour>
      <point x="649" y="0" type="line" smooth="no"/>
      <point x="649" y="288" type="line" smooth="no"/>
      <point x="9" y="288" type="line" smooth="no"/>
      <point x="9" y="352" type="line" smooth="no"/>
      <point x="713" y="352" type="line" smooth="no"/>
      <point x="713" y="0" type="line" smooth="no"/>
    </contour>
  </outline>
</glyph>
